<svg width="20" height="22" viewBox="0 0 20 22" fill="none" xmlns="http://www.w3.org/2000/svg">
<path d="M19.9907 21.1396L17.5689 5.15657C17.5114 4.7857 17.166 4.51126 16.7587 4.51126H14.7206C14.5952 2.0027 12.5261 0 9.99955 0C7.47298 0 5.40244 2.0027 5.27847 4.51126H2.96737C2.55563 4.51126 2.20881 4.79164 2.15568 5.16696L0.00692475 21.15C-0.0565345 21.5995 0.324221 21.9985 0.818613 21.9985H19.1805C19.6793 21.9985 20.0615 21.592 19.9907 21.1396ZM13.4559 9.22872C13.506 9.28658 13.537 9.34295 13.54 9.3563C13.5444 9.38597 13.5577 9.47053 13.5577 9.6174L13.5961 11.804C13.5946 11.8352 13.568 11.8545 13.5178 11.8619C13.4677 11.8693 13.4396 11.8515 13.4322 11.81C13.3717 11.586 13.2832 11.3486 13.1651 11.0964C13.0176 10.7775 12.749 10.4303 12.4036 10.2553C12.0716 10.0862 11.5595 10.012 10.9928 10.104C10.3788 10.2034 9.6365 10.8873 9.28821 11.5281C9.09045 11.8931 8.91188 12.3381 8.93697 12.7268C8.93845 12.7505 8.90893 12.7609 8.89417 12.7416C8.64329 12.39 7.89949 10.3265 9.78555 9.08334C10.2386 8.78516 10.5176 8.69912 10.8009 8.63385C10.1678 7.49454 8.28319 7.69036 7.31802 7.87876C7.28998 7.88469 7.28113 7.84315 7.30769 7.83574C7.8744 7.67849 9.01814 7.2557 9.91985 7.28388C10.9854 7.318 11.7867 8.1354 12.1306 8.56561C12.1793 8.57154 12.2236 8.58044 12.2664 8.58934C12.8419 8.71841 13.2507 9.05812 13.3644 9.14417C13.3983 9.16938 13.4293 9.19757 13.4559 9.23021V9.22872ZM9.99955 1.33513C11.7941 1.33513 13.267 2.73999 13.3895 4.51126H6.60964C6.73361 2.7385 8.20645 1.33513 9.99955 1.33513ZM9.78113 18.5049C8.40716 18.1845 7.228 17.4457 6.42812 16.4518C6.42074 16.4755 6.41483 16.5007 6.40893 16.5245C5.65332 19.6546 8.57245 19.4751 9.42251 19.5597C9.47564 19.5641 9.50663 19.6235 9.4594 19.6487C5.1545 21.9585 3.37912 18.2053 6.05769 15.9266C5.59429 15.179 5.3316 14.3215 5.3316 13.4107C5.3316 10.8591 7.39329 8.73176 10.1309 8.24518C10.1855 8.23479 10.2121 8.31045 10.1634 8.33715C8.37322 9.36669 7.16897 11.2893 7.16897 13.4908C7.16897 14.0322 7.24128 14.5574 7.37853 15.0573C9.8313 13.8512 11.7705 15.0781 12.2619 15.4386C12.3033 15.4682 12.287 15.5335 12.2369 15.5424C11.7528 15.6299 11.4193 16.3168 11.3174 16.5541C11.3012 16.5927 11.2525 16.6001 11.223 16.5705C9.74718 15.0336 8.59754 14.8734 7.81241 15.1018C7.68107 15.1404 7.55563 15.1908 7.43461 15.2531C7.84193 16.5616 8.69347 17.6771 9.81212 18.4278C9.85049 18.453 9.82393 18.5138 9.77965 18.5034L9.78113 18.5049ZM14.8372 13.6836C14.6365 13.6717 14.4948 13.7133 14.4107 13.8097C14.3266 13.9061 14.2735 14.1034 14.2513 14.3986C14.2292 14.6953 14.2174 15.2101 14.2174 15.943C14.2174 16.523 14.2366 16.9339 14.2764 17.1787C14.3148 17.4235 14.3354 17.5777 14.3354 17.6415C14.3354 17.7187 14.3236 17.7706 14.3015 17.7958C14.2794 17.8225 14.2292 17.8759 14.151 17.9011C13.7805 18.0703 13.3053 18.2943 12.7932 18.407C12.1026 18.5598 11.344 18.5776 10.6843 18.5776L10.6902 18.0866C11.1477 18.0866 11.499 18.0287 11.7439 17.913C11.9889 17.7973 12.1675 17.5718 12.2797 17.2365C12.3903 16.9013 12.4464 16.4191 12.4464 15.7501C12.4464 15.081 12.4125 14.8363 12.3461 14.5722C12.2797 14.3082 12.1365 14.2429 11.9196 14.1524C11.7026 14.0619 11.3204 14.0174 10.7743 14.0174C10.7079 14.0174 10.674 13.9655 10.674 13.8631C10.674 13.8245 10.6828 13.4552 10.6991 13.424C10.7153 13.3914 10.7345 13.375 10.7581 13.375C11.7056 13.4388 12.4966 13.4715 13.0663 13.4715C13.6359 13.4715 14.2262 13.4522 14.8387 13.4136C14.883 13.4136 14.908 13.4581 14.9139 13.5486C14.9199 13.6391 14.8948 13.6836 14.8387 13.6836H14.8372Z" fill="white"/>
</svg>
