<svg width="20" height="22" viewBox="0 0 20 22" fill="none" xmlns="http://www.w3.org/2000/svg">
<g clip-path="url(#clip0_1339_11919)">
<path fill-rule="evenodd" clip-rule="evenodd" d="M17.5689 5.15657L19.9907 21.1396C20.0615 21.592 19.6793 21.9985 19.1805 21.9985H0.818613C0.324221 21.9985 -0.0565345 21.5995 0.00692475 21.15L2.15569 5.16696C2.20881 4.79164 2.55563 4.51126 2.96737 4.51126H5.27847C5.40244 2.0027 7.47298 0 9.99955 0C12.5261 0 14.5952 2.0027 14.7206 4.51126H16.7587C17.166 4.51126 17.5114 4.7857 17.5689 5.15657ZM13.3895 4.51126C13.267 2.73999 11.7941 1.33513 9.99955 1.33513C8.20645 1.33513 6.73361 2.7385 6.60964 4.51126H13.3895Z" fill="white"/>
<path d="M7 14.2706L8.74085 15.8683C8.85196 15.9702 8.99097 16.0157 9.12884 15.9952C9.26671 15.9747 9.39277 15.8898 9.48069 15.7583L14 9" stroke="#508042" stroke-width="1.6" stroke-linecap="round"/>
</g>
<defs>
<clipPath id="clip0_1339_11919">
<rect width="20" height="22" fill="white"/>
</clipPath>
</defs>
</svg>
