<svg width="960" height="99" viewBox="0 0 960 99" fill="none" xmlns="http://www.w3.org/2000/svg">
<path d="M44.09 100.56C35.77 100.56 28.36 98.74 21.86 95.1C15.36 91.46 10.2467 86 6.52 78.72C2.79333 71.3533 0.930001 62.21 0.930001 51.29C0.930001 43.75 2.18667 37.0333 4.7 31.14C7.21333 25.16 10.5933 20.09 14.84 15.93C19.0867 11.77 23.81 8.60666 29.01 6.44C34.2967 4.18666 39.7133 3.06 45.26 3.06C49.0733 3.06 52.67 3.62333 56.05 4.75C59.43 5.78999 61.7267 6.65666 62.94 7.34999C63.8933 7.95666 64.7167 8.26 65.41 8.26C66.19 8.17333 66.8833 7.99999 67.49 7.74C67.9233 7.56666 68.7467 7.17666 69.96 6.57C71.1733 5.96333 71.9967 5.61666 72.43 5.52999C73.21 5.26999 74.0767 5.35666 75.03 5.79C76.07 6.13666 76.59 6.82999 76.59 7.87V31.53C76.59 32.3967 75.9833 32.96 74.77 33.22C73.6433 33.3933 72.9067 33.09 72.56 32.31C70.5667 28.2367 68.3133 24.3367 65.8 20.61C63.2867 16.7967 60.3833 13.6767 57.09 11.25C53.7967 8.82333 49.8533 7.61 45.26 7.61C42.0533 7.61 38.89 8.39 35.77 9.94999C32.7367 11.4233 29.9633 13.8933 27.45 17.36C24.9367 20.74 22.9 25.2467 21.34 30.88C19.8667 36.4267 19.13 43.23 19.13 51.29C19.13 62.47 20.2133 71.31 22.38 77.81C24.5467 84.31 27.5367 88.9467 31.35 91.72C35.1633 94.4067 39.4967 95.75 44.35 95.75C51.4567 95.75 56.44 93.8 59.3 89.9C62.16 85.9133 63.59 80.8 63.59 74.56V68.84C63.59 66.5867 63.0267 64.8533 61.9 63.64C60.7733 62.4267 58.26 61.82 54.36 61.82C53.7533 61.82 53.2767 61.6467 52.93 61.3C52.5833 60.8667 52.41 60.4333 52.41 60C52.41 58.7 53.06 58.05 54.36 58.05C54.9667 58.05 56.18 58.0933 58 58.18C59.9067 58.2667 62.03 58.3533 64.37 58.44C66.7967 58.5267 69.0933 58.57 71.26 58.57C74.5533 58.57 77.8467 58.4833 81.14 58.31C84.4333 58.1367 86.6433 58.05 87.77 58.05C88.3767 58.05 88.8967 58.2233 89.33 58.57C89.85 58.9167 90.11 59.3933 90.11 60C90.11 60.52 89.85 60.9533 89.33 61.3C88.8967 61.6467 88.3767 61.82 87.77 61.82C85.3433 61.82 83.35 62.2967 81.79 63.25C80.23 64.1167 79.45 66.11 79.45 69.23C79.45 76.5967 79.58 82.75 79.84 87.69C80.1 92.5433 80.23 95.2733 80.23 95.88C80.23 96.8333 79.71 97.44 78.67 97.7C77.7167 97.8733 77.0233 97.7 76.59 97.18C76.2433 96.7467 75.6367 96.01 74.77 94.97C73.99 93.8433 73.21 92.8033 72.43 91.85C71.7367 90.81 71.3033 90.2467 71.13 90.16C70.0033 89.0333 68.9633 88.99 68.01 90.03C65.7567 92.7167 62.6367 95.1433 58.65 97.31C54.6633 99.4767 49.81 100.56 44.09 100.56ZM99.6569 99C98.5302 99 97.9669 98.3067 97.9669 96.92C97.9669 95.7933 98.5302 95.23 99.6569 95.23C104.51 95.23 107.76 94.6233 109.407 93.41C111.14 92.1967 112.007 90.16 112.007 87.3V16.06C112.007 13.46 111.227 11.51 109.667 10.21C108.107 8.91 104.987 8.26 100.307 8.26C99.1802 8.26 98.6169 7.61 98.6169 6.30999C98.6169 5.18333 99.1802 4.62 100.307 4.62C101 4.62 104.294 4.66333 110.187 4.75C116.167 4.83666 124.92 4.88 136.447 4.88C147.367 4.88 155.644 4.83666 161.277 4.75C166.91 4.66333 170.117 4.62 170.897 4.62C172.89 4.62 173.93 5.61667 174.017 7.61C174.19 8.39 174.32 9.69 174.407 11.51C174.494 13.2433 174.58 15.1067 174.667 17.1C174.754 19.0933 174.797 20.87 174.797 22.43C174.884 23.99 174.927 24.9867 174.927 25.42C174.927 25.7667 174.84 26.1567 174.667 26.59C174.494 26.9367 174.104 27.11 173.497 27.11C172.89 27.11 172.414 27.0667 172.067 26.98C171.807 26.8067 171.547 26.4167 171.287 25.81C170.247 23.47 168.904 21 167.257 18.4C165.697 15.7133 163.574 13.4167 160.887 11.51C158.287 9.60333 154.864 8.64999 150.617 8.64999H130.467C129.687 8.64999 129.037 8.82333 128.517 9.16999C127.997 9.51666 127.737 10.2533 127.737 11.38V47C127.737 47.3467 127.91 47.7367 128.257 48.17C128.604 48.5167 128.994 48.69 129.427 48.69H136.057C139.697 48.69 142.47 47.91 144.377 46.35C146.284 44.79 147.67 42.97 148.537 40.89C149.49 38.81 150.27 37.0333 150.877 35.56C151.137 34.8667 151.354 34.39 151.527 34.13C151.787 33.7833 152.264 33.61 152.957 33.61C153.564 33.61 153.954 33.8267 154.127 34.26C154.387 34.6933 154.517 35.1267 154.517 35.56C154.517 36.2533 154.474 37.51 154.387 39.33C154.387 41.0633 154.344 42.97 154.257 45.05C154.257 47.13 154.257 49.0367 154.257 50.77C154.257 52.4167 154.257 54.41 154.257 56.75C154.344 59.0033 154.387 61.0833 154.387 62.99C154.474 64.81 154.517 66.0233 154.517 66.63C154.517 67.93 153.997 68.58 152.957 68.58C152.004 68.58 151.354 68.0167 151.007 66.89C150.4 65.2433 149.62 63.3367 148.667 61.17C147.714 58.9167 146.284 56.9667 144.377 55.32C142.47 53.5867 139.697 52.72 136.057 52.72H129.427C128.3 52.72 127.737 53.37 127.737 54.67V92.24C127.737 93.8867 128.604 94.71 130.337 94.71H147.887C152.047 94.71 155.557 93.9733 158.417 92.5C161.277 90.94 163.617 89.0333 165.437 86.78C167.344 84.44 168.817 82.1433 169.857 79.89C170.897 77.55 171.677 75.6 172.197 74.04C172.457 73.26 172.717 72.8267 172.977 72.74C173.324 72.6533 173.8 72.6533 174.407 72.74C174.494 72.74 174.537 72.74 174.537 72.74C175.23 72.8267 175.62 73.0433 175.707 73.39C175.794 73.7367 175.837 74.1267 175.837 74.56C175.837 74.9067 175.794 75.99 175.707 77.81C175.707 79.63 175.664 81.7533 175.577 84.18C175.577 86.52 175.534 88.73 175.447 90.81C175.447 92.8033 175.447 94.19 175.447 94.97C175.447 96.0967 175.1 97.05 174.407 97.83C173.8 98.61 172.89 99 171.677 99C171.07 99 169.727 98.9567 167.647 98.87C165.567 98.7833 162.144 98.74 157.377 98.74C152.61 98.6533 145.937 98.61 137.357 98.61C126.784 98.61 118.074 98.6967 111.227 98.87C104.467 98.9567 100.61 99 99.6569 99ZM263.159 99.39C262.813 99.39 262.509 99.39 262.249 99.39C261.989 99.39 261.729 99.39 261.469 99.39C259.823 99.4767 258.566 99.4333 257.699 99.26C256.833 99.0867 256.053 98.35 255.359 97.05C254.319 95.23 252.716 92.5433 250.549 88.99C248.383 85.35 245.826 81.19 242.879 76.51C239.933 71.7433 236.813 66.76 233.519 61.56C230.313 56.36 227.106 51.2467 223.899 46.22C220.779 41.1933 217.876 36.6 215.189 32.44C212.503 28.1933 210.249 24.6833 208.429 21.91C206.609 19.05 205.483 17.2733 205.049 16.58C204.963 16.4067 204.746 16.3633 204.399 16.45C204.139 16.45 204.009 16.6667 204.009 17.1V77.68C204.009 84.2667 205.266 88.86 207.779 91.46C210.379 93.9733 213.413 95.23 216.879 95.23C217.313 95.23 217.703 95.4033 218.049 95.75C218.483 96.01 218.699 96.4433 218.699 97.05C218.699 97.6567 218.483 98.1333 218.049 98.48C217.703 98.8267 217.313 99 216.879 99C216.013 99 214.236 98.9567 211.549 98.87C208.863 98.6967 205.613 98.61 201.799 98.61C197.293 98.61 193.869 98.6967 191.529 98.87C189.276 98.9567 187.673 99 186.719 99C185.593 99 185.029 98.35 185.029 97.05C185.029 95.8367 185.593 95.23 186.719 95.23C190.359 95.23 193.306 93.93 195.559 91.33C197.899 88.73 199.069 84.2233 199.069 77.81V17.23C199.069 14.11 198.376 11.8567 196.989 10.47C195.603 8.99666 193.133 8.26 189.579 8.26C188.453 8.26 187.889 7.61 187.889 6.30999C187.889 5.18333 188.453 4.62 189.579 4.62C190.273 4.62 192.569 4.66333 196.469 4.75C200.456 4.83666 205.656 4.88 212.069 4.88C213.543 4.88 214.626 5.09666 215.319 5.52999C216.013 5.96333 216.663 6.7 217.269 7.74C217.616 8.34666 218.656 9.99333 220.389 12.68C222.123 15.3667 224.289 18.7467 226.889 22.82C229.489 26.8067 232.306 31.14 235.339 35.82C238.373 40.5 241.406 45.18 244.439 49.86C247.473 54.54 250.246 58.8733 252.759 62.86C255.359 66.8467 257.483 70.14 259.129 72.74C260.863 75.2533 261.859 76.7267 262.119 77.16C262.639 77.94 263.116 78.2 263.549 77.94C264.069 77.68 264.329 77.2033 264.329 76.51V25.94C264.329 19.6133 263.116 15.1067 260.689 12.42C258.349 9.64667 255.099 8.26 250.939 8.26C249.813 8.26 249.249 7.61 249.249 6.30999C249.249 5.18333 249.813 4.62 250.939 4.62C251.893 4.62 253.756 4.70666 256.529 4.88C259.303 4.96666 262.596 5.00999 266.409 5.00999C270.136 5.00999 273.343 4.96666 276.029 4.88C278.716 4.70666 280.493 4.62 281.359 4.62C282.659 4.62 283.309 5.18333 283.309 6.30999C283.309 7.61 282.659 8.26 281.359 8.26C278.066 8.26 275.206 9.60333 272.779 12.29C270.439 14.89 269.269 19.44 269.269 25.94V75.34C269.269 79.9333 269.443 83.8333 269.789 87.04C270.136 90.16 270.396 93.1067 270.569 95.88C270.656 96.8333 270.309 97.6567 269.529 98.35C268.836 98.9567 266.713 99.3033 263.159 99.39ZM311.606 99C310.479 99 309.916 98.3933 309.916 97.18C309.916 95.88 310.479 95.23 311.606 95.23C316.459 95.23 319.709 94.5367 321.356 93.15C323.002 91.7633 323.826 89.8133 323.826 87.3V11.38C323.826 9.55999 322.916 8.64999 321.096 8.64999H313.296C310.002 8.64999 307.186 9.42999 304.846 10.99C302.506 12.4633 300.556 14.37 298.996 16.71C297.436 18.9633 296.179 21.2167 295.226 23.47C294.272 25.7233 293.536 27.63 293.016 29.19C292.842 29.71 292.582 30.0133 292.236 30.1C291.889 30.1867 291.412 30.1867 290.806 30.1C290.719 30.1 290.632 30.1 290.546 30.1C290.026 30.0133 289.722 29.84 289.636 29.58C289.549 29.2333 289.506 28.8867 289.506 28.54C289.506 28.1933 289.549 27.0667 289.636 25.16C289.722 23.2533 289.809 21.0867 289.896 18.66C290.069 16.2333 290.199 13.98 290.286 11.9C290.372 9.82 290.416 8.39 290.416 7.61C290.416 5.61667 291.542 4.62 293.796 4.62C294.229 4.62 296.092 4.66333 299.386 4.75C302.679 4.83666 307.099 4.92333 312.646 5.00999C318.279 5.00999 324.736 5.00999 332.016 5.00999C339.296 5.00999 345.709 5.00999 351.256 5.00999C356.889 4.92333 361.396 4.83666 364.776 4.75C368.156 4.66333 370.062 4.62 370.496 4.62C372.576 4.62 373.659 5.66 373.746 7.74C373.746 8.34666 373.789 9.69 373.876 11.77C374.049 13.7633 374.179 16.0167 374.266 18.53C374.352 20.9567 374.439 23.1667 374.526 25.16C374.612 27.0667 374.656 28.1933 374.656 28.54C374.656 29.06 374.612 29.45 374.526 29.71C374.439 29.8833 374.049 30.0133 373.356 30.1C373.269 30.1 373.139 30.1433 372.966 30.23C372.619 30.23 372.316 30.23 372.056 30.23C371.796 30.1433 371.492 29.7533 371.146 29.06C370.452 27.5867 369.586 25.7233 368.546 23.47C367.592 21.2167 366.336 18.9633 364.776 16.71C363.302 14.4567 361.439 12.55 359.186 10.99C356.932 9.42999 354.159 8.64999 350.866 8.64999H342.286C341.506 8.64999 340.812 8.82333 340.206 9.16999C339.686 9.43 339.426 10.1667 339.426 11.38V87.3C339.426 88.7733 339.642 90.1167 340.076 91.33C340.596 92.5433 341.679 93.4967 343.326 94.19C345.059 94.8833 347.702 95.23 351.256 95.23C352.556 95.23 353.206 95.88 353.206 97.18C353.206 98.3933 352.556 99 351.256 99C350.389 99 348.222 98.9567 344.756 98.87C341.376 98.6967 336.999 98.61 331.626 98.61C326.252 98.61 321.789 98.6967 318.236 98.87C314.769 98.9567 312.559 99 311.606 99ZM383.651 99C382.524 99 381.961 98.3067 381.961 96.92C381.961 95.7933 382.524 95.23 383.651 95.23C388.504 95.23 391.754 94.6233 393.401 93.41C395.134 92.1967 396.001 90.16 396.001 87.3V16.06C396.001 13.46 395.221 11.51 393.661 10.21C392.101 8.91 388.981 8.26 384.301 8.26C383.174 8.26 382.611 7.61 382.611 6.30999C382.611 5.18333 383.174 4.62 384.301 4.62C384.994 4.62 388.288 4.66333 394.181 4.75C400.161 4.83666 408.914 4.88 420.441 4.88C431.361 4.88 439.638 4.83666 445.271 4.75C450.904 4.66333 454.111 4.62 454.891 4.62C456.884 4.62 457.924 5.61667 458.011 7.61C458.184 8.39 458.314 9.69 458.401 11.51C458.488 13.2433 458.574 15.1067 458.661 17.1C458.748 19.0933 458.791 20.87 458.791 22.43C458.878 23.99 458.921 24.9867 458.921 25.42C458.921 25.7667 458.834 26.1567 458.661 26.59C458.488 26.9367 458.098 27.11 457.491 27.11C456.884 27.11 456.408 27.0667 456.061 26.98C455.801 26.8067 455.541 26.4167 455.281 25.81C454.241 23.47 452.898 21 451.251 18.4C449.691 15.7133 447.568 13.4167 444.881 11.51C442.281 9.60333 438.858 8.64999 434.611 8.64999H414.461C413.681 8.64999 413.031 8.82333 412.511 9.16999C411.991 9.51666 411.731 10.2533 411.731 11.38V47C411.731 47.3467 411.904 47.7367 412.251 48.17C412.598 48.5167 412.988 48.69 413.421 48.69H420.051C423.691 48.69 426.464 47.91 428.371 46.35C430.278 44.79 431.664 42.97 432.531 40.89C433.484 38.81 434.264 37.0333 434.871 35.56C435.131 34.8667 435.348 34.39 435.521 34.13C435.781 33.7833 436.258 33.61 436.951 33.61C437.558 33.61 437.948 33.8267 438.121 34.26C438.381 34.6933 438.511 35.1267 438.511 35.56C438.511 36.2533 438.468 37.51 438.381 39.33C438.381 41.0633 438.338 42.97 438.251 45.05C438.251 47.13 438.251 49.0367 438.251 50.77C438.251 52.4167 438.251 54.41 438.251 56.75C438.338 59.0033 438.381 61.0833 438.381 62.99C438.468 64.81 438.511 66.0233 438.511 66.63C438.511 67.93 437.991 68.58 436.951 68.58C435.998 68.58 435.348 68.0167 435.001 66.89C434.394 65.2433 433.614 63.3367 432.661 61.17C431.708 58.9167 430.278 56.9667 428.371 55.32C426.464 53.5867 423.691 52.72 420.051 52.72H413.421C412.294 52.72 411.731 53.37 411.731 54.67V92.24C411.731 93.8867 412.598 94.71 414.331 94.71H431.881C436.041 94.71 439.551 93.9733 442.411 92.5C445.271 90.94 447.611 89.0333 449.431 86.78C451.338 84.44 452.811 82.1433 453.851 79.89C454.891 77.55 455.671 75.6 456.191 74.04C456.451 73.26 456.711 72.8267 456.971 72.74C457.318 72.6533 457.794 72.6533 458.401 72.74C458.488 72.74 458.531 72.74 458.531 72.74C459.224 72.8267 459.614 73.0433 459.701 73.39C459.788 73.7367 459.831 74.1267 459.831 74.56C459.831 74.9067 459.788 75.99 459.701 77.81C459.701 79.63 459.658 81.7533 459.571 84.18C459.571 86.52 459.528 88.73 459.441 90.81C459.441 92.8033 459.441 94.19 459.441 94.97C459.441 96.0967 459.094 97.05 458.401 97.83C457.794 98.61 456.884 99 455.671 99C455.064 99 453.721 98.9567 451.641 98.87C449.561 98.7833 446.138 98.74 441.371 98.74C436.604 98.6533 429.931 98.61 421.351 98.61C410.778 98.61 402.068 98.6967 395.221 98.87C388.461 98.9567 384.604 99 383.651 99ZM472.013 99C470.8 99 470.193 98.4367 470.193 97.31C470.193 95.9233 470.8 95.23 472.013 95.23C476.693 95.23 479.9 94.6667 481.633 93.54C483.367 92.4133 484.233 90.3767 484.233 87.43V15.8C484.233 13.2867 483.54 11.4233 482.153 10.21C480.853 8.91 477.82 8.26 473.053 8.26C471.927 8.26 471.363 7.56666 471.363 6.17999C471.363 5.05333 471.927 4.48999 473.053 4.48999C473.833 4.48999 476.043 4.53333 479.683 4.62C483.323 4.70666 487.483 4.75 492.163 4.75C495.283 4.75 498.23 4.75 501.003 4.75C503.777 4.66333 506.117 4.62 508.023 4.62C510.017 4.53333 511.23 4.48999 511.663 4.48999C512.877 4.48999 513.483 5.05333 513.483 6.17999C513.483 7.56666 512.877 8.26 511.663 8.26C506.897 8.26 503.733 8.91 502.173 10.21C500.7 11.4233 499.963 13.2867 499.963 15.8V92.37C499.963 94.1033 500.873 94.97 502.693 94.97H522.843C527.09 94.97 530.817 93.7567 534.023 91.33C537.317 88.9033 540.09 85.9133 542.343 82.36C544.683 78.72 546.503 75.1667 547.803 71.7C548.063 71.0067 548.41 70.5733 548.843 70.4C549.277 70.14 549.667 70.0533 550.013 70.14C550.707 70.2267 551.14 70.4867 551.313 70.92C551.487 71.2667 551.573 71.6567 551.573 72.09C551.573 72.35 551.573 73.4333 551.573 75.34C551.573 77.2467 551.53 79.5433 551.443 82.23C551.443 84.83 551.4 87.3433 551.313 89.77C551.313 92.1967 551.27 94.0167 551.183 95.23C551.097 96.3567 550.75 97.2667 550.143 97.96C549.537 98.6533 548.627 99 547.413 99C546.807 99 545.203 99 542.603 99C540.003 98.9133 536.103 98.87 530.903 98.87C525.703 98.87 518.813 98.87 510.233 98.87C503.127 98.87 496.8 98.87 491.253 98.87C485.707 98.87 481.243 98.9133 477.863 99C474.57 99 472.62 99 472.013 99ZM559.451 99C558.324 99 557.761 98.3067 557.761 96.92C557.761 95.7933 558.324 95.23 559.451 95.23C563.091 95.23 566.037 93.93 568.291 91.33C570.544 88.6433 571.671 84.1367 571.671 77.81V17.23C571.671 14.11 570.934 11.8567 569.461 10.47C568.074 8.99666 565.604 8.26 562.051 8.26C560.924 8.26 560.361 7.65333 560.361 6.44C560.361 5.22667 560.924 4.62 562.051 4.62C562.831 4.62 565.517 4.66333 570.111 4.75C574.704 4.83666 580.164 4.88 586.491 4.88C589.437 4.88 591.301 6.00666 592.081 8.26C592.254 8.78 592.861 10.5133 593.901 13.46C594.941 16.4067 596.197 20.0467 597.671 24.38C599.231 28.6267 600.834 33.1333 602.481 37.9C604.214 42.58 605.817 47.0433 607.291 51.29C608.851 55.5367 610.151 59.09 611.191 61.95C612.231 64.7233 612.794 66.2833 612.881 66.63C613.834 69.3167 614.961 69.0567 616.261 65.85C616.434 65.33 616.997 63.7267 617.951 61.04C618.991 58.2667 620.204 54.8433 621.591 50.77C623.064 46.61 624.581 42.2333 626.141 37.64C627.701 33.0467 629.174 28.7133 630.561 24.64C632.034 20.48 633.247 16.97 634.201 14.11C635.241 11.1633 635.847 9.38666 636.021 8.78C636.801 6.18 638.707 4.88 641.741 4.88C648.067 4.88 653.354 4.83666 657.601 4.75C661.847 4.66333 664.274 4.62 664.881 4.62C666.007 4.62 666.571 5.22667 666.571 6.44C666.571 7.65333 666.007 8.26 664.881 8.26C661.674 8.26 659.421 8.95333 658.121 10.34C656.907 11.64 656.301 13.5467 656.301 16.06V86.91C656.301 89.6833 656.821 91.7633 657.861 93.15C658.901 94.5367 660.981 95.23 664.101 95.23C665.227 95.23 665.791 95.7933 665.791 96.92C665.791 98.3067 665.227 99 664.101 99C663.234 99 661.501 98.9567 658.901 98.87C656.387 98.6967 653.137 98.61 649.151 98.61C646.637 98.61 643.994 98.6533 641.221 98.74C638.534 98.74 636.194 98.7833 634.201 98.87C632.207 98.9567 630.907 99 630.301 99C629.001 99 628.351 98.3067 628.351 96.92C628.351 95.7933 629.001 95.23 630.301 95.23C634.287 95.23 637.017 94.6233 638.491 93.41C639.964 92.11 640.701 89.9433 640.701 86.91V13.72C640.701 13.1133 640.484 12.81 640.051 12.81C639.617 12.81 639.314 12.9833 639.141 13.33C639.054 13.59 638.447 15.2367 637.321 18.27C636.281 21.3033 634.894 25.2467 633.161 30.1C631.514 34.9533 629.694 40.2833 627.701 46.09C625.707 51.81 623.714 57.53 621.721 63.25C619.727 68.97 617.907 74.2133 616.261 78.98C614.614 83.7467 613.271 87.6033 612.231 90.55C611.277 93.4967 610.801 94.97 610.801 94.97C610.541 95.6633 610.281 96.0967 610.021 96.27C609.847 96.3567 609.544 96.4 609.111 96.4C608.417 96.4 607.897 96.01 607.551 95.23C607.464 95.0567 606.857 93.54 605.731 90.68C604.691 87.82 603.261 84.05 601.441 79.37C599.707 74.69 597.801 69.5767 595.721 64.03C593.641 58.4833 591.517 52.9367 589.351 47.39C587.271 41.8433 585.321 36.7733 583.501 32.18C581.767 27.5 580.337 23.73 579.211 20.87C578.171 17.9233 577.607 16.4067 577.521 16.32C577.434 16.06 577.217 15.9733 576.871 16.06C576.611 16.1467 576.481 16.3633 576.481 16.71V77.68C576.481 84.2667 577.781 88.86 580.381 91.46C582.981 93.9733 586.014 95.23 589.481 95.23C590.781 95.23 591.431 95.7933 591.431 96.92C591.431 98.3067 590.781 99 589.481 99C588.614 99 586.837 98.9567 584.151 98.87C581.551 98.6967 578.344 98.61 574.531 98.61C570.024 98.61 566.601 98.6967 564.261 98.87C562.007 98.9567 560.404 99 559.451 99ZM676.024 99C674.897 99 674.334 98.3067 674.334 96.92C674.334 95.7933 674.897 95.23 676.024 95.23C680.877 95.23 684.127 94.6233 685.774 93.41C687.507 92.1967 688.374 90.16 688.374 87.3V16.06C688.374 13.46 687.594 11.51 686.034 10.21C684.474 8.91 681.354 8.26 676.674 8.26C675.547 8.26 674.984 7.61 674.984 6.30999C674.984 5.18333 675.547 4.62 676.674 4.62C677.367 4.62 680.661 4.66333 686.554 4.75C692.534 4.83666 701.287 4.88 712.814 4.88C723.734 4.88 732.011 4.83666 737.644 4.75C743.277 4.66333 746.484 4.62 747.264 4.62C749.257 4.62 750.297 5.61667 750.384 7.61C750.557 8.39 750.687 9.69 750.774 11.51C750.861 13.2433 750.947 15.1067 751.034 17.1C751.121 19.0933 751.164 20.87 751.164 22.43C751.251 23.99 751.294 24.9867 751.294 25.42C751.294 25.7667 751.207 26.1567 751.034 26.59C750.861 26.9367 750.471 27.11 749.864 27.11C749.257 27.11 748.781 27.0667 748.434 26.98C748.174 26.8067 747.914 26.4167 747.654 25.81C746.614 23.47 745.271 21 743.624 18.4C742.064 15.7133 739.941 13.4167 737.254 11.51C734.654 9.60333 731.231 8.64999 726.984 8.64999H706.834C706.054 8.64999 705.404 8.82333 704.884 9.16999C704.364 9.51666 704.104 10.2533 704.104 11.38V47C704.104 47.3467 704.277 47.7367 704.624 48.17C704.971 48.5167 705.361 48.69 705.794 48.69H712.424C716.064 48.69 718.837 47.91 720.744 46.35C722.651 44.79 724.037 42.97 724.904 40.89C725.857 38.81 726.637 37.0333 727.244 35.56C727.504 34.8667 727.721 34.39 727.894 34.13C728.154 33.7833 728.631 33.61 729.324 33.61C729.931 33.61 730.321 33.8267 730.494 34.26C730.754 34.6933 730.884 35.1267 730.884 35.56C730.884 36.2533 730.841 37.51 730.754 39.33C730.754 41.0633 730.711 42.97 730.624 45.05C730.624 47.13 730.624 49.0367 730.624 50.77C730.624 52.4167 730.624 54.41 730.624 56.75C730.711 59.0033 730.754 61.0833 730.754 62.99C730.841 64.81 730.884 66.0233 730.884 66.63C730.884 67.93 730.364 68.58 729.324 68.58C728.371 68.58 727.721 68.0167 727.374 66.89C726.767 65.2433 725.987 63.3367 725.034 61.17C724.081 58.9167 722.651 56.9667 720.744 55.32C718.837 53.5867 716.064 52.72 712.424 52.72H705.794C704.667 52.72 704.104 53.37 704.104 54.67V92.24C704.104 93.8867 704.971 94.71 706.704 94.71H724.254C728.414 94.71 731.924 93.9733 734.784 92.5C737.644 90.94 739.984 89.0333 741.804 86.78C743.711 84.44 745.184 82.1433 746.224 79.89C747.264 77.55 748.044 75.6 748.564 74.04C748.824 73.26 749.084 72.8267 749.344 72.74C749.691 72.6533 750.167 72.6533 750.774 72.74C750.861 72.74 750.904 72.74 750.904 72.74C751.597 72.8267 751.987 73.0433 752.074 73.39C752.161 73.7367 752.204 74.1267 752.204 74.56C752.204 74.9067 752.161 75.99 752.074 77.81C752.074 79.63 752.031 81.7533 751.944 84.18C751.944 86.52 751.901 88.73 751.814 90.81C751.814 92.8033 751.814 94.19 751.814 94.97C751.814 96.0967 751.467 97.05 750.774 97.83C750.167 98.61 749.257 99 748.044 99C747.437 99 746.094 98.9567 744.014 98.87C741.934 98.7833 738.511 98.74 733.744 98.74C728.977 98.6533 722.304 98.61 713.724 98.61C703.151 98.61 694.441 98.6967 687.594 98.87C680.834 98.9567 676.977 99 676.024 99ZM839.526 99.39C839.18 99.39 838.876 99.39 838.616 99.39C838.356 99.39 838.096 99.39 837.836 99.39C836.19 99.4767 834.933 99.4333 834.066 99.26C833.2 99.0867 832.42 98.35 831.726 97.05C830.686 95.23 829.083 92.5433 826.916 88.99C824.75 85.35 822.193 81.19 819.246 76.51C816.3 71.7433 813.18 66.76 809.886 61.56C806.68 56.36 803.473 51.2467 800.266 46.22C797.146 41.1933 794.243 36.6 791.556 32.44C788.87 28.1933 786.616 24.6833 784.796 21.91C782.976 19.05 781.85 17.2733 781.416 16.58C781.33 16.4067 781.113 16.3633 780.766 16.45C780.506 16.45 780.376 16.6667 780.376 17.1V77.68C780.376 84.2667 781.633 88.86 784.146 91.46C786.746 93.9733 789.78 95.23 793.246 95.23C793.68 95.23 794.07 95.4033 794.416 95.75C794.85 96.01 795.066 96.4433 795.066 97.05C795.066 97.6567 794.85 98.1333 794.416 98.48C794.07 98.8267 793.68 99 793.246 99C792.38 99 790.603 98.9567 787.916 98.87C785.23 98.6967 781.98 98.61 778.166 98.61C773.66 98.61 770.236 98.6967 767.896 98.87C765.643 98.9567 764.04 99 763.086 99C761.96 99 761.396 98.35 761.396 97.05C761.396 95.8367 761.96 95.23 763.086 95.23C766.726 95.23 769.673 93.93 771.926 91.33C774.266 88.73 775.436 84.2233 775.436 77.81V17.23C775.436 14.11 774.743 11.8567 773.356 10.47C771.97 8.99666 769.5 8.26 765.946 8.26C764.82 8.26 764.256 7.61 764.256 6.30999C764.256 5.18333 764.82 4.62 765.946 4.62C766.64 4.62 768.936 4.66333 772.836 4.75C776.823 4.83666 782.023 4.88 788.436 4.88C789.91 4.88 790.993 5.09666 791.686 5.52999C792.38 5.96333 793.03 6.7 793.636 7.74C793.983 8.34666 795.023 9.99333 796.756 12.68C798.49 15.3667 800.656 18.7467 803.256 22.82C805.856 26.8067 808.673 31.14 811.706 35.82C814.74 40.5 817.773 45.18 820.806 49.86C823.84 54.54 826.613 58.8733 829.126 62.86C831.726 66.8467 833.85 70.14 835.496 72.74C837.23 75.2533 838.226 76.7267 838.486 77.16C839.006 77.94 839.483 78.2 839.916 77.94C840.436 77.68 840.696 77.2033 840.696 76.51V25.94C840.696 19.6133 839.483 15.1067 837.056 12.42C834.716 9.64667 831.466 8.26 827.306 8.26C826.18 8.26 825.616 7.61 825.616 6.30999C825.616 5.18333 826.18 4.62 827.306 4.62C828.26 4.62 830.123 4.70666 832.896 4.88C835.67 4.96666 838.963 5.00999 842.776 5.00999C846.503 5.00999 849.71 4.96666 852.396 4.88C855.083 4.70666 856.86 4.62 857.726 4.62C859.026 4.62 859.676 5.18333 859.676 6.30999C859.676 7.61 859.026 8.26 857.726 8.26C854.433 8.26 851.573 9.60333 849.146 12.29C846.806 14.89 845.636 19.44 845.636 25.94V75.34C845.636 79.9333 845.81 83.8333 846.156 87.04C846.503 90.16 846.763 93.1067 846.936 95.88C847.023 96.8333 846.676 97.6567 845.896 98.35C845.203 98.9567 843.08 99.3033 839.526 99.39ZM875.623 42.06C874.063 42.84 872.849 42.6667 871.983 41.54C870.943 40.0667 871.116 38.81 872.503 37.77C874.756 36.1233 876.793 34.39 878.613 32.57C880.519 30.75 881.993 28.3233 883.033 25.29C883.553 23.73 883.639 22.3433 883.293 21.13C883.033 19.9167 881.993 19.2233 880.173 19.05C877.226 18.7033 874.756 17.7933 872.763 16.32C870.856 14.8467 869.903 12.6367 869.903 9.69C869.903 7.26333 870.813 5.09666 872.633 3.18999C874.453 1.28333 877.009 0.329992 880.303 0.329992C883.509 0.329992 886.326 1.62999 888.753 4.23C891.179 6.82999 892.393 10.2967 892.393 14.63C892.393 18.79 891.569 22.6033 889.923 26.07C888.276 29.45 886.153 32.4833 883.553 35.17C881.039 37.8567 878.396 40.1533 875.623 42.06ZM942.636 100.56C938.649 100.56 934.879 100.04 931.326 99C927.772 98.0467 924.696 97.0067 922.096 95.88C919.582 94.7533 917.806 93.9733 916.766 93.54C915.899 93.1067 914.989 92.9333 914.036 93.02C913.082 93.1067 912.259 93.54 911.566 94.32C911.479 94.4067 911.436 94.45 911.436 94.45C911.349 94.45 911.132 94.6233 910.786 94.97C910.526 95.23 909.616 96.0967 908.056 97.57C907.189 98.4367 906.366 98.6967 905.586 98.35C904.806 97.9167 904.416 97.2233 904.416 96.27V70.92C904.416 69.88 904.979 69.2733 906.106 69.1C907.319 68.9267 908.056 69.23 908.316 70.01C909.962 74.8633 912.476 79.1967 915.856 83.01C919.236 86.8233 923.266 89.8133 927.946 91.98C932.712 94.06 937.826 95.1 943.286 95.1C947.792 95.1 951.432 94.19 954.206 92.37C957.066 90.55 959.189 88.2533 960.576 85.48C961.962 82.62 962.656 79.8033 962.656 77.03C962.656 73.3033 961.616 70.3133 959.536 68.06C957.456 65.72 954.726 63.8567 951.346 62.47C947.966 60.9967 944.196 59.74 940.036 58.7C935.962 57.66 931.889 56.5333 927.816 55.32C923.742 54.1067 920.016 52.5467 916.636 50.64C913.256 48.6467 910.526 46.0467 908.446 42.84C906.366 39.5467 905.326 35.3867 905.326 30.36C905.326 24.38 906.756 19.3967 909.616 15.41C912.562 11.3367 916.462 8.25999 921.316 6.17999C926.169 4.09999 931.412 3.06 937.046 3.06C939.906 3.06 942.809 3.40666 945.756 4.1C948.702 4.70666 951.432 5.48666 953.946 6.44C956.459 7.30666 958.366 8.13 959.666 8.91C961.746 10.0367 963.349 10.0367 964.476 8.91C965.342 8.04333 965.992 7.48 966.426 7.22C966.946 6.87333 967.206 6.7 967.206 6.7C967.899 6.00666 968.636 5.87666 969.416 6.30999C970.196 6.65666 970.586 7.39333 970.586 8.51999V30.75C970.586 31.8767 970.022 32.57 968.896 32.83C967.856 33.09 967.119 32.6567 966.686 31.53C964.779 27.2833 962.352 23.34 959.406 19.7C956.546 16.06 953.209 13.1133 949.396 10.86C945.669 8.60666 941.552 7.47999 937.046 7.47999C933.319 7.47999 930.026 8.30333 927.166 9.94999C924.306 11.51 922.052 13.59 920.406 16.19C918.759 18.79 917.936 21.6933 917.936 24.9C917.936 28.54 918.976 31.4433 921.056 33.61C923.222 35.7767 926.039 37.51 929.506 38.81C932.972 40.11 936.786 41.2367 940.946 42.19C945.192 43.1433 949.396 44.2267 953.556 45.44C957.716 46.5667 961.529 48.1267 964.996 50.12C968.462 52.1133 971.236 54.8 973.316 58.18C975.482 61.4733 976.566 65.8067 976.566 71.18C976.566 77.3333 975.092 82.62 972.146 87.04C969.199 91.46 965.169 94.84 960.056 97.18C954.942 99.4333 949.136 100.56 942.636 100.56Z" fill="#F5F5F5"/>
</svg>
