<svg width="1899" height="198" viewBox="0 0 1899 198" fill="none" xmlns="http://www.w3.org/2000/svg">
<path d="M85.215 197.06C68.895 197.06 54.36 193.49 41.61 186.35C28.86 179.21 18.83 168.5 11.52 154.22C4.21 139.77 0.555001 121.835 0.555001 100.415C0.555001 85.625 3.02 72.45 7.95 60.89C12.88 49.16 19.51 39.215 27.84 31.055C36.17 22.895 45.435 16.69 55.635 12.44C66.005 8.01999 76.63 5.80999 87.51 5.80999C94.99 5.80999 102.045 6.91499 108.675 9.12499C115.305 11.165 119.81 12.865 122.19 14.225C124.06 15.415 125.675 16.01 127.035 16.01C128.565 15.84 129.925 15.5 131.115 14.99C131.965 14.65 133.58 13.885 135.96 12.695C138.34 11.505 139.955 10.825 140.805 10.655C142.335 10.145 144.035 10.315 145.905 11.165C147.945 11.845 148.965 13.205 148.965 15.245V61.655C148.965 63.355 147.775 64.46 145.395 64.97C143.185 65.31 141.74 64.715 141.06 63.185C137.15 55.195 132.73 47.545 127.8 40.235C122.87 32.755 117.175 26.635 110.715 21.875C104.255 17.115 96.52 14.735 87.51 14.735C81.22 14.735 75.015 16.265 68.895 19.325C62.945 22.215 57.505 27.06 52.575 33.86C47.645 40.49 43.65 49.33 40.59 60.38C37.7 71.26 36.255 84.605 36.255 100.415C36.255 122.345 38.38 139.685 42.63 152.435C46.88 165.185 52.745 174.28 60.225 179.72C67.705 184.99 76.205 187.625 85.725 187.625C99.665 187.625 109.44 183.8 115.05 176.15C120.66 168.33 123.465 158.3 123.465 146.06V134.84C123.465 130.42 122.36 127.02 120.15 124.64C117.94 122.26 113.01 121.07 105.36 121.07C104.17 121.07 103.235 120.73 102.555 120.05C101.875 119.2 101.535 118.35 101.535 117.5C101.535 114.95 102.81 113.675 105.36 113.675C106.55 113.675 108.93 113.76 112.5 113.93C116.24 114.1 120.405 114.27 124.995 114.44C129.755 114.61 134.26 114.695 138.51 114.695C144.97 114.695 151.43 114.525 157.89 114.185C164.35 113.845 168.685 113.675 170.895 113.675C172.085 113.675 173.105 114.015 173.955 114.695C174.975 115.375 175.485 116.31 175.485 117.5C175.485 118.52 174.975 119.37 173.955 120.05C173.105 120.73 172.085 121.07 170.895 121.07C166.135 121.07 162.225 122.005 159.165 123.875C156.105 125.575 154.575 129.485 154.575 135.605C154.575 150.055 154.83 162.125 155.34 171.815C155.85 181.335 156.105 186.69 156.105 187.88C156.105 189.75 155.085 190.94 153.045 191.45C151.175 191.79 149.815 191.45 148.965 190.43C148.285 189.58 147.095 188.135 145.395 186.095C143.865 183.885 142.335 181.845 140.805 179.975C139.445 177.935 138.595 176.83 138.255 176.66C136.045 174.45 134.005 174.365 132.135 176.405C127.715 181.675 121.595 186.435 113.775 190.685C105.955 194.935 96.435 197.06 85.215 197.06ZM194.212 194C192.002 194 190.897 192.64 190.897 189.92C190.897 187.71 192.002 186.605 194.212 186.605C203.732 186.605 210.107 185.415 213.337 183.035C216.737 180.655 218.437 176.66 218.437 171.05V31.31C218.437 26.21 216.907 22.385 213.847 19.835C210.787 17.285 204.667 16.01 195.487 16.01C193.277 16.01 192.172 14.735 192.172 12.185C192.172 9.97499 193.277 8.87 195.487 8.87C196.847 8.87 203.307 8.955 214.867 9.12499C226.597 9.29499 243.767 9.37999 266.377 9.37999C287.797 9.37999 304.032 9.29499 315.082 9.12499C326.132 8.955 332.422 8.87 333.952 8.87C337.862 8.87 339.902 10.825 340.072 14.735C340.412 16.265 340.667 18.815 340.837 22.385C341.007 25.785 341.177 29.44 341.347 33.35C341.517 37.26 341.602 40.745 341.602 43.805C341.772 46.865 341.857 48.82 341.857 49.67C341.857 50.35 341.687 51.115 341.347 51.965C341.007 52.645 340.242 52.985 339.052 52.985C337.862 52.985 336.927 52.9 336.247 52.73C335.737 52.39 335.227 51.625 334.717 50.435C332.677 45.845 330.042 41 326.812 35.9C323.752 30.63 319.587 26.125 314.317 22.385C309.217 18.645 302.502 16.775 294.172 16.775H254.647C253.117 16.775 251.842 17.115 250.822 17.795C249.802 18.475 249.292 19.92 249.292 22.13V92C249.292 92.68 249.632 93.445 250.312 94.295C250.992 94.975 251.757 95.315 252.607 95.315H265.612C272.752 95.315 278.192 93.785 281.932 90.725C285.672 87.665 288.392 84.095 290.092 80.015C291.962 75.935 293.492 72.45 294.682 69.56C295.192 68.2 295.617 67.265 295.957 66.755C296.467 66.075 297.402 65.735 298.762 65.735C299.952 65.735 300.717 66.16 301.057 67.01C301.567 67.86 301.822 68.71 301.822 69.56C301.822 70.92 301.737 73.385 301.567 76.955C301.567 80.355 301.482 84.095 301.312 88.175C301.312 92.255 301.312 95.995 301.312 99.395C301.312 102.625 301.312 106.535 301.312 111.125C301.482 115.545 301.567 119.625 301.567 123.365C301.737 126.935 301.822 129.315 301.822 130.505C301.822 133.055 300.802 134.33 298.762 134.33C296.892 134.33 295.617 133.225 294.937 131.015C293.747 127.785 292.217 124.045 290.347 119.795C288.477 115.375 285.672 111.55 281.932 108.32C278.192 104.92 272.752 103.22 265.612 103.22H252.607C250.397 103.22 249.292 104.495 249.292 107.045V180.74C249.292 183.97 250.992 185.585 254.392 185.585H288.817C296.977 185.585 303.862 184.14 309.472 181.25C315.082 178.19 319.672 174.45 323.242 170.03C326.982 165.44 329.872 160.935 331.912 156.515C333.952 151.925 335.482 148.1 336.502 145.04C337.012 143.51 337.522 142.66 338.032 142.49C338.712 142.32 339.647 142.32 340.837 142.49C341.007 142.49 341.092 142.49 341.092 142.49C342.452 142.66 343.217 143.085 343.387 143.765C343.557 144.445 343.642 145.21 343.642 146.06C343.642 146.74 343.557 148.865 343.387 152.435C343.387 156.005 343.302 160.17 343.132 164.93C343.132 169.52 343.047 173.855 342.877 177.935C342.877 181.845 342.877 184.565 342.877 186.095C342.877 188.305 342.197 190.175 340.837 191.705C339.647 193.235 337.862 194 335.482 194C334.292 194 331.657 193.915 327.577 193.745C323.497 193.575 316.782 193.49 307.432 193.49C298.082 193.32 284.992 193.235 268.162 193.235C247.422 193.235 230.337 193.405 216.907 193.745C203.647 193.915 196.082 194 194.212 194ZM514.928 194.765C514.248 194.765 513.653 194.765 513.143 194.765C512.633 194.765 512.123 194.765 511.613 194.765C508.383 194.935 505.918 194.85 504.218 194.51C502.518 194.17 500.988 192.725 499.628 190.175C497.588 186.605 494.443 181.335 490.193 174.365C485.943 167.225 480.928 159.065 475.148 149.885C469.368 140.535 463.248 130.76 456.788 120.56C450.498 110.36 444.208 100.33 437.918 90.47C431.798 80.61 426.103 71.6 420.833 63.44C415.563 55.11 411.143 48.225 407.573 42.785C404.003 37.175 401.793 33.69 400.943 32.33C400.773 31.99 400.348 31.905 399.668 32.075C399.158 32.075 398.903 32.5 398.903 33.35V152.18C398.903 165.1 401.368 174.11 406.298 179.21C411.398 184.14 417.348 186.605 424.148 186.605C424.998 186.605 425.763 186.945 426.443 187.625C427.293 188.135 427.718 188.985 427.718 190.175C427.718 191.365 427.293 192.3 426.443 192.98C425.763 193.66 424.998 194 424.148 194C422.448 194 418.963 193.915 413.693 193.745C408.423 193.405 402.048 193.235 394.568 193.235C385.728 193.235 379.013 193.405 374.423 193.745C370.003 193.915 366.858 194 364.988 194C362.778 194 361.673 192.725 361.673 190.175C361.673 187.795 362.778 186.605 364.988 186.605C372.128 186.605 377.908 184.055 382.328 178.955C386.918 173.855 389.213 165.015 389.213 152.435V33.605C389.213 27.485 387.853 23.065 385.133 20.345C382.413 17.455 377.568 16.01 370.598 16.01C368.388 16.01 367.283 14.735 367.283 12.185C367.283 9.97499 368.388 8.87 370.598 8.87C371.958 8.87 376.463 8.955 384.113 9.12499C391.933 9.29499 402.133 9.37999 414.713 9.37999C417.603 9.37999 419.728 9.80499 421.088 10.655C422.448 11.505 423.723 12.95 424.913 14.99C425.593 16.18 427.633 19.41 431.033 24.68C434.433 29.95 438.683 36.58 443.783 44.57C448.883 52.39 454.408 60.89 460.358 70.07C466.308 79.25 472.258 88.43 478.208 97.61C484.158 106.79 489.598 115.29 494.528 123.11C499.628 130.93 503.793 137.39 507.023 142.49C510.423 147.42 512.378 150.31 512.888 151.16C513.908 152.69 514.843 153.2 515.693 152.69C516.713 152.18 517.223 151.245 517.223 149.885V50.69C517.223 38.28 514.843 29.44 510.083 24.17C505.493 18.73 499.118 16.01 490.958 16.01C488.748 16.01 487.643 14.735 487.643 12.185C487.643 9.97499 488.748 8.87 490.958 8.87C492.828 8.87 496.483 9.04 501.923 9.37999C507.363 9.54999 513.823 9.63499 521.303 9.63499C528.613 9.63499 534.903 9.54999 540.173 9.37999C545.443 9.04 548.928 8.87 550.628 8.87C553.178 8.87 554.453 9.97499 554.453 12.185C554.453 14.735 553.178 16.01 550.628 16.01C544.168 16.01 538.558 18.645 533.798 23.915C529.208 29.015 526.913 37.94 526.913 50.69V147.59C526.913 156.6 527.253 164.25 527.933 170.54C528.613 176.66 529.123 182.44 529.463 187.88C529.633 189.75 528.953 191.365 527.423 192.725C526.063 193.915 521.898 194.595 514.928 194.765ZM609.957 194C607.747 194 606.642 192.81 606.642 190.43C606.642 187.88 607.747 186.605 609.957 186.605C619.477 186.605 625.852 185.245 629.082 182.525C632.312 179.805 633.927 175.98 633.927 171.05V22.13C633.927 18.56 632.142 16.775 628.572 16.775H613.272C606.812 16.775 601.287 18.305 596.697 21.365C592.107 24.255 588.282 27.995 585.222 32.585C582.162 37.005 579.697 41.425 577.827 45.845C575.957 50.265 574.512 54.005 573.492 57.065C573.152 58.085 572.642 58.68 571.962 58.85C571.282 59.02 570.347 59.02 569.157 58.85C568.987 58.85 568.817 58.85 568.647 58.85C567.627 58.68 567.032 58.34 566.862 57.83C566.692 57.15 566.607 56.47 566.607 55.79C566.607 55.11 566.692 52.9 566.862 49.16C567.032 45.42 567.202 41.17 567.372 36.41C567.712 31.65 567.967 27.23 568.137 23.15C568.307 19.07 568.392 16.265 568.392 14.735C568.392 10.825 570.602 8.87 575.022 8.87C575.872 8.87 579.527 8.955 585.987 9.12499C592.447 9.29499 601.117 9.46499 611.997 9.63499C623.047 9.63499 635.712 9.63499 649.992 9.63499C664.272 9.63499 676.852 9.63499 687.732 9.63499C698.782 9.46499 707.622 9.29499 714.252 9.12499C720.882 8.955 724.622 8.87 725.472 8.87C729.552 8.87 731.677 10.91 731.847 14.99C731.847 16.18 731.932 18.815 732.102 22.895C732.442 26.805 732.697 31.225 732.867 36.155C733.037 40.915 733.207 45.25 733.377 49.16C733.547 52.9 733.632 55.11 733.632 55.79C733.632 56.81 733.547 57.575 733.377 58.085C733.207 58.425 732.442 58.68 731.082 58.85C730.912 58.85 730.657 58.935 730.317 59.105C729.637 59.105 729.042 59.105 728.532 59.105C728.022 58.935 727.427 58.17 726.747 56.81C725.387 53.92 723.687 50.265 721.647 45.845C719.777 41.425 717.312 37.005 714.252 32.585C711.362 28.165 707.707 24.425 703.287 21.365C698.867 18.305 693.427 16.775 686.967 16.775H670.137C668.607 16.775 667.247 17.115 666.057 17.795C665.037 18.305 664.527 19.75 664.527 22.13V171.05C664.527 173.94 664.952 176.575 665.802 178.955C666.822 181.335 668.947 183.205 672.177 184.565C675.577 185.925 680.762 186.605 687.732 186.605C690.282 186.605 691.557 187.88 691.557 190.43C691.557 192.81 690.282 194 687.732 194C686.032 194 681.782 193.915 674.982 193.745C668.352 193.405 659.767 193.235 649.227 193.235C638.687 193.235 629.932 193.405 622.962 193.745C616.162 193.915 611.827 194 609.957 194ZM751.277 194C749.067 194 747.962 192.64 747.962 189.92C747.962 187.71 749.067 186.605 751.277 186.605C760.797 186.605 767.172 185.415 770.402 183.035C773.802 180.655 775.502 176.66 775.502 171.05V31.31C775.502 26.21 773.972 22.385 770.912 19.835C767.852 17.285 761.732 16.01 752.552 16.01C750.342 16.01 749.237 14.735 749.237 12.185C749.237 9.97499 750.342 8.87 752.552 8.87C753.912 8.87 760.372 8.955 771.932 9.12499C783.662 9.29499 800.832 9.37999 823.442 9.37999C844.862 9.37999 861.097 9.29499 872.147 9.12499C883.197 8.955 889.487 8.87 891.017 8.87C894.927 8.87 896.967 10.825 897.137 14.735C897.477 16.265 897.732 18.815 897.902 22.385C898.072 25.785 898.242 29.44 898.412 33.35C898.582 37.26 898.667 40.745 898.667 43.805C898.837 46.865 898.922 48.82 898.922 49.67C898.922 50.35 898.752 51.115 898.412 51.965C898.072 52.645 897.307 52.985 896.117 52.985C894.927 52.985 893.992 52.9 893.312 52.73C892.802 52.39 892.292 51.625 891.782 50.435C889.742 45.845 887.107 41 883.877 35.9C880.817 30.63 876.652 26.125 871.382 22.385C866.282 18.645 859.567 16.775 851.237 16.775H811.712C810.182 16.775 808.907 17.115 807.887 17.795C806.867 18.475 806.357 19.92 806.357 22.13V92C806.357 92.68 806.697 93.445 807.377 94.295C808.057 94.975 808.822 95.315 809.672 95.315H822.677C829.817 95.315 835.257 93.785 838.997 90.725C842.737 87.665 845.457 84.095 847.157 80.015C849.027 75.935 850.557 72.45 851.747 69.56C852.257 68.2 852.682 67.265 853.022 66.755C853.532 66.075 854.467 65.735 855.827 65.735C857.017 65.735 857.782 66.16 858.122 67.01C858.632 67.86 858.887 68.71 858.887 69.56C858.887 70.92 858.802 73.385 858.632 76.955C858.632 80.355 858.547 84.095 858.377 88.175C858.377 92.255 858.377 95.995 858.377 99.395C858.377 102.625 858.377 106.535 858.377 111.125C858.547 115.545 858.632 119.625 858.632 123.365C858.802 126.935 858.887 129.315 858.887 130.505C858.887 133.055 857.867 134.33 855.827 134.33C853.957 134.33 852.682 133.225 852.002 131.015C850.812 127.785 849.282 124.045 847.412 119.795C845.542 115.375 842.737 111.55 838.997 108.32C835.257 104.92 829.817 103.22 822.677 103.22H809.672C807.462 103.22 806.357 104.495 806.357 107.045V180.74C806.357 183.97 808.057 185.585 811.457 185.585H845.882C854.042 185.585 860.927 184.14 866.537 181.25C872.147 178.19 876.737 174.45 880.307 170.03C884.047 165.44 886.937 160.935 888.977 156.515C891.017 151.925 892.547 148.1 893.567 145.04C894.077 143.51 894.587 142.66 895.097 142.49C895.777 142.32 896.712 142.32 897.902 142.49C898.072 142.49 898.157 142.49 898.157 142.49C899.517 142.66 900.282 143.085 900.452 143.765C900.622 144.445 900.707 145.21 900.707 146.06C900.707 146.74 900.622 148.865 900.452 152.435C900.452 156.005 900.367 160.17 900.197 164.93C900.197 169.52 900.112 173.855 899.942 177.935C899.942 181.845 899.942 184.565 899.942 186.095C899.942 188.305 899.262 190.175 897.902 191.705C896.712 193.235 894.927 194 892.547 194C891.357 194 888.722 193.915 884.642 193.745C880.562 193.575 873.847 193.49 864.497 193.49C855.147 193.32 842.057 193.235 825.227 193.235C804.487 193.235 787.402 193.405 773.972 193.745C760.712 193.915 753.147 194 751.277 194ZM924.603 194C922.223 194 921.033 192.895 921.033 190.685C921.033 187.965 922.223 186.605 924.603 186.605C933.783 186.605 940.073 185.5 943.473 183.29C946.873 181.08 948.573 177.085 948.573 171.305V30.8C948.573 25.87 947.213 22.215 944.493 19.835C941.943 17.285 935.993 16.01 926.643 16.01C924.433 16.01 923.328 14.65 923.328 11.93C923.328 9.71999 924.433 8.61499 926.643 8.61499C928.173 8.61499 932.508 8.69999 939.648 8.87C946.788 9.04 954.948 9.12499 964.128 9.12499C970.248 9.12499 976.028 9.12499 981.468 9.12499C986.908 8.955 991.498 8.87 995.238 8.87C999.148 8.69999 1001.53 8.61499 1002.38 8.61499C1004.76 8.61499 1005.95 9.71999 1005.95 11.93C1005.95 14.65 1004.76 16.01 1002.38 16.01C993.028 16.01 986.823 17.285 983.763 19.835C980.873 22.215 979.428 25.87 979.428 30.8V180.995C979.428 184.395 981.213 186.095 984.783 186.095H1024.31C1032.64 186.095 1039.95 183.715 1046.24 178.955C1052.7 174.195 1058.14 168.33 1062.56 161.36C1067.15 154.22 1070.72 147.25 1073.27 140.45C1073.78 139.09 1074.46 138.24 1075.31 137.9C1076.16 137.39 1076.92 137.22 1077.6 137.39C1078.96 137.56 1079.81 138.07 1080.15 138.92C1080.49 139.6 1080.66 140.365 1080.66 141.215C1080.66 141.725 1080.66 143.85 1080.66 147.59C1080.66 151.33 1080.58 155.835 1080.41 161.105C1080.41 166.205 1080.32 171.135 1080.15 175.895C1080.15 180.655 1080.07 184.225 1079.9 186.605C1079.73 188.815 1079.05 190.6 1077.86 191.96C1076.67 193.32 1074.88 194 1072.5 194C1071.31 194 1068.17 194 1063.07 194C1057.97 193.83 1050.32 193.745 1040.12 193.745C1029.92 193.745 1016.4 193.745 999.573 193.745C985.633 193.745 973.223 193.745 962.343 193.745C951.463 193.745 942.708 193.83 936.078 194C929.618 194 925.793 194 924.603 194ZM1096.11 194C1093.9 194 1092.8 192.64 1092.8 189.92C1092.8 187.71 1093.9 186.605 1096.11 186.605C1103.25 186.605 1109.03 184.055 1113.45 178.955C1117.87 173.685 1120.08 164.845 1120.08 152.435V33.605C1120.08 27.485 1118.64 23.065 1115.75 20.345C1113.03 17.455 1108.18 16.01 1101.21 16.01C1099 16.01 1097.9 14.82 1097.9 12.44C1097.9 10.06 1099 8.87 1101.21 8.87C1102.74 8.87 1108.01 8.955 1117.02 9.12499C1126.03 9.29499 1136.74 9.37999 1149.15 9.37999C1154.93 9.37999 1158.59 11.59 1160.12 16.01C1160.46 17.03 1161.65 20.43 1163.69 26.21C1165.73 31.99 1168.19 39.13 1171.08 47.63C1174.14 55.96 1177.29 64.8 1180.52 74.15C1183.92 83.33 1187.06 92.085 1189.95 100.415C1193.01 108.745 1195.56 115.715 1197.6 121.325C1199.64 126.765 1200.75 129.825 1200.92 130.505C1202.79 135.775 1205 135.265 1207.55 128.975C1207.89 127.955 1208.99 124.81 1210.86 119.54C1212.9 114.1 1215.28 107.385 1218 99.395C1220.89 91.235 1223.87 82.65 1226.93 73.64C1229.99 64.63 1232.88 56.13 1235.6 48.14C1238.49 39.98 1240.87 33.095 1242.74 27.485C1244.78 21.705 1245.97 18.22 1246.31 17.03C1247.84 11.93 1251.58 9.37999 1257.53 9.37999C1269.94 9.37999 1280.31 9.29499 1288.64 9.12499C1296.97 8.955 1301.73 8.87 1302.92 8.87C1305.13 8.87 1306.23 10.06 1306.23 12.44C1306.23 14.82 1305.13 16.01 1302.92 16.01C1296.63 16.01 1292.21 17.37 1289.66 20.09C1287.28 22.64 1286.09 26.38 1286.09 31.31V170.285C1286.09 175.725 1287.11 179.805 1289.15 182.525C1291.19 185.245 1295.27 186.605 1301.39 186.605C1303.6 186.605 1304.7 187.71 1304.7 189.92C1304.7 192.64 1303.6 194 1301.39 194C1299.69 194 1296.29 193.915 1291.19 193.745C1286.26 193.405 1279.88 193.235 1272.06 193.235C1267.13 193.235 1261.95 193.32 1256.51 193.49C1251.24 193.49 1246.65 193.575 1242.74 193.745C1238.83 193.915 1236.28 194 1235.09 194C1232.54 194 1231.26 192.64 1231.26 189.92C1231.26 187.71 1232.54 186.605 1235.09 186.605C1242.91 186.605 1248.26 185.415 1251.15 183.035C1254.04 180.485 1255.49 176.235 1255.49 170.285V26.72C1255.49 25.53 1255.06 24.935 1254.21 24.935C1253.36 24.935 1252.77 25.275 1252.43 25.955C1252.26 26.465 1251.07 29.695 1248.86 35.645C1246.82 41.595 1244.1 49.33 1240.7 58.85C1237.47 68.37 1233.9 78.825 1229.99 90.215C1226.08 101.435 1222.17 112.655 1218.26 123.875C1214.35 135.095 1210.78 145.38 1207.55 154.73C1204.32 164.08 1201.68 171.645 1199.64 177.425C1197.77 183.205 1196.84 186.095 1196.84 186.095C1196.33 187.455 1195.82 188.305 1195.31 188.645C1194.97 188.815 1194.37 188.9 1193.52 188.9C1192.16 188.9 1191.14 188.135 1190.46 186.605C1190.29 186.265 1189.1 183.29 1186.89 177.68C1184.85 172.07 1182.05 164.675 1178.48 155.495C1175.08 146.315 1171.34 136.285 1167.26 125.405C1163.18 114.525 1159.01 103.645 1154.76 92.765C1150.68 81.885 1146.86 71.94 1143.29 62.93C1139.89 53.75 1137.08 46.355 1134.87 40.745C1132.83 34.965 1131.73 31.99 1131.56 31.82C1131.39 31.31 1130.96 31.14 1130.28 31.31C1129.77 31.48 1129.52 31.905 1129.52 32.585V152.18C1129.52 165.1 1132.07 174.11 1137.17 179.21C1142.27 184.14 1148.22 186.605 1155.02 186.605C1157.57 186.605 1158.84 187.71 1158.84 189.92C1158.84 192.64 1157.57 194 1155.02 194C1153.32 194 1149.83 193.915 1144.56 193.745C1139.46 193.405 1133.17 193.235 1125.69 193.235C1116.85 193.235 1110.14 193.405 1105.55 193.745C1101.13 193.915 1097.98 194 1096.11 194ZM1324.78 194C1322.57 194 1321.46 192.64 1321.46 189.92C1321.46 187.71 1322.57 186.605 1324.78 186.605C1334.3 186.605 1340.67 185.415 1343.9 183.035C1347.3 180.655 1349 176.66 1349 171.05V31.31C1349 26.21 1347.47 22.385 1344.41 19.835C1341.35 17.285 1335.23 16.01 1326.05 16.01C1323.84 16.01 1322.74 14.735 1322.74 12.185C1322.74 9.97499 1323.84 8.87 1326.05 8.87C1327.41 8.87 1333.87 8.955 1345.43 9.12499C1357.16 9.29499 1374.33 9.37999 1396.94 9.37999C1418.36 9.37999 1434.6 9.29499 1445.65 9.12499C1456.7 8.955 1462.99 8.87 1464.52 8.87C1468.43 8.87 1470.47 10.825 1470.64 14.735C1470.98 16.265 1471.23 18.815 1471.4 22.385C1471.57 25.785 1471.74 29.44 1471.91 33.35C1472.08 37.26 1472.17 40.745 1472.17 43.805C1472.34 46.865 1472.42 48.82 1472.42 49.67C1472.42 50.35 1472.25 51.115 1471.91 51.965C1471.57 52.645 1470.81 52.985 1469.62 52.985C1468.43 52.985 1467.49 52.9 1466.81 52.73C1466.3 52.39 1465.79 51.625 1465.28 50.435C1463.24 45.845 1460.61 41 1457.38 35.9C1454.32 30.63 1450.15 26.125 1444.88 22.385C1439.78 18.645 1433.07 16.775 1424.74 16.775H1385.21C1383.68 16.775 1382.41 17.115 1381.39 17.795C1380.37 18.475 1379.86 19.92 1379.86 22.13V92C1379.86 92.68 1380.2 93.445 1380.88 94.295C1381.56 94.975 1382.32 95.315 1383.17 95.315H1396.18C1403.32 95.315 1408.76 93.785 1412.5 90.725C1416.24 87.665 1418.96 84.095 1420.66 80.015C1422.53 75.935 1424.06 72.45 1425.25 69.56C1425.76 68.2 1426.18 67.265 1426.52 66.755C1427.03 66.075 1427.97 65.735 1429.33 65.735C1430.52 65.735 1431.28 66.16 1431.62 67.01C1432.13 67.86 1432.39 68.71 1432.39 69.56C1432.39 70.92 1432.3 73.385 1432.13 76.955C1432.13 80.355 1432.05 84.095 1431.88 88.175C1431.88 92.255 1431.88 95.995 1431.88 99.395C1431.88 102.625 1431.88 106.535 1431.88 111.125C1432.05 115.545 1432.13 119.625 1432.13 123.365C1432.3 126.935 1432.39 129.315 1432.39 130.505C1432.39 133.055 1431.37 134.33 1429.33 134.33C1427.46 134.33 1426.18 133.225 1425.5 131.015C1424.31 127.785 1422.78 124.045 1420.91 119.795C1419.04 115.375 1416.24 111.55 1412.5 108.32C1408.76 104.92 1403.32 103.22 1396.18 103.22H1383.17C1380.96 103.22 1379.86 104.495 1379.86 107.045V180.74C1379.86 183.97 1381.56 185.585 1384.96 185.585H1419.38C1427.54 185.585 1434.43 184.14 1440.04 181.25C1445.65 178.19 1450.24 174.45 1453.81 170.03C1457.55 165.44 1460.44 160.935 1462.48 156.515C1464.52 151.925 1466.05 148.1 1467.07 145.04C1467.58 143.51 1468.09 142.66 1468.6 142.49C1469.28 142.32 1470.21 142.32 1471.4 142.49C1471.57 142.49 1471.66 142.49 1471.66 142.49C1473.02 142.66 1473.78 143.085 1473.95 143.765C1474.12 144.445 1474.21 145.21 1474.21 146.06C1474.21 146.74 1474.12 148.865 1473.95 152.435C1473.95 156.005 1473.87 160.17 1473.7 164.93C1473.7 169.52 1473.61 173.855 1473.44 177.935C1473.44 181.845 1473.44 184.565 1473.44 186.095C1473.44 188.305 1472.76 190.175 1471.4 191.705C1470.21 193.235 1468.43 194 1466.05 194C1464.86 194 1462.22 193.915 1458.14 193.745C1454.06 193.575 1447.35 193.49 1438 193.49C1428.65 193.32 1415.56 193.235 1398.73 193.235C1377.99 193.235 1360.9 193.405 1347.47 193.745C1334.21 193.915 1326.65 194 1324.78 194ZM1645.49 194.765C1644.81 194.765 1644.22 194.765 1643.71 194.765C1643.2 194.765 1642.69 194.765 1642.18 194.765C1638.95 194.935 1636.48 194.85 1634.78 194.51C1633.08 194.17 1631.55 192.725 1630.19 190.175C1628.15 186.605 1625.01 181.335 1620.76 174.365C1616.51 167.225 1611.49 159.065 1605.71 149.885C1599.93 140.535 1593.81 130.76 1587.35 120.56C1581.06 110.36 1574.77 100.33 1568.48 90.47C1562.36 80.61 1556.67 71.6 1551.4 63.44C1546.13 55.11 1541.71 48.225 1538.14 42.785C1534.57 37.175 1532.36 33.69 1531.51 32.33C1531.34 31.99 1530.91 31.905 1530.23 32.075C1529.72 32.075 1529.47 32.5 1529.47 33.35V152.18C1529.47 165.1 1531.93 174.11 1536.86 179.21C1541.96 184.14 1547.91 186.605 1554.71 186.605C1555.56 186.605 1556.33 186.945 1557.01 187.625C1557.86 188.135 1558.28 188.985 1558.28 190.175C1558.28 191.365 1557.86 192.3 1557.01 192.98C1556.33 193.66 1555.56 194 1554.71 194C1553.01 194 1549.53 193.915 1544.26 193.745C1538.99 193.405 1532.61 193.235 1525.13 193.235C1516.29 193.235 1509.58 193.405 1504.99 193.745C1500.57 193.915 1497.42 194 1495.55 194C1493.34 194 1492.24 192.725 1492.24 190.175C1492.24 187.795 1493.34 186.605 1495.55 186.605C1502.69 186.605 1508.47 184.055 1512.89 178.955C1517.48 173.855 1519.78 165.015 1519.78 152.435V33.605C1519.78 27.485 1518.42 23.065 1515.7 20.345C1512.98 17.455 1508.13 16.01 1501.16 16.01C1498.95 16.01 1497.85 14.735 1497.85 12.185C1497.85 9.97499 1498.95 8.87 1501.16 8.87C1502.52 8.87 1507.03 8.955 1514.68 9.12499C1522.5 9.29499 1532.7 9.37999 1545.28 9.37999C1548.17 9.37999 1550.29 9.80499 1551.65 10.655C1553.01 11.505 1554.29 12.95 1555.48 14.99C1556.16 16.18 1558.2 19.41 1561.6 24.68C1565 29.95 1569.25 36.58 1574.35 44.57C1579.45 52.39 1584.97 60.89 1590.92 70.07C1596.87 79.25 1602.82 88.43 1608.77 97.61C1614.72 106.79 1620.16 115.29 1625.09 123.11C1630.19 130.93 1634.36 137.39 1637.59 142.49C1640.99 147.42 1642.94 150.31 1643.45 151.16C1644.47 152.69 1645.41 153.2 1646.26 152.69C1647.28 152.18 1647.79 151.245 1647.79 149.885V50.69C1647.79 38.28 1645.41 29.44 1640.65 24.17C1636.06 18.73 1629.68 16.01 1621.52 16.01C1619.31 16.01 1618.21 14.735 1618.21 12.185C1618.21 9.97499 1619.31 8.87 1621.52 8.87C1623.39 8.87 1627.05 9.04 1632.49 9.37999C1637.93 9.54999 1644.39 9.63499 1651.87 9.63499C1659.18 9.63499 1665.47 9.54999 1670.74 9.37999C1676.01 9.04 1679.49 8.87 1681.19 8.87C1683.74 8.87 1685.02 9.97499 1685.02 12.185C1685.02 14.735 1683.74 16.01 1681.19 16.01C1674.73 16.01 1669.12 18.645 1664.36 23.915C1659.77 29.015 1657.48 37.94 1657.48 50.69V147.59C1657.48 156.6 1657.82 164.25 1658.5 170.54C1659.18 176.66 1659.69 182.44 1660.03 187.88C1660.2 189.75 1659.52 191.365 1657.99 192.725C1656.63 193.915 1652.46 194.595 1645.49 194.765ZM1716.3 82.31C1713.24 83.84 1710.86 83.5 1709.16 81.29C1707.12 78.4 1707.46 75.935 1710.18 73.895C1714.6 70.665 1718.59 67.265 1722.16 63.695C1725.9 60.125 1728.79 55.365 1730.83 49.415C1731.85 46.355 1732.02 43.635 1731.34 41.255C1730.83 38.875 1728.79 37.515 1725.22 37.175C1719.44 36.495 1714.6 34.71 1710.69 31.82C1706.95 28.93 1705.08 24.595 1705.08 18.815C1705.08 14.055 1706.86 9.80499 1710.43 6.06499C1714 2.32499 1719.02 0.454984 1725.48 0.454984C1731.77 0.454984 1737.29 3.00499 1742.05 8.10499C1746.81 13.205 1749.19 20.005 1749.19 28.505C1749.19 36.665 1747.58 44.145 1744.35 50.945C1741.12 57.575 1736.95 63.525 1731.85 68.795C1726.92 74.065 1721.74 78.57 1716.3 82.31ZM1847.75 197.06C1839.93 197.06 1832.53 196.04 1825.56 194C1818.59 192.13 1812.56 190.09 1807.46 187.88C1802.53 185.67 1799.04 184.14 1797 183.29C1795.3 182.44 1793.52 182.1 1791.65 182.27C1789.78 182.44 1788.16 183.29 1786.8 184.82C1786.63 184.99 1786.55 185.075 1786.55 185.075C1786.38 185.075 1785.95 185.415 1785.27 186.095C1784.76 186.605 1782.98 188.305 1779.92 191.195C1778.22 192.895 1776.6 193.405 1775.07 192.725C1773.54 191.875 1772.78 190.515 1772.78 188.645V138.92C1772.78 136.88 1773.88 135.69 1776.09 135.35C1778.47 135.01 1779.92 135.605 1780.43 137.135C1783.66 146.655 1788.59 155.155 1795.22 162.635C1801.85 170.115 1809.75 175.98 1818.93 180.23C1828.28 184.31 1838.31 186.35 1849.02 186.35C1857.86 186.35 1865 184.565 1870.44 180.995C1876.05 177.425 1880.22 172.92 1882.94 167.48C1885.66 161.87 1887.02 156.345 1887.02 150.905C1887.02 143.595 1884.98 137.73 1880.9 133.31C1876.82 128.72 1871.46 125.065 1864.83 122.345C1858.2 119.455 1850.81 116.99 1842.65 114.95C1834.66 112.91 1826.67 110.7 1818.68 108.32C1810.69 105.94 1803.38 102.88 1796.75 99.14C1790.12 95.23 1784.76 90.13 1780.68 83.84C1776.6 77.38 1774.56 69.22 1774.56 59.36C1774.56 47.63 1777.37 37.855 1782.98 30.035C1788.76 22.045 1796.41 16.01 1805.93 11.93C1815.45 7.84999 1825.73 5.80999 1836.78 5.80999C1842.39 5.80999 1848.09 6.48999 1853.87 7.85C1859.65 9.03999 1865 10.57 1869.93 12.44C1874.86 14.14 1878.6 15.755 1881.15 17.285C1885.23 19.495 1888.38 19.495 1890.59 17.285C1892.29 15.585 1893.56 14.48 1894.41 13.97C1895.43 13.29 1895.94 12.95 1895.94 12.95C1897.3 11.59 1898.75 11.335 1900.28 12.185C1901.81 12.865 1902.57 14.31 1902.57 16.52V60.125C1902.57 62.335 1901.47 63.695 1899.26 64.205C1897.22 64.715 1895.77 63.865 1894.92 61.655C1891.18 53.325 1886.42 45.59 1880.64 38.45C1875.03 31.31 1868.49 25.53 1861.01 21.11C1853.7 16.69 1845.62 14.48 1836.78 14.48C1829.47 14.48 1823.01 16.095 1817.4 19.325C1811.79 22.385 1807.37 26.465 1804.14 31.565C1800.91 36.665 1799.3 42.36 1799.3 48.65C1799.3 55.79 1801.34 61.485 1805.42 65.735C1809.67 69.985 1815.19 73.385 1821.99 75.935C1828.79 78.485 1836.27 80.695 1844.43 82.565C1852.76 84.435 1861.01 86.56 1869.17 88.94C1877.33 91.15 1884.81 94.21 1891.61 98.12C1898.41 102.03 1903.85 107.3 1907.93 113.93C1912.18 120.39 1914.3 128.89 1914.3 139.43C1914.3 151.5 1911.41 161.87 1905.63 170.54C1899.85 179.21 1891.95 185.84 1881.92 190.43C1871.89 194.85 1860.5 197.06 1847.75 197.06Z" fill="#F5F5F5"/>
</svg>
