<svg width="564" height="61" viewBox="0 0 564 61" fill="none" xmlns="http://www.w3.org/2000/svg">
<path d="M27.8266 60.96C22.7066 60.96 18.0932 59.84 13.9866 57.6C9.8799 55.36 6.62656 52.0267 4.22656 47.6C1.82656 43.1733 0.626563 37.68 0.626563 31.12C0.626563 26.32 1.34656 22.0533 2.78656 18.32C4.22656 14.5867 6.1999 11.44 8.70656 8.88C11.2666 6.26666 14.1732 4.29333 17.4266 2.96C20.6799 1.62666 24.1466 0.959997 27.8266 0.959997C30.7066 0.959997 33.2399 1.49333 35.4266 2.56C37.6132 3.62666 39.2666 4.53333 40.3866 5.28C41.5066 6.08 42.4399 6.13333 43.1866 5.44C43.7199 5.01333 44.1999 4.58666 44.6266 4.16C45.0532 3.73333 45.4266 3.41333 45.7466 3.2C46.2266 2.77333 46.7332 2.66666 47.2666 2.88C47.8532 3.09333 48.1466 3.52 48.1466 4.16V18.96C48.1466 19.6 47.7466 20 46.9466 20.16C46.1999 20.32 45.6932 20.1333 45.4266 19.6C44.3599 17.0933 43.0266 14.6133 41.4266 12.16C39.8799 9.70666 37.9866 7.68 35.7466 6.08C33.5066 4.48 30.8666 3.68 27.8266 3.68C25.8532 3.68 23.8799 4.21333 21.9066 5.28C19.9332 6.34666 18.1199 8 16.4666 10.24C14.8666 12.4267 13.5599 15.2533 12.5466 18.72C11.5866 22.1867 11.1066 26.32 11.1066 31.12C11.1066 36.0267 11.6132 40.16 12.6266 43.52C13.6399 46.8267 14.9732 49.4933 16.6266 51.52C18.3332 53.5467 20.1999 55.0133 22.2266 55.92C24.2532 56.7733 26.2532 57.2 28.2266 57.2C33.1332 57.2 37.1599 56.08 40.3066 53.84C43.5066 51.6 46.1999 48.2133 48.3866 43.68C49.0266 42.6133 49.7732 42.3467 50.6266 42.88C51.0532 43.0933 51.3466 43.3867 51.5066 43.76C51.7199 44.1333 51.7199 44.5333 51.5066 44.96C49.5332 49.76 46.6266 53.6267 42.7866 56.56C38.9999 59.4933 34.0132 60.96 27.8266 60.96ZM57.0084 60C56.2618 60 55.8884 59.5733 55.8884 58.72C55.8884 57.9733 56.2618 57.6 57.0084 57.6C59.7818 57.6 61.7284 57.2533 62.8484 56.56C64.0218 55.8667 64.6084 54.5867 64.6084 52.72V9.04C64.6084 7.33333 64.0751 6.10666 63.0084 5.36C61.9418 4.61333 60.0484 4.24 57.3284 4.24C56.6351 4.24 56.2884 3.84 56.2884 3.04C56.2884 2.77333 56.3684 2.53333 56.5284 2.32C56.6884 2.05333 56.9551 1.92 57.3284 1.92C57.7551 1.92 59.8084 1.94667 63.4884 2C67.2218 2.05333 72.6351 2.08 79.7284 2.08C86.5018 2.08 91.6484 2.05333 95.1684 2C98.7418 1.94667 100.742 1.92 101.168 1.92C102.448 1.92 103.115 2.53333 103.168 3.76C103.222 4.24 103.275 5.04 103.328 6.16C103.435 7.22666 103.515 8.37333 103.568 9.6C103.622 10.7733 103.648 11.84 103.648 12.8C103.702 13.7067 103.728 14.2933 103.728 14.56C103.728 14.7733 103.675 14.9867 103.568 15.2C103.462 15.4133 103.195 15.5467 102.768 15.6C102.448 15.6 102.182 15.5733 101.968 15.52C101.755 15.4133 101.568 15.1733 101.408 14.8C100.768 13.4133 99.9418 11.92 98.9284 10.32C97.9151 8.72 96.5818 7.36 94.9284 6.24C93.3284 5.06667 91.2218 4.48 88.6084 4.48H75.1684C74.6884 4.48 74.2884 4.61333 73.9684 4.88C73.6484 5.09333 73.4884 5.52 73.4884 6.16V27.92C73.4884 28.6133 73.8351 28.96 74.5284 28.96H79.2484C81.4884 28.96 83.1951 28.5067 84.3684 27.6C85.5418 26.6933 86.4218 25.6267 87.0084 24.4C87.5951 23.12 88.0751 22.0267 88.4484 21.12C88.5551 20.7467 88.6884 20.48 88.8484 20.32C89.0084 20.1067 89.3018 20 89.7284 20C90.1018 20 90.3418 20.1333 90.4484 20.4C90.6084 20.6133 90.6884 20.8533 90.6884 21.12C90.6884 21.5467 90.6884 22.2933 90.6884 23.36C90.6884 24.4267 90.6618 25.6 90.6084 26.88C90.6084 28.1067 90.6084 29.2533 90.6084 30.32C90.6084 31.3333 90.6084 32.5333 90.6084 33.92C90.6618 35.2533 90.6884 36.5067 90.6884 37.68C90.6884 38.8 90.6884 39.5467 90.6884 39.92C90.6884 40.72 90.3684 41.12 89.7284 41.12C89.0884 41.12 88.6618 40.7733 88.4484 40.08C88.0751 39.12 87.5951 37.9733 87.0084 36.64C86.4218 35.3067 85.5418 34.1333 84.3684 33.12C83.1951 32.1067 81.4884 31.6 79.2484 31.6H74.5284C73.8351 31.6 73.4884 32 73.4884 32.8V55.76C73.4884 56.7733 74.0484 57.28 75.1684 57.28H87.0884C89.6484 57.28 91.8084 56.8267 93.5684 55.92C95.3818 55.0133 96.8484 53.8667 97.9684 52.48C99.0884 51.0933 99.9684 49.7067 100.608 48.32C101.302 46.9333 101.808 45.76 102.128 44.8C102.288 44.3733 102.475 44.1333 102.688 44.08C102.902 43.9733 103.195 43.9467 103.568 44C103.995 44.0533 104.235 44.1867 104.288 44.4C104.395 44.6133 104.448 44.8533 104.448 45.12C104.448 45.3333 104.422 46 104.368 47.12C104.368 48.24 104.368 49.52 104.368 50.96C104.368 52.3467 104.342 53.68 104.288 54.96C104.288 56.1867 104.288 57.04 104.288 57.52C104.235 58.2133 103.995 58.8 103.568 59.28C103.195 59.76 102.635 60 101.888 60C101.515 60 100.635 59.9733 99.2484 59.92C97.9151 59.8667 95.7551 59.84 92.7684 59.84C89.7818 59.7867 85.6484 59.76 80.3684 59.76C73.8084 59.76 68.3951 59.8133 64.1284 59.92C59.9151 59.9733 57.5418 60 57.0084 60ZM154.183 60.64C152.103 60.64 150.423 60.1333 149.143 59.12C147.863 58.0533 146.85 56.6667 146.103 54.96C145.357 53.2533 144.743 51.3867 144.263 49.36C143.783 47.3333 143.33 45.3067 142.903 43.28C142.477 41.2533 141.917 39.3867 141.223 37.68C140.583 35.9733 139.703 34.6133 138.583 33.6C137.517 32.5333 136.05 32 134.183 32H127.383C126.69 32 126.343 32.3467 126.343 33.04V52.72C126.343 54.48 126.77 55.7333 127.623 56.48C128.477 57.2267 130.29 57.6 133.063 57.6C133.757 57.6 134.103 58 134.103 58.8C134.103 59.6 133.757 60 133.063 60C132.53 60 131.277 59.9733 129.303 59.92C127.33 59.8133 124.85 59.76 121.863 59.76C119.09 59.76 116.77 59.8133 114.903 59.92C113.037 59.9733 111.81 60 111.223 60C110.53 60 110.183 59.6 110.183 58.8C110.183 58 110.53 57.6 111.223 57.6C113.997 57.6 115.703 57.2267 116.343 56.48C117.037 55.68 117.383 54.4267 117.383 52.72V9.04C117.383 7.54666 117.037 6.4 116.343 5.6C115.703 4.74666 114.023 4.32 111.303 4.32C110.557 4.32 110.183 3.92 110.183 3.12C110.183 2.32 110.557 1.92 111.303 1.92C111.73 1.92 112.903 1.97333 114.823 2.08C116.743 2.13333 119.09 2.16 121.863 2.16C126.29 2.16 129.863 2.13333 132.583 2.08C135.357 1.97333 137.703 1.92 139.623 1.92C142.823 1.92 145.783 2.42667 148.503 3.44C151.223 4.4 153.41 5.94666 155.063 8.08C156.77 10.2133 157.623 13.0133 157.623 16.48C157.623 18.7733 157.17 20.72 156.263 22.32C155.41 23.92 154.263 25.2533 152.823 26.32C151.437 27.3867 149.943 28.24 148.343 28.88C146.797 29.4667 145.33 29.9467 143.943 30.32C143.41 30.48 143.143 30.6933 143.143 30.96C143.143 31.2267 143.25 31.4133 143.463 31.52C145.437 32.2133 147.01 33.28 148.183 34.72C149.41 36.16 150.37 37.7867 151.063 39.6C151.81 41.36 152.397 43.1733 152.823 45.04C153.303 46.9067 153.757 48.64 154.183 50.24C154.663 51.7867 155.197 53.04 155.783 54C156.423 54.96 157.277 55.44 158.343 55.44C158.93 55.44 159.463 55.3067 159.943 55.04C160.423 54.72 160.903 54.2933 161.383 53.76C161.917 53.2267 162.45 53.1467 162.983 53.52C163.357 53.8933 163.383 54.4267 163.063 55.12C162.743 55.8667 162.183 56.6667 161.383 57.52C160.583 58.3733 159.57 59.12 158.343 59.76C157.17 60.3467 155.783 60.64 154.183 60.64ZM127.383 29.28H135.463C139.303 29.28 142.29 28.2133 144.423 26.08C146.61 23.8933 147.703 20.6933 147.703 16.48C147.703 13.0133 146.823 10.16 145.063 7.92C143.357 5.62667 140.717 4.48 137.143 4.48H128.023C127.543 4.48 127.143 4.58666 126.823 4.8C126.503 5.01333 126.343 5.46666 126.343 6.16V28.24C126.343 28.4533 126.45 28.6933 126.663 28.96C126.877 29.1733 127.117 29.28 127.383 29.28ZM181.609 60C180.862 60 180.489 59.6 180.489 58.8C180.489 58 180.862 57.6 181.609 57.6C184.436 57.6 186.356 57.2 187.369 56.4C188.382 55.6 188.889 54.3733 188.889 52.72V6.16C188.889 5.04 188.329 4.48 187.209 4.48H182.169C180.142 4.48 178.409 4.93333 176.969 5.84C175.582 6.74666 174.409 7.86666 173.449 9.2C172.489 10.5333 171.716 11.8933 171.129 13.28C170.542 14.6133 170.062 15.76 169.689 16.72C169.582 17.04 169.396 17.2267 169.129 17.28C168.916 17.3333 168.622 17.3333 168.249 17.28C168.196 17.28 168.169 17.28 168.169 17.28C167.849 17.2267 167.636 17.12 167.529 16.96C167.476 16.7467 167.449 16.5333 167.449 16.32C167.449 16.1067 167.476 15.44 167.529 14.32C167.582 13.2 167.636 11.92 167.689 10.48C167.742 8.98667 167.796 7.62667 167.849 6.4C167.956 5.12 168.009 4.24 168.009 3.76C168.009 2.53333 168.702 1.92 170.089 1.92C170.516 1.92 172.836 1.97333 177.049 2.08C181.316 2.13333 186.836 2.16 193.609 2.16C198.089 2.16 202.036 2.16 205.449 2.16C208.916 2.10666 211.662 2.05333 213.689 2C215.769 1.94667 216.942 1.92 217.209 1.92C218.542 1.92 219.236 2.56 219.289 3.84C219.289 4.21333 219.316 5.01333 219.369 6.24C219.476 7.46666 219.556 8.82666 219.609 10.32C219.662 11.8133 219.716 13.1467 219.769 14.32C219.822 15.44 219.849 16.1067 219.849 16.32C219.849 16.64 219.796 16.88 219.689 17.04C219.636 17.1467 219.396 17.2267 218.969 17.28C218.916 17.28 218.862 17.28 218.809 17.28C218.596 17.3333 218.356 17.36 218.089 17.36C217.876 17.3067 217.689 17.0667 217.529 16.64C217.102 15.7333 216.569 14.6133 215.929 13.28C215.342 11.9467 214.569 10.6133 213.609 9.28C212.702 7.89333 211.556 6.74666 210.169 5.84C208.782 4.93333 207.076 4.48 205.049 4.48H199.529C198.996 4.48 198.569 4.58666 198.249 4.8C197.929 5.01333 197.769 5.46666 197.769 6.16V52.72C197.769 53.7333 197.929 54.6133 198.249 55.36C198.569 56.0533 199.209 56.6133 200.169 57.04C201.182 57.4133 202.729 57.6 204.809 57.6C205.609 57.6 206.009 58 206.009 58.8C206.009 59.6 205.609 60 204.809 60C204.276 60 203.049 59.9733 201.129 59.92C199.262 59.8133 196.676 59.76 193.369 59.76C190.009 59.76 187.342 59.8133 185.369 59.92C183.396 59.9733 182.142 60 181.609 60ZM225.85 60C225.156 60 224.81 59.5733 224.81 58.72C224.81 57.9733 225.156 57.6 225.85 57.6C228.41 57.6 230.356 57.3333 231.69 56.8C233.023 56.2133 233.69 54.9333 233.69 52.96V8.8C233.69 6.93333 233.05 5.70666 231.77 5.12C230.49 4.53333 228.516 4.24 225.85 4.24C225.156 4.24 224.81 3.86666 224.81 3.12C224.81 2.32 225.156 1.92 225.85 1.92C226.756 1.92 227.903 1.94667 229.29 2C230.73 2.05333 232.25 2.10666 233.85 2.16C235.45 2.16 236.916 2.16 238.25 2.16C239.583 2.16 241.05 2.16 242.65 2.16C244.303 2.10666 245.85 2.05333 247.29 2C248.783 1.94667 249.956 1.92 250.81 1.92C251.61 1.92 252.01 2.32 252.01 3.12C252.01 3.86666 251.61 4.24 250.81 4.24C248.196 4.24 246.223 4.53333 244.89 5.12C243.61 5.70666 242.97 6.93333 242.97 8.8V52.96C242.97 54.9333 243.636 56.2133 244.97 56.8C246.356 57.3333 248.303 57.6 250.81 57.6C251.61 57.6 252.01 57.9733 252.01 58.72C252.01 59.5733 251.61 60 250.81 60C249.956 60 248.783 59.9733 247.29 59.92C245.85 59.8667 244.303 59.8133 242.65 59.76C241.05 59.7067 239.583 59.68 238.25 59.68C236.916 59.68 235.45 59.7067 233.85 59.76C232.25 59.8133 230.73 59.8667 229.29 59.92C227.903 59.9733 226.756 60 225.85 60ZM258.42 60C257.727 60 257.38 59.5733 257.38 58.72C257.38 57.9733 257.727 57.6 258.42 57.6C261.46 57.6 263.514 57.2533 264.58 56.56C265.647 55.8667 266.18 54.5867 266.18 52.72V9.04C266.18 7.97333 266.02 7.09333 265.7 6.4C265.38 5.70666 264.66 5.17333 263.54 4.8C262.42 4.42666 260.634 4.24 258.18 4.24C257.487 4.24 257.14 3.84 257.14 3.04C257.14 2.77333 257.22 2.53333 257.38 2.32C257.594 2.05333 257.86 1.92 258.18 1.92C258.607 1.92 260.9 1.94667 265.06 2C269.274 2.05333 274.927 2.08 282.02 2.08C288.74 2.08 293.967 2.05333 297.7 2C301.487 1.94667 303.567 1.92 303.94 1.92C305.327 1.92 306.047 2.53333 306.1 3.76C306.1 4.13333 306.127 4.96 306.18 6.24C306.287 7.46666 306.367 8.8 306.42 10.24C306.474 11.68 306.527 12.96 306.58 14.08C306.634 15.2 306.66 15.8667 306.66 16.08C306.66 16.2933 306.607 16.5067 306.5 16.72C306.394 16.9333 306.127 17.0667 305.7 17.12C305.38 17.12 305.087 17.0933 304.82 17.04C304.607 16.9333 304.42 16.6667 304.26 16.24C303.887 15.3333 303.354 14.24 302.66 12.96C302.02 11.6267 301.194 10.32 300.18 9.04C299.22 7.76 298.02 6.69333 296.58 5.84C295.194 4.93333 293.514 4.48 291.54 4.48H276.82C275.7 4.48 275.14 5.04 275.14 6.16V27.6C275.14 28.24 275.487 28.56 276.18 28.56H281.78C283.967 28.56 285.647 28.1333 286.82 27.28C287.994 26.3733 288.874 25.3067 289.46 24.08C290.1 22.8533 290.634 21.7067 291.06 20.64C291.167 20.32 291.3 20.08 291.46 19.92C291.62 19.7067 291.887 19.6 292.26 19.6C292.954 19.6 293.3 20 293.3 20.8C293.3 21.1733 293.274 21.8933 293.22 22.96C293.22 24.0267 293.194 25.2 293.14 26.48C293.14 27.76 293.14 28.9333 293.14 30C293.14 30.96 293.14 32.1333 293.14 33.52C293.194 34.8533 293.22 36.1067 293.22 37.28C293.22 38.4533 293.22 39.2267 293.22 39.6C293.22 39.8667 293.14 40.1333 292.98 40.4C292.874 40.6667 292.634 40.8 292.26 40.8C291.887 40.8 291.62 40.6933 291.46 40.48C291.3 40.2667 291.14 39.9733 290.98 39.6C290.607 38.64 290.127 37.52 289.54 36.24C288.954 34.9067 288.074 33.76 286.9 32.8C285.727 31.7867 284.02 31.28 281.78 31.28H276.18C275.914 31.28 275.674 31.4133 275.46 31.68C275.247 31.8933 275.14 32.1333 275.14 32.4V52.72C275.14 53.9467 275.354 54.9333 275.78 55.68C276.207 56.3733 277.034 56.88 278.26 57.2C279.487 57.4667 281.3 57.6 283.7 57.6C284.394 57.6 284.74 57.9733 284.74 58.72C284.74 59.5733 284.394 60 283.7 60C283.167 60 281.7 59.9733 279.3 59.92C276.9 59.8133 274.02 59.76 270.66 59.76C267.3 59.76 264.554 59.8133 262.42 59.92C260.287 59.9733 258.954 60 258.42 60ZM311.943 60C311.25 60 310.903 59.5733 310.903 58.72C310.903 57.9733 311.25 57.6 311.943 57.6C314.503 57.6 316.45 57.3333 317.783 56.8C319.117 56.2133 319.783 54.9333 319.783 52.96V8.8C319.783 6.93333 319.143 5.70666 317.863 5.12C316.583 4.53333 314.61 4.24 311.943 4.24C311.25 4.24 310.903 3.86666 310.903 3.12C310.903 2.32 311.25 1.92 311.943 1.92C312.85 1.92 313.997 1.94667 315.383 2C316.823 2.05333 318.343 2.10666 319.943 2.16C321.543 2.16 323.01 2.16 324.343 2.16C325.677 2.16 327.143 2.16 328.743 2.16C330.397 2.10666 331.943 2.05333 333.383 2C334.877 1.94667 336.05 1.92 336.903 1.92C337.703 1.92 338.103 2.32 338.103 3.12C338.103 3.86666 337.703 4.24 336.903 4.24C334.29 4.24 332.317 4.53333 330.983 5.12C329.703 5.70666 329.063 6.93333 329.063 8.8V52.96C329.063 54.9333 329.73 56.2133 331.063 56.8C332.45 57.3333 334.397 57.6 336.903 57.6C337.703 57.6 338.103 57.9733 338.103 58.72C338.103 59.5733 337.703 60 336.903 60C336.05 60 334.877 59.9733 333.383 59.92C331.943 59.8667 330.397 59.8133 328.743 59.76C327.143 59.7067 325.677 59.68 324.343 59.68C323.01 59.68 321.543 59.7067 319.943 59.76C318.343 59.8133 316.823 59.8667 315.383 59.92C313.997 59.9733 312.85 60 311.943 60ZM372.28 60.96C367.16 60.96 362.546 59.84 358.44 57.6C354.333 55.36 351.08 52.0267 348.68 47.6C346.28 43.1733 345.08 37.68 345.08 31.12C345.08 26.32 345.8 22.0533 347.24 18.32C348.68 14.5867 350.653 11.44 353.16 8.88C355.72 6.26666 358.626 4.29333 361.88 2.96C365.133 1.62666 368.6 0.959997 372.28 0.959997C375.16 0.959997 377.693 1.49333 379.88 2.56C382.066 3.62666 383.72 4.53333 384.84 5.28C385.96 6.08 386.893 6.13333 387.64 5.44C388.173 5.01333 388.653 4.58666 389.08 4.16C389.506 3.73333 389.88 3.41333 390.2 3.2C390.68 2.77333 391.186 2.66666 391.72 2.88C392.306 3.09333 392.6 3.52 392.6 4.16V18.96C392.6 19.6 392.2 20 391.4 20.16C390.653 20.32 390.146 20.1333 389.88 19.6C388.813 17.0933 387.48 14.6133 385.88 12.16C384.333 9.70666 382.44 7.68 380.2 6.08C377.96 4.48 375.32 3.68 372.28 3.68C370.306 3.68 368.333 4.21333 366.36 5.28C364.386 6.34666 362.573 8 360.92 10.24C359.32 12.4267 358.013 15.2533 357 18.72C356.04 22.1867 355.56 26.32 355.56 31.12C355.56 36.0267 356.066 40.16 357.08 43.52C358.093 46.8267 359.426 49.4933 361.08 51.52C362.786 53.5467 364.653 55.0133 366.68 55.92C368.706 56.7733 370.706 57.2 372.68 57.2C377.586 57.2 381.613 56.08 384.76 53.84C387.96 51.6 390.653 48.2133 392.84 43.68C393.48 42.6133 394.226 42.3467 395.08 42.88C395.506 43.0933 395.8 43.3867 395.96 43.76C396.173 44.1333 396.173 44.5333 395.96 44.96C393.986 49.76 391.08 53.6267 387.24 56.56C383.453 59.4933 378.466 60.96 372.28 60.96ZM399.49 60C398.743 60 398.37 59.6267 398.37 58.88C398.37 58.0267 398.743 57.6 399.49 57.6C401.25 57.6 402.663 57.2533 403.73 56.56C404.796 55.8133 405.756 54.5333 406.61 52.72C406.983 51.92 407.57 50.5067 408.37 48.48C409.223 46.4533 410.183 44.0267 411.25 41.2C412.37 38.3733 413.516 35.36 414.69 32.16C415.916 28.9067 417.116 25.7067 418.29 22.56C419.516 19.36 420.636 16.3733 421.65 13.6C422.716 10.8267 423.596 8.48 424.29 6.56C425.036 4.58666 425.516 3.28 425.73 2.64C425.996 1.94667 426.316 1.49333 426.69 1.28C427.063 1.06666 427.676 0.959997 428.53 0.959997C429.383 0.959997 429.996 1.09333 430.37 1.36C430.796 1.57333 431.116 1.97333 431.33 2.56C431.703 3.52 432.316 5.17333 433.17 7.52C434.076 9.86666 435.116 12.64 436.29 15.84C437.516 18.9867 438.77 22.2933 440.05 25.76C441.383 29.2267 442.663 32.64 443.89 36C445.116 39.3067 446.236 42.2667 447.25 44.88C448.263 47.4933 449.036 49.52 449.57 50.96C451.33 55.3867 453.463 57.6 455.97 57.6C456.663 57.6 457.01 58.0267 457.01 58.88C457.01 59.6267 456.663 60 455.97 60C455.436 60 454.37 59.9733 452.77 59.92C451.223 59.8667 449.063 59.84 446.29 59.84C443.996 59.84 441.89 59.8667 439.97 59.92C438.05 59.9733 436.796 60 436.21 60C435.516 60 435.17 59.6267 435.17 58.88C435.17 58.0267 435.516 57.6 436.21 57.6C437.863 57.6 439.01 57.36 439.65 56.88C440.343 56.4 440.716 55.7867 440.77 55.04C440.823 54.2933 440.69 53.5467 440.37 52.8C440.316 52.5333 439.916 51.3067 439.17 49.12C438.476 46.88 437.596 44.2933 436.53 41.36C436.316 40.8267 436.103 40.5067 435.89 40.4C435.73 40.2933 435.463 40.24 435.09 40.24H415.25C414.716 40.24 414.396 40.48 414.29 40.96C413.97 42.08 413.57 43.4133 413.09 44.96C412.61 46.4533 412.183 47.8933 411.81 49.28C411.436 50.6667 411.25 51.8133 411.25 52.72C411.25 54.5333 411.73 55.8133 412.69 56.56C413.65 57.2533 414.956 57.6 416.61 57.6C417.303 57.6 417.65 58.0267 417.65 58.88C417.65 59.6267 417.303 60 416.61 60C416.076 60 415.09 59.9733 413.65 59.92C412.263 59.8667 410.396 59.84 408.05 59.84C405.97 59.84 404.156 59.8667 402.61 59.92C401.063 59.9733 400.023 60 399.49 60ZM416.53 37.52H433.97C434.236 37.52 434.476 37.4667 434.69 37.36C434.903 37.2533 434.93 36.96 434.77 36.48C434.13 34.6133 433.383 32.4267 432.53 29.92C431.676 27.4133 430.796 24.9067 429.89 22.4C428.983 19.8933 428.183 17.7067 427.49 15.84C426.85 13.92 426.423 12.6667 426.21 12.08C426.05 11.7067 425.863 11.52 425.65 11.52C425.436 11.52 425.276 11.6533 425.17 11.92C425.01 12.2933 424.636 13.2267 424.05 14.72C423.516 16.16 422.85 17.92 422.05 20C421.25 22.0267 420.423 24.1333 419.57 26.32C418.716 28.4533 417.943 30.4267 417.25 32.24C416.61 34.0533 416.156 35.4133 415.89 36.32C415.676 37.12 415.89 37.52 416.53 37.52ZM472.078 60C471.331 60 470.958 59.6 470.958 58.8C470.958 58 471.331 57.6 472.078 57.6C474.904 57.6 476.824 57.2 477.838 56.4C478.851 55.6 479.358 54.3733 479.358 52.72V6.16C479.358 5.04 478.798 4.48 477.678 4.48H472.638C470.611 4.48 468.878 4.93333 467.438 5.84C466.051 6.74666 464.878 7.86666 463.918 9.2C462.958 10.5333 462.184 11.8933 461.598 13.28C461.011 14.6133 460.531 15.76 460.158 16.72C460.051 17.04 459.864 17.2267 459.598 17.28C459.384 17.3333 459.091 17.3333 458.718 17.28C458.664 17.28 458.638 17.28 458.638 17.28C458.318 17.2267 458.104 17.12 457.998 16.96C457.944 16.7467 457.918 16.5333 457.918 16.32C457.918 16.1067 457.944 15.44 457.998 14.32C458.051 13.2 458.104 11.92 458.158 10.48C458.211 8.98667 458.264 7.62667 458.318 6.4C458.424 5.12 458.478 4.24 458.478 3.76C458.478 2.53333 459.171 1.92 460.558 1.92C460.984 1.92 463.304 1.97333 467.518 2.08C471.784 2.13333 477.304 2.16 484.078 2.16C488.558 2.16 492.504 2.16 495.918 2.16C499.384 2.10666 502.131 2.05333 504.158 2C506.238 1.94667 507.411 1.92 507.678 1.92C509.011 1.92 509.704 2.56 509.758 3.84C509.758 4.21333 509.784 5.01333 509.838 6.24C509.944 7.46666 510.024 8.82666 510.078 10.32C510.131 11.8133 510.184 13.1467 510.238 14.32C510.291 15.44 510.318 16.1067 510.318 16.32C510.318 16.64 510.264 16.88 510.158 17.04C510.104 17.1467 509.864 17.2267 509.438 17.28C509.384 17.28 509.331 17.28 509.278 17.28C509.064 17.3333 508.824 17.36 508.558 17.36C508.344 17.3067 508.158 17.0667 507.998 16.64C507.571 15.7333 507.038 14.6133 506.398 13.28C505.811 11.9467 505.038 10.6133 504.078 9.28C503.171 7.89333 502.024 6.74666 500.638 5.84C499.251 4.93333 497.544 4.48 495.518 4.48H489.998C489.464 4.48 489.038 4.58666 488.718 4.8C488.398 5.01333 488.238 5.46666 488.238 6.16V52.72C488.238 53.7333 488.398 54.6133 488.718 55.36C489.038 56.0533 489.678 56.6133 490.638 57.04C491.651 57.4133 493.198 57.6 495.278 57.6C496.078 57.6 496.478 58 496.478 58.8C496.478 59.6 496.078 60 495.278 60C494.744 60 493.518 59.9733 491.598 59.92C489.731 59.8133 487.144 59.76 483.838 59.76C480.478 59.76 477.811 59.8133 475.838 59.92C473.864 59.9733 472.611 60 472.078 60ZM515.758 60C515.012 60 514.638 59.5733 514.638 58.72C514.638 57.9733 515.012 57.6 515.758 57.6C518.532 57.6 520.478 57.2533 521.598 56.56C522.772 55.8667 523.358 54.5867 523.358 52.72V9.04C523.358 7.33333 522.825 6.10666 521.758 5.36C520.692 4.61333 518.798 4.24 516.078 4.24C515.385 4.24 515.038 3.84 515.038 3.04C515.038 2.77333 515.118 2.53333 515.278 2.32C515.438 2.05333 515.705 1.92 516.078 1.92C516.505 1.92 518.558 1.94667 522.238 2C525.972 2.05333 531.385 2.08 538.478 2.08C545.252 2.08 550.398 2.05333 553.918 2C557.492 1.94667 559.492 1.92 559.918 1.92C561.198 1.92 561.865 2.53333 561.918 3.76C561.972 4.24 562.025 5.04 562.078 6.16C562.185 7.22666 562.265 8.37333 562.318 9.6C562.372 10.7733 562.398 11.84 562.398 12.8C562.452 13.7067 562.478 14.2933 562.478 14.56C562.478 14.7733 562.425 14.9867 562.318 15.2C562.212 15.4133 561.945 15.5467 561.518 15.6C561.198 15.6 560.932 15.5733 560.718 15.52C560.505 15.4133 560.318 15.1733 560.158 14.8C559.518 13.4133 558.692 11.92 557.678 10.32C556.665 8.72 555.332 7.36 553.678 6.24C552.078 5.06667 549.972 4.48 547.358 4.48H533.918C533.438 4.48 533.038 4.61333 532.718 4.88C532.398 5.09333 532.238 5.52 532.238 6.16V27.92C532.238 28.6133 532.585 28.96 533.278 28.96H537.998C540.238 28.96 541.945 28.5067 543.118 27.6C544.292 26.6933 545.172 25.6267 545.758 24.4C546.345 23.12 546.825 22.0267 547.198 21.12C547.305 20.7467 547.438 20.48 547.598 20.32C547.758 20.1067 548.052 20 548.478 20C548.852 20 549.092 20.1333 549.198 20.4C549.358 20.6133 549.438 20.8533 549.438 21.12C549.438 21.5467 549.438 22.2933 549.438 23.36C549.438 24.4267 549.412 25.6 549.358 26.88C549.358 28.1067 549.358 29.2533 549.358 30.32C549.358 31.3333 549.358 32.5333 549.358 33.92C549.412 35.2533 549.438 36.5067 549.438 37.68C549.438 38.8 549.438 39.5467 549.438 39.92C549.438 40.72 549.118 41.12 548.478 41.12C547.838 41.12 547.412 40.7733 547.198 40.08C546.825 39.12 546.345 37.9733 545.758 36.64C545.172 35.3067 544.292 34.1333 543.118 33.12C541.945 32.1067 540.238 31.6 537.998 31.6H533.278C532.585 31.6 532.238 32 532.238 32.8V55.76C532.238 56.7733 532.798 57.28 533.918 57.28H545.838C548.398 57.28 550.558 56.8267 552.318 55.92C554.132 55.0133 555.598 53.8667 556.718 52.48C557.838 51.0933 558.718 49.7067 559.358 48.32C560.052 46.9333 560.558 45.76 560.878 44.8C561.038 44.3733 561.225 44.1333 561.438 44.08C561.652 43.9733 561.945 43.9467 562.318 44C562.745 44.0533 562.985 44.1867 563.038 44.4C563.145 44.6133 563.198 44.8533 563.198 45.12C563.198 45.3333 563.172 46 563.118 47.12C563.118 48.24 563.118 49.52 563.118 50.96C563.118 52.3467 563.092 53.68 563.038 54.96C563.038 56.1867 563.038 57.04 563.038 57.52C562.985 58.2133 562.745 58.8 562.318 59.28C561.945 59.76 561.385 60 560.638 60C560.265 60 559.385 59.9733 557.998 59.92C556.665 59.8667 554.505 59.84 551.518 59.84C548.532 59.7867 544.398 59.76 539.118 59.76C532.558 59.76 527.145 59.8133 522.878 59.92C518.665 59.9733 516.292 60 515.758 60Z" fill="#F2F2F2"/>
</svg>
