<svg width="46" height="43" viewBox="0 0 46 43" fill="none" xmlns="http://www.w3.org/2000/svg">
<path d="M31.6161 5.13591C31.6356 5.53066 31.6064 5.91543 31.5188 6.30019C31.4361 6.68495 31.3145 7.05972 31.149 7.4195C30.8766 8.02413 30.5263 8.57879 30.1322 9.10347C29.8306 9.50322 29.5095 9.88798 29.1738 10.2578C28.7213 10.7624 28.2445 11.2421 27.758 11.7069C27.1547 12.2865 26.532 12.8462 25.9044 13.3958C25.1697 14.0354 24.4254 14.665 23.6713 15.2847C23.4572 15.4596 23.2431 15.6294 23.0339 15.8093C22.9609 15.8693 22.9074 15.8643 22.8442 15.8093C22.2701 15.3346 21.7009 14.8599 21.1268 14.3852C20.5624 13.9155 20.0029 13.4358 19.4532 12.9461C19.0688 12.6013 18.6893 12.2465 18.3098 11.8967C17.7358 11.3621 17.186 10.8124 16.6654 10.2278C16.0816 9.57318 15.5318 8.8836 15.0891 8.11407C14.7875 7.5894 14.5491 7.03474 14.4031 6.4451C14.2474 5.81049 14.2231 5.16589 14.2863 4.51629C14.3399 3.97162 14.4664 3.44195 14.6804 2.93726C15.2156 1.67804 16.0865 0.7636 17.3465 0.278898C17.8914 0.0690272 18.4607 -0.0209174 19.0445 0.00406718C20.0272 0.0490395 20.8932 0.403821 21.6328 1.07341C22.1485 1.53313 22.5523 2.07779 22.8831 2.69241C22.8977 2.7174 22.9074 2.75737 22.9415 2.75238C22.9901 2.74738 22.9999 2.69241 23.0193 2.65244C23.2723 2.18273 23.5788 1.74799 23.9437 1.36323C24.4254 0.853544 24.9849 0.458787 25.6417 0.233926C26.1914 0.0440426 26.7509 -0.0309113 27.3299 0.014061C27.9575 0.0640303 28.5462 0.233926 29.1008 0.533741C29.7965 0.913507 30.3511 1.45817 30.7793 2.13276C31.0955 2.62745 31.3193 3.16712 31.4604 3.74177C31.5723 4.19649 31.6258 4.6612 31.6015 5.13591H31.6161Z" fill="white"/>
<path d="M5.4375 26.8474V36.9312C5.4375 37.0612 5.51534 37.1761 5.63697 37.2161L21.9061 42.9825C22.0959 43.0525 22.2953 42.9025 22.2953 42.6977V22.0004C22.2953 21.6906 21.8964 21.5807 21.7456 21.8455L17.8486 28.7163C17.7804 28.8412 17.6345 28.8962 17.5031 28.8512L5.82185 25.0535C5.63211 24.9936 5.4375 25.1385 5.4375 25.3434V26.8424V26.8474Z" fill="white"/>
<path d="M40.4516 26.8475V36.9313C40.4516 37.0612 40.3737 37.1761 40.2521 37.2161L23.983 42.9826C23.7932 43.0525 23.5938 42.9026 23.5938 42.6977V22.0005C23.5938 21.6907 23.9927 21.5807 24.1435 21.8456L28.0405 28.7163C28.1086 28.8413 28.2546 28.8962 28.3859 28.8513L40.0672 25.0536C40.257 24.9936 40.4516 25.1386 40.4516 25.3434V26.8425V26.8475Z" fill="white"/>
<path d="M16.7678 27.4222L0.401342 22.1204C0.0510491 22.0055 -0.104637 21.5908 0.075375 21.266L3.58317 14.9698C3.71453 14.735 3.98698 14.62 4.23997 14.695L20.8205 19.587C21.1756 19.6919 21.3459 20.1117 21.161 20.4415L17.4343 27.1473C17.303 27.3872 17.0208 27.5021 16.7629 27.4172L16.7678 27.4222Z" fill="white"/>
<path d="M29.2324 27.4218L45.5989 22.1201C45.9492 22.0051 46.1049 21.5904 45.9248 21.2656L42.4171 14.9695C42.2857 14.7346 42.0132 14.6197 41.7603 14.6946L25.1797 19.5866C24.8246 19.6916 24.6543 20.1113 24.8392 20.4411L28.5659 27.147C28.6973 27.3868 28.9794 27.5017 29.2373 27.4168L29.2324 27.4218Z" fill="white"/>
<path d="M5.54831 13.7956L22.8732 19.1473C22.917 19.1623 22.9656 19.1623 23.0094 19.1473L40.0619 14.0255C40.2808 13.9605 40.2905 13.6457 40.0765 13.5658L31.1489 10.1978C30.998 10.1429 30.8278 10.1729 30.7061 10.2778L23.0921 17.0686C23.0046 17.1436 22.8781 17.1436 22.7905 17.0686L14.4759 9.82807C14.3008 9.67816 14.0624 9.64318 13.8532 9.73313L5.52398 13.3459C5.31965 13.4358 5.33424 13.7357 5.54831 13.8006V13.7956Z" fill="white"/>
</svg>
