<svg width="38" height="36" viewBox="0 0 38 36" fill="none" xmlns="http://www.w3.org/2000/svg">
<path d="M26.1181 4.29983C26.1341 4.63032 26.11 4.95245 26.0377 5.27458C25.9694 5.59671 25.8689 5.91047 25.7322 6.21168C25.5072 6.71788 25.2178 7.18224 24.8923 7.62151C24.6431 7.95618 24.3778 8.27831 24.1005 8.58789C23.7267 9.01042 23.3329 9.41203 22.931 9.80109C22.4326 10.2864 21.9182 10.7549 21.3997 11.2151C20.7928 11.7506 20.1779 12.2777 19.5549 12.7965C19.3781 12.9429 19.2013 13.0851 19.0285 13.2357C18.9682 13.2859 18.924 13.2817 18.8717 13.2357C18.3975 12.8383 17.9272 12.4409 17.453 12.0434C16.9868 11.6502 16.5246 11.2486 16.0704 10.8386C15.7529 10.5499 15.4394 10.2529 15.1259 9.96007C14.6517 9.51243 14.1975 9.05225 13.7675 8.56279C13.2852 8.01475 12.8311 7.43743 12.4653 6.79318C12.2161 6.35391 12.0192 5.88955 11.8986 5.3959C11.77 4.8646 11.7499 4.32493 11.8022 3.78108C11.8464 3.32508 11.9509 2.88163 12.1277 2.4591C12.5698 1.40487 13.2892 0.639293 14.3302 0.233496C14.7803 0.0577902 15.2505 -0.0175123 15.7328 0.00340508C16.5447 0.0410563 17.2601 0.338083 17.871 0.898668C18.297 1.28355 18.6306 1.73955 18.9039 2.25411C18.9159 2.27503 18.924 2.3085 18.9521 2.30431C18.9923 2.30013 19.0003 2.25411 19.0164 2.22064C19.2254 1.8274 19.4786 1.46344 19.78 1.14131C20.1779 0.714595 20.6401 0.384101 21.1827 0.195845C21.6368 0.0368729 22.099 -0.0258792 22.5773 0.011772C23.0957 0.0536067 23.582 0.195845 24.0402 0.446853C24.6149 0.764797 25.0731 1.2208 25.4268 1.78556C25.688 2.19973 25.8729 2.65154 25.9895 3.13264C26.0819 3.51334 26.1261 3.9024 26.106 4.29983H26.1181Z" fill="#1F2F55"/>
<path d="M4.49219 22.4769V30.9191C4.49219 31.0279 4.55649 31.1241 4.65697 31.1576L18.0967 35.9853C18.2534 36.0439 18.4182 35.9184 18.4182 35.7469V18.4189C18.4182 18.1596 18.0887 18.0675 17.9641 18.2892L14.7448 24.0415C14.6885 24.1461 14.568 24.1921 14.4595 24.1545L4.80969 20.975C4.65295 20.9248 4.49219 21.0461 4.49219 21.2177V22.4727V22.4769Z" fill="#1F2F55"/>
<path d="M33.4163 22.4769V30.9191C33.4163 31.0279 33.352 31.1241 33.2515 31.1576L19.8118 35.9853C19.655 36.0439 19.4902 35.9184 19.4902 35.7469V18.4189C19.4902 18.1596 19.8198 18.0675 19.9444 18.2892L23.1637 24.0415C23.2199 24.1461 23.3405 24.1921 23.449 24.1545L33.0988 20.975C33.2555 20.9248 33.4163 21.0461 33.4163 21.2177V22.4727V22.4769Z" fill="#1F2F55"/>
<path d="M13.8517 22.958L0.331543 18.5194C0.042171 18.4232 -0.0864388 18.0759 0.0622663 17.804L2.96001 12.5328C3.06852 12.3362 3.29359 12.24 3.50258 12.3027L17.1995 16.3984C17.4929 16.4862 17.6336 16.8376 17.4809 17.1137L14.4023 22.728C14.2938 22.9288 14.0606 23.025 13.8476 22.9539L13.8517 22.958Z" fill="#1F2F55"/>
<path d="M24.1486 22.958L37.6687 18.5194C37.9581 18.4232 38.0867 18.0759 37.938 17.804L35.0403 12.5328C34.9317 12.3362 34.7067 12.24 34.4977 12.3027L20.8007 16.3984C20.5073 16.4862 20.3667 16.8376 20.5194 17.1137L23.598 22.728C23.7065 22.9288 23.9396 23.025 24.1526 22.9539L24.1486 22.958Z" fill="#1F2F55"/>
<path d="M4.5833 11.5496L18.8952 16.0301C18.9313 16.0427 18.9715 16.0427 19.0077 16.0301L33.0945 11.7421C33.2754 11.6877 33.2834 11.4241 33.1066 11.3572L25.7316 8.53755C25.607 8.49153 25.4663 8.51663 25.3659 8.60448L19.076 14.2898C19.0037 14.3526 18.8992 14.3526 18.8268 14.2898L11.9583 8.22797C11.8136 8.10247 11.6167 8.07318 11.4438 8.14848L4.56321 11.1731C4.39441 11.2484 4.40646 11.4994 4.5833 11.5538V11.5496Z" fill="#1F2F55"/>
</svg>
