<svg width="56" height="56" viewBox="0 0 56 56" fill="none" xmlns="http://www.w3.org/2000/svg">
<path d="M16.7672 27.2677C16.7672 28.2839 16.458 29.0461 15.8395 29.6664C13.3477 32.1538 10.8559 34.6411 8.34031 37.1048C7.03792 38.381 5.07541 38.3337 3.80275 37.0576C2.55388 35.805 2.5182 33.8731 3.77896 32.5969C6.27075 30.0859 8.78634 27.5868 11.3198 25.1112C12.307 24.1482 13.5261 23.9473 14.7988 24.4732C16.0774 25.0049 16.6959 26.0329 16.7672 27.2618V27.2677Z" fill="#2E86CC"/>
<path d="M11.7902 43.3383C10.1488 43.3028 9.19731 42.7533 8.59666 41.6544C7.98412 40.5319 8.05548 39.4211 8.75128 38.3518C8.89401 38.1332 9.07242 37.9264 9.25678 37.7373C11.4036 35.5985 13.5446 33.4539 15.7093 31.3328C17.0473 30.0153 18.9207 29.9267 20.2112 31.067C21.579 32.2781 21.7812 34.2987 20.5145 35.6104C18.2427 37.9677 15.8877 40.2483 13.5446 42.5407C12.9677 43.1019 12.2303 43.3619 11.7843 43.3383H11.7902Z" fill="#2E86CC"/>
<path d="M13.5677 45.0988C13.5439 44.5552 13.8591 43.8108 14.4597 43.2082C16.4995 41.1639 18.5334 39.1197 20.6089 37.1109C21.8756 35.882 23.8857 35.9529 25.1108 37.1877C26.3359 38.4225 26.3656 40.4018 25.1286 41.6602C23.1007 43.7163 21.049 45.7428 18.9854 47.7634C18.0339 48.6969 16.6482 48.9214 15.4469 48.3483C14.2337 47.7693 13.5855 46.7885 13.5677 45.1047V45.0988Z" fill="#2E86CC"/>
<path d="M27.6377 42.1154C28.9996 42.1449 29.9987 42.7712 30.5518 44.0001C31.1048 45.229 30.9502 46.4461 30.0165 47.415C28.1432 49.3588 26.2283 51.2671 24.2658 53.1282C22.9872 54.3453 21.0663 54.2449 19.8115 53.0219C18.6459 51.8816 18.4972 49.9201 19.6628 48.6912C21.5599 46.6883 23.5581 44.7741 25.5384 42.848C26.1034 42.2985 26.8289 42.0681 27.6377 42.1154Z" fill="#2E86CC"/>
<path d="M55.0187 36.402C53.4725 34.7063 51.8847 33.0521 50.2968 31.3919C49.1193 30.1571 47.9299 28.9222 46.7465 27.6874C46.7167 27.652 46.681 27.6224 46.6513 27.587C46.6216 27.5634 46.5918 27.5456 46.5621 27.522L45.7414 26.7835C42.5479 23.5813 39.3365 20.3849 36.1311 17.1945L35.5185 16.586C35.1558 16.2256 34.7811 15.8652 34.4124 15.5048C33.9307 15.038 33.449 14.5654 32.9732 14.0868C32.8245 14.2404 32.6818 14.3763 32.5391 14.5122L32.3369 14.7013L32.9732 14.0809C32.658 13.7441 32.1585 13.6732 31.76 13.9037C31.3081 14.1636 30.749 14.4649 30.1246 14.7308C28.6081 15.3807 26.1342 15.9243 23.1666 14.7308C19.9671 13.4428 21.2576 12.5861 21.2576 12.5861L25.9141 8.16682C26.3364 7.76506 26.3304 7.09153 25.8963 6.7075C24.5641 5.53177 23.1726 4.42103 21.781 3.32211C19.8065 1.76826 17.4575 1.10655 14.936 1.06519C14.2758 1.04746 13.6157 1.11836 12.9734 1.24834C7.35947 2.36499 3.44634 5.63812 1.1508 10.7546C-0.746296 14.9849 -0.300271 19.0851 2.50671 22.8486C3.77343 24.5443 5.40885 25.9091 6.85992 27.4393C7.13348 27.7288 7.31784 27.5575 7.52004 27.3507C8.50724 26.364 9.48849 25.3773 10.4876 24.4025C11.9387 22.9963 13.9904 22.7364 15.715 23.7171C17.3921 24.6684 18.2009 26.6181 17.6894 28.5618C17.6537 28.6918 17.6359 28.7923 17.6359 28.8809C17.6359 29.129 17.7786 29.2177 18.1414 29.2177C19.0334 29.2236 19.9195 29.4599 20.6332 30.0034C20.8235 30.1452 20.99 30.2988 21.1506 30.4525C21.1744 30.4761 21.1922 30.4938 21.216 30.5175C21.3468 30.6533 21.4717 30.7892 21.5788 30.9369C21.6025 30.9724 21.6263 31.0019 21.6561 31.0374C21.7512 31.1733 21.8404 31.3091 21.9177 31.445C21.9415 31.4864 21.9653 31.5337 21.9891 31.575C22.0545 31.7109 22.114 31.8468 22.1675 31.9827C22.1853 32.0359 22.2091 32.0831 22.227 32.1363C22.2686 32.2663 22.3043 32.4081 22.3281 32.544C22.34 32.603 22.3578 32.6621 22.3638 32.7212C22.3875 32.8512 22.3935 32.9871 22.4054 33.123C22.4054 33.1939 22.4173 33.2588 22.4173 33.3297C22.4173 33.4538 22.4113 33.5897 22.3994 33.7138C22.3994 33.7965 22.3994 33.8733 22.3875 33.956C22.3757 34.0505 22.3578 34.151 22.34 34.2455C22.3221 34.3578 22.3102 34.4641 22.2864 34.5764C22.2627 34.6827 22.2508 34.7772 22.2508 34.8541C22.2508 35.0904 22.3697 35.1967 22.7325 35.179C23.119 35.1613 23.5115 35.179 23.8981 35.2794C25.9141 35.7935 27.163 37.5186 27.1095 39.5865C27.1035 39.8819 27.0678 40.1832 27.0024 40.4905C26.9786 40.6145 26.9548 40.7209 26.9608 40.8036C26.9608 40.9454 27.0559 41.0163 27.3652 41.0045C29.2682 40.9336 30.8442 41.932 31.5876 43.6218C31.8492 44.2126 31.9622 44.8448 31.9325 45.4651C31.879 46.5109 31.4329 47.5389 30.6241 48.3601C29.8629 49.1341 29.0898 49.9022 28.3108 50.6525C28.174 50.7884 28.0907 50.9066 28.0848 51.0247C28.0729 51.1429 28.1324 51.267 28.287 51.4147C29.5537 52.6436 30.7847 53.902 32.0514 55.125C32.7353 55.7808 33.5798 56.0939 34.5313 55.9758C35.8456 55.8163 36.815 55.1309 37.2313 53.8666C37.2788 53.713 37.3205 53.5653 37.3502 53.4175C37.3502 53.3939 37.3562 53.3762 37.3621 53.3526C37.3859 53.2285 37.4037 53.1044 37.4097 52.9803C37.4097 52.9567 37.4097 52.9331 37.4097 52.9153C37.4156 52.7854 37.4097 52.6554 37.4097 52.5254C37.4097 52.4841 37.3978 52.4427 37.3918 52.4013C37.3799 52.3186 37.368 52.2359 37.3502 52.1532C37.3383 52.1 37.3264 52.0409 37.3086 51.9878C37.2907 51.9228 37.2669 51.8519 37.2432 51.7869C37.2015 51.6746 37.154 51.5624 37.1004 51.456C37.0826 51.4147 37.0588 51.3733 37.041 51.332C36.9993 51.2551 36.9518 51.1843 36.8982 51.1074C36.8804 51.0779 36.8566 51.0484 36.8388 51.0247C36.7079 50.8416 36.5593 50.6643 36.3868 50.493C35.3401 49.4827 34.3172 48.4488 33.2884 47.4207C33.0922 47.2258 32.8424 47.0072 32.7889 46.7649C32.777 46.7236 32.777 46.6763 32.7889 46.629C32.7889 46.6113 32.7948 46.5936 32.8007 46.5759C32.8007 46.5522 32.8126 46.5286 32.8245 46.505C32.8364 46.4754 32.8483 46.4459 32.8721 46.4164C32.8721 46.4164 32.8721 46.4164 32.8721 46.4104C32.8959 46.375 32.9256 46.3396 32.9613 46.2982C33.4192 45.8255 33.7285 46.3573 34.0139 46.635C35.4947 48.0825 36.9518 49.5477 38.4266 51.007C38.7061 51.2788 38.9856 51.5565 39.3008 51.781C40.3891 52.549 41.5607 52.6258 42.7441 52.0528C43.88 51.4974 44.4212 50.5521 44.439 49.2818C44.4509 48.0116 43.9157 46.9894 43.0474 46.115C41.5607 44.6203 40.0561 43.1373 38.5574 41.6485C38.4147 41.5067 38.266 41.359 38.1412 41.1994C38.0519 41.0754 38.0103 40.9513 38.0163 40.8331C38.0282 40.715 38.0876 40.5968 38.2006 40.4964C38.4147 40.3073 38.6585 40.325 38.8786 40.4964C39.0392 40.6204 39.1819 40.7681 39.3306 40.9158C41.3525 42.9246 43.3626 44.9452 45.3906 46.9422C46.3064 47.8461 47.4244 48.177 48.6792 47.7989C49.94 47.4207 50.7488 46.57 51.0164 45.2702C51.0462 45.1166 51.0699 44.9689 51.0759 44.8211C51.0759 44.7798 51.0759 44.7384 51.0759 44.6971C51.0759 44.6025 51.0759 44.508 51.0759 44.4135C51.0759 44.3485 51.064 44.2835 51.058 44.2244C51.0521 44.1594 51.0402 44.0944 51.0283 44.0294C51.0164 43.9526 50.9986 43.8817 50.9748 43.8108C50.9629 43.7636 50.951 43.7163 50.9332 43.6691C50.9094 43.5863 50.8796 43.5036 50.844 43.4268C50.8321 43.3973 50.8142 43.3618 50.8023 43.3323C50.7607 43.2378 50.7131 43.1491 50.6655 43.0605C50.6655 43.0546 50.6536 43.0428 50.6477 43.0369C50.4574 42.7119 50.2195 42.3988 49.9281 42.1093C47.8942 40.0887 45.8544 38.0622 43.8205 36.0416C43.6778 35.8998 43.5232 35.758 43.4043 35.5926C43.315 35.4744 43.2734 35.3503 43.2794 35.2263C43.2853 35.1022 43.3388 34.984 43.4518 34.8777C43.66 34.6768 43.9097 34.7063 44.1298 34.8659C44.3498 35.0254 44.5401 35.2322 44.7364 35.4212C46.4313 37.1051 48.1321 38.7771 49.8151 40.4727C49.8567 40.52 49.9043 40.5614 49.946 40.6027C50.0887 40.7504 50.2433 40.8804 50.4039 41.0045C50.8856 41.3649 51.4149 41.6189 52.0036 41.7843C53.1395 42.0975 54.1624 41.8966 55.0128 41.0458C55.667 40.3959 55.9941 39.6042 56 38.7889C56 37.9736 55.6789 37.1405 55.0187 36.4079V36.402Z" fill="#2E86CC"/>
<path d="M49.8743 3.77089C44.8134 -1.25696 36.6065 -1.25696 31.5397 3.77089L26.788 8.49153L26.7999 8.50334L22.6787 12.645C22.4586 12.8636 22.5002 13.2299 22.7679 13.3894C24.1059 14.1752 27.8942 15.8472 31.6765 12.3378C32.069 11.9774 32.6696 11.9714 33.0502 12.3496L46.092 25.3062C46.4607 25.6725 47.0554 25.6725 47.4241 25.3062L49.8684 22.8779C55.179 17.6019 55.179 9.04099 49.8684 3.76499L49.8743 3.77089Z" fill="#2E86CC"/>
</svg>
