<svg width="46" height="46" viewBox="0 0 46 46" fill="none" xmlns="http://www.w3.org/2000/svg">
<rect width="46" height="46" rx="23" fill="white"/>
<path d="M33.0366 22.5128C33.0384 22.5128 33.0398 22.5128 33.0416 22.5128C33.1695 22.5128 33.2914 22.4566 33.3781 22.3582C33.4661 22.2583 33.5096 22.1243 33.4982 21.9888C33.0379 16.6852 29.03 12.4847 23.9673 12.0015C23.8389 11.991 23.7096 12.0347 23.6143 12.1274C23.5189 12.2196 23.4657 12.3497 23.4671 12.4857C23.5469 19.5342 24.4344 22.4144 33.0366 22.5128ZM33.0366 23.4868C24.4344 23.5853 23.5473 26.4655 23.4676 33.514C23.4662 33.6499 23.5194 33.78 23.6147 33.8722C23.7 33.9544 23.8114 34 23.926 34C23.9397 34 23.954 33.9995 23.9677 33.9981C29.0305 33.5149 33.0384 29.3149 33.4982 24.0108C33.5096 23.8754 33.4666 23.7414 33.3781 23.6415C33.2896 23.5416 33.1663 23.4921 33.0366 23.4868ZM22.002 12.0039C16.9553 12.501 12.9602 16.7005 12.5023 21.9898C12.4908 22.1252 12.5339 22.2592 12.6224 22.3591C12.709 22.4576 12.8314 22.5133 12.9588 22.5133C12.9607 22.5133 12.9625 22.5133 12.9643 22.5133C21.5381 22.41 22.4233 19.5313 22.504 12.4876C22.5054 12.3517 22.4517 12.221 22.3564 12.1288C22.2601 12.0366 22.1313 11.9915 22.002 12.0039ZM12.9639 23.4863C12.8213 23.4695 12.7095 23.5406 12.6219 23.6405C12.5339 23.7404 12.4903 23.8744 12.5018 24.0098C12.9598 29.2991 16.9553 33.4986 22.002 33.9957C22.0162 33.9971 22.0309 33.9976 22.0451 33.9976C22.1597 33.9976 22.2707 33.9525 22.3559 33.8703C22.4513 33.7781 22.5049 33.6475 22.5035 33.5116C22.4228 26.4684 21.5381 23.5896 12.9639 23.4863Z" fill="#151515"/>
</svg>
