<svg width="46" height="46" viewBox="0 0 46 46" fill="none" xmlns="http://www.w3.org/2000/svg">
<rect width="46" height="46" rx="23" fill="white"/>
<path d="M25.3572 27.9847C26.6341 27.695 27.7612 27.2239 28.7739 26.5933L28.7299 26.619C29.1965 26.3175 29.5 25.806 29.5 25.2258C29.5 24.3065 28.7383 23.5614 27.7986 23.5614C27.4726 23.5614 27.1681 23.6512 26.9096 23.8061L26.9171 23.8015C25.8078 24.4899 24.4578 24.8977 23.0103 24.8977C21.5628 24.8977 20.2119 24.4889 19.0736 23.7841L19.1036 23.8015C18.8469 23.6411 18.5339 23.5458 18.1976 23.5458C17.5961 23.5458 17.0677 23.8519 16.7651 24.313L16.7614 24.3194C16.7614 24.3194 16.7614 24.3194 16.7614 24.324C16.5974 24.5751 16.5 24.8812 16.5 25.2103C16.5 25.7996 16.8139 26.3165 17.286 26.6117L17.2926 26.6153C18.2613 27.2212 19.3884 27.6914 20.5922 27.9654L20.6653 27.9792L17.4153 31.155C17.1043 31.4547 16.9113 31.8708 16.9113 32.3319C16.9113 32.7801 17.094 33.1861 17.3891 33.4831L17.4172 33.5106C17.7226 33.8103 18.1451 33.9954 18.6117 33.9954C19.0783 33.9954 19.5008 33.8103 19.8062 33.5106L23.0112 30.3906L26.1966 33.5124C26.5039 33.813 26.9292 34 27.3986 34C28.3373 34 29.0981 33.2558 29.0981 32.3374C29.0981 31.8782 28.9079 31.463 28.6006 31.1614L25.3572 27.9847ZM23.0103 23.3542C26.2125 23.3515 28.8077 20.8108 28.8077 17.6771C28.8077 14.5416 26.2097 12 23.0047 12C19.7997 12 17.2017 14.5416 17.2017 17.6771V17.6826C17.2083 20.8163 19.8062 23.3542 23.0103 23.3542ZM23.0103 15.3271C24.3378 15.3271 25.4134 16.3793 25.4134 17.678C25.4134 18.9768 24.3378 20.029 23.0103 20.029C21.6846 20.029 20.6091 18.9786 20.6072 17.6817C20.6072 17.6808 20.6072 17.6808 20.6072 17.6799C20.6072 16.3811 21.6828 15.328 23.0103 15.3271Z" fill="#151515"/>
</svg>
