<svg width="46" height="46" viewBox="0 0 46 46" fill="none" xmlns="http://www.w3.org/2000/svg">
<rect width="46" height="46" rx="23" fill="white"/>
<path d="M30.0513 16.1236C30.0513 16.1236 31.6237 15.5176 31.4922 16.9892C31.4489 17.5952 31.0559 19.7164 30.7499 22.0104L29.7015 28.8064C29.7015 28.8064 29.6141 29.8019 28.8277 29.9751C28.0416 30.1479 26.8622 29.3692 26.6436 29.196C26.4688 29.066 23.3675 27.118 22.2755 26.166C21.9695 25.906 21.6198 25.3868 22.3192 24.7808L26.9055 20.452C27.4296 19.9328 27.9538 18.7208 25.7697 20.1924L19.6539 24.3044C19.6539 24.3044 18.9549 24.7376 17.6447 24.348L14.8049 23.482C14.8049 23.482 13.7566 22.8328 15.5476 22.1836C19.9162 20.1492 25.2893 18.0716 30.0504 16.1236H30.0513Z" fill="#151515"/>
</svg>
