<svg width="47" height="46" viewBox="0 0 47 46" fill="none" xmlns="http://www.w3.org/2000/svg">
<rect width="47" height="46" rx="23" fill="white"/>
<path fill-rule="evenodd" clip-rule="evenodd" d="M31.6922 25.4118C31.6922 25.4118 33.3901 27.0878 33.8101 27.8634C33.8182 27.8746 33.8246 27.887 33.829 27.9001C34.0001 28.1866 34.0421 28.4112 33.9581 28.5771C33.8164 28.851 33.3365 28.9885 33.1738 29H30.1729C29.9639 29 29.5292 28.9454 29 28.5802C28.5958 28.2979 28.1936 27.833 27.8041 27.3785C27.2224 26.7037 26.7194 26.1181 26.2102 26.1181C26.1458 26.1179 26.082 26.1286 26.0212 26.1496C25.6358 26.2713 25.1465 26.8202 25.1465 28.2821C25.1465 28.7397 24.7853 29 24.5323 29H23.1578C22.6895 29 20.2514 28.8363 18.0895 26.5578C15.4403 23.7682 13.061 18.1723 13.0379 18.123C12.8898 17.7609 13.2006 17.5636 13.5366 17.5636H16.5669C16.9733 17.5636 17.1056 17.8092 17.198 18.0296C17.3051 18.2825 17.702 19.2942 18.353 20.4308C19.4072 22.28 20.0551 23.0325 20.5727 23.0325C20.67 23.0328 20.7656 23.0075 20.8499 22.9591C21.5261 22.5875 21.4001 20.1737 21.3686 19.6762C21.3686 19.5797 21.3676 18.5984 21.0211 18.124C20.7733 17.784 20.3512 17.6517 20.096 17.6035C20.1643 17.5048 20.3092 17.3537 20.495 17.2645C20.9581 17.0336 21.7949 17 22.6255 17H23.0864C23.9873 17.0126 24.2204 17.0703 24.548 17.1532C25.2074 17.3107 25.22 17.7378 25.1623 19.1924C25.1455 19.608 25.1276 20.0761 25.1276 20.6271C25.1276 20.7446 25.1224 20.8758 25.1224 21.0091C25.1024 21.7553 25.0762 22.5959 25.6033 22.9412C25.6716 22.9838 25.7506 23.0063 25.8311 23.0063C26.0138 23.0063 26.5609 23.0063 28.0445 20.4613C28.6955 19.3372 29.1995 18.0117 29.2342 17.912C29.2636 17.8564 29.3518 17.7 29.4589 17.637C29.535 17.5965 29.6204 17.5763 29.7067 17.5783H33.2714C33.6599 17.5783 33.9235 17.637 33.9749 17.784C34.061 18.0222 33.9581 18.7495 32.3306 20.9493C32.0566 21.3155 31.8161 21.6325 31.6051 21.9096C30.1298 23.8448 30.1298 23.9425 31.6922 25.4118Z" fill="#151515"/>
</svg>
