<svg width="47" height="46" viewBox="0 0 47 46" fill="none" xmlns="http://www.w3.org/2000/svg">
<rect width="47" height="46" rx="23" fill="white"/>
<path d="M33.95 16.7321C33.675 15.6071 32.9875 14.8036 32.025 14.4821C30.375 14 23.3625 14 23.3625 14C23.3625 14 16.4875 14 14.7 14.4821C13.7375 14.8036 13.05 15.6071 12.775 16.7321C12.5 18.8214 12.5 23 12.5 23C12.5 23 12.5 27.1786 12.9125 29.2679C13.1875 30.3929 13.875 31.1964 14.8375 31.5179C16.4875 32 23.5 32 23.5 32C23.5 32 30.375 32 32.1625 31.5179C33.125 31.1964 33.8125 30.3929 34.0875 29.2679C34.5 27.1786 34.5 23 34.5 23C34.5 23 34.5 18.8214 33.95 16.7321ZM21.3 26.8571V19.1429L27.075 23L21.3 26.8571Z" fill="#151515"/>
</svg>
