<svg width="70" height="66" viewBox="0 0 70 66" fill="none" xmlns="http://www.w3.org/2000/svg">
<rect width="70" height="66" rx="6" fill="#F2F2F2"/>
<path d="M39.3077 42.4302C41.3705 41.9694 43.1911 41.2199 44.8271 40.2167L44.756 40.2575C45.5097 39.7778 46 38.9641 46 38.0411C46 36.5786 44.7696 35.3931 43.2517 35.3931C42.725 35.3931 42.2331 35.536 41.8154 35.7824L41.8275 35.7752C40.0357 36.8702 37.8549 37.5191 35.5166 37.5191C33.1784 37.5191 30.9961 36.8688 29.1573 35.7474L29.2058 35.7752C28.7911 35.52 28.2856 35.3683 27.7423 35.3683C26.7707 35.3683 25.9171 35.8554 25.4283 36.5888L25.4222 36.599C25.4222 36.599 25.4222 36.599 25.4222 36.6063C25.1574 37.0058 25 37.4929 25 38.0163C25 38.9539 25.507 39.7763 26.2697 40.2458L26.2803 40.2517C27.8452 41.2155 29.6658 41.9635 31.6106 42.3995L31.7286 42.4214L26.4786 47.4739C25.9761 47.9507 25.6644 48.6127 25.6644 49.3462C25.6644 50.0592 25.9595 50.7052 26.4362 51.1776L26.4816 51.2213C26.975 51.6982 27.6575 51.9927 28.4112 51.9927C29.1649 51.9927 29.8474 51.6982 30.3408 51.2213L35.5182 46.2578L40.6637 51.2243C41.1601 51.7025 41.8472 52 42.6054 52C44.1219 52 45.3507 50.816 45.3507 49.3549C45.3507 48.6244 45.0435 47.9638 44.5471 47.4841L39.3077 42.4302ZM35.5166 35.0636C40.6895 35.0592 44.8816 31.0172 44.8816 26.0318C44.8816 21.0435 40.6849 17 35.5076 17C30.3302 17 26.1335 21.0435 26.1335 26.0318V26.0405C26.1441 31.026 30.3408 35.0636 35.5166 35.0636ZM35.5166 22.2931C37.6611 22.2931 39.3985 23.967 39.3985 26.0332C39.3985 28.0994 37.6611 29.7734 35.5166 29.7734C33.3752 29.7734 31.6378 28.1024 31.6348 26.0391C31.6348 26.0376 31.6348 26.0376 31.6348 26.0362C31.6348 23.97 33.3722 22.2945 35.5166 22.2931Z" fill="#151515"/>
</svg>
