<svg width="70" height="66" viewBox="0 0 70 66" fill="none" xmlns="http://www.w3.org/2000/svg">
<rect width="70" height="66" rx="6" fill="#F2F2F2"/>
<path d="M49.1025 19.2472C49.1025 19.2472 52.2475 18.0352 51.9844 20.9784C51.8977 22.1904 51.1117 26.4328 50.4997 31.0208L48.4031 44.6127C48.4031 44.6127 48.2282 46.6039 46.6553 46.9503C45.0833 47.2959 42.7244 45.7383 42.2872 45.3919C41.9375 45.1319 35.735 41.2359 33.551 39.3319C32.939 38.8119 32.2396 37.7735 33.6384 36.5615L42.811 27.904C43.8593 26.8656 44.9076 24.4416 40.5395 27.3848L28.3078 35.6087C28.3078 35.6087 26.9097 36.4751 24.2893 35.6959L18.6098 33.964C18.6098 33.964 16.5132 32.6656 20.0953 31.3672C28.8323 27.2984 39.5786 23.1432 49.1009 19.2472H49.1025Z" fill="#151515"/>
</svg>
