<svg width="70" height="66" viewBox="0 0 70 66" fill="none" xmlns="http://www.w3.org/2000/svg">
<rect width="70" height="66" rx="6" fill="#F2F2F2"/>
<path fill-rule="evenodd" clip-rule="evenodd" d="M51.3844 37.1225C51.3844 37.1225 54.7801 40.335 55.6201 41.8215C55.6365 41.8429 55.6492 41.8667 55.6579 41.8919C56.0002 42.4411 56.0842 42.8715 55.9162 43.1893C55.6327 43.7144 54.673 43.9779 54.3475 44H48.3457C47.9278 44 47.0584 43.8954 46 43.1954C45.1915 42.6543 44.3872 41.7632 43.6081 40.8922C42.4447 39.5987 41.4388 38.4763 40.4203 38.4763C40.2917 38.476 40.1639 38.4964 40.0423 38.5366C39.2716 38.77 38.293 39.822 38.293 42.6241C38.293 43.5011 37.5706 44 37.0645 44H34.3156C33.379 44 28.5028 43.6862 24.1789 39.3191C18.8806 33.9725 14.122 23.2469 14.0758 23.1524C13.7797 22.4584 14.4013 22.0802 15.0733 22.0802H21.1339C21.9466 22.0802 22.2112 22.5509 22.396 22.9733C22.6102 23.4581 23.404 25.3972 24.706 27.5757C26.8144 31.1201 28.1101 32.5624 29.1454 32.5624C29.3399 32.5629 29.5311 32.5143 29.6998 32.4216C31.0522 31.7095 30.8002 27.0829 30.7372 26.1294C30.7372 25.9444 30.7351 24.0636 30.0421 23.1544C29.5465 22.5026 28.7023 22.2492 28.192 22.1566C28.3285 21.9676 28.6183 21.6779 28.99 21.5069C29.9161 21.0644 31.5898 21 33.2509 21H34.1728C35.9746 21.0241 36.4408 21.1348 37.096 21.2937C38.4148 21.5954 38.44 22.4141 38.3245 25.2021C38.2909 25.9987 38.2552 26.8958 38.2552 27.9519C38.2552 28.1772 38.2447 28.4286 38.2447 28.6841C38.2048 30.1143 38.1523 31.7256 39.2065 32.3874C39.3432 32.4689 39.5011 32.5121 39.6622 32.5121C40.0276 32.5121 41.1217 32.5121 44.089 27.6341C45.391 25.4797 46.399 22.9391 46.4683 22.748C46.5271 22.6414 46.7035 22.3417 46.9177 22.221C47.0701 22.1434 47.2408 22.1046 47.4133 22.1084H54.5428C55.3198 22.1084 55.8469 22.221 55.9498 22.5026C56.122 22.9592 55.9162 24.3532 52.6612 28.5694C52.1131 29.2715 51.6322 29.879 51.2101 30.41C48.2596 34.1193 48.2596 34.3064 51.3844 37.1225Z" fill="#151515"/>
</svg>
