<svg width="70" height="66" viewBox="0 0 70 66" fill="none" xmlns="http://www.w3.org/2000/svg">
<rect width="70" height="66" rx="6" fill="#F2F2F2"/>
<path d="M35.5 16.9707C44.613 16.9707 52 23.9356 52 32.5278C52 41.12 44.613 48.085 35.5 48.085C32.5841 48.0897 29.7194 47.3621 27.2005 45.977L19.0066 48.085L21.2374 40.3562C19.7672 37.9805 18.9949 35.2784 19 32.5278C19 23.9356 26.3871 16.9707 35.5 16.9707ZM29.8768 25.216L29.5468 25.2284C29.3335 25.2423 29.125 25.2951 28.933 25.384C28.7541 25.4797 28.5907 25.5992 28.4479 25.7387C28.2499 25.9145 28.1377 26.067 28.0173 26.2148C27.407 26.9629 27.0784 27.8814 27.0834 28.8252C27.0867 29.5875 27.2979 30.3296 27.6279 31.0235C28.3027 32.4267 29.4132 33.9124 30.8784 35.2892C31.2315 35.6206 31.578 35.9535 31.9509 36.2631C33.7715 37.7743 35.941 38.8642 38.2869 39.4461L39.2241 39.5814C39.5293 39.597 39.8346 39.5752 40.1415 39.5612C40.6219 39.5373 41.091 39.4147 41.5159 39.2018C41.7318 39.0966 41.9427 38.9824 42.1479 38.8596C42.1479 38.8596 42.2177 38.815 42.3541 38.7196C42.5769 38.564 42.7138 38.4535 42.8986 38.2715C43.0372 38.1367 43.1527 37.9801 43.2451 37.8017C43.3738 37.5481 43.5025 37.0643 43.5553 36.6614C43.5949 36.3533 43.5834 36.1853 43.5784 36.0811C43.5718 35.9146 43.425 35.7419 43.2649 35.6688L42.3046 35.2628C42.3046 35.2628 40.8691 34.6732 39.9913 34.2967C39.8994 34.259 39.801 34.2374 39.7009 34.2329C39.588 34.2218 39.4739 34.2336 39.3663 34.2677C39.2587 34.3018 39.1601 34.3573 39.0772 34.4305C39.069 34.4274 38.9584 34.516 37.7655 35.8788C37.697 35.9656 37.6027 36.0312 37.4945 36.0672C37.3864 36.1032 37.2693 36.108 37.1583 36.0811C37.0507 36.0541 36.9454 36.0197 36.8431 35.9784C36.6385 35.8975 36.5676 35.8664 36.4273 35.8104C35.48 35.4213 34.6031 34.8948 33.8286 34.25C33.6207 34.0789 33.4276 33.8922 33.2296 33.7117C32.5805 33.1256 32.0148 32.4625 31.5466 31.7391L31.4493 31.5913C31.3804 31.4914 31.3239 31.3844 31.281 31.2724C31.2183 31.0437 31.3816 30.8601 31.3816 30.8601C31.3816 30.8601 31.7826 30.4463 31.969 30.2223C32.1505 30.0045 32.304 29.7929 32.403 29.642C32.5977 29.3464 32.6587 29.043 32.5564 28.8081C32.0944 27.744 31.617 26.6856 31.1242 25.6329C31.0269 25.4244 30.7381 25.2751 30.4758 25.2455C30.3867 25.2352 30.2976 25.2269 30.2085 25.2206C29.9869 25.2087 29.7648 25.2107 29.5435 25.2269L29.8768 25.216Z" fill="#151515"/>
</svg>
