<svg width="25" height="24" viewBox="0 0 25 24" fill="none" xmlns="http://www.w3.org/2000/svg">
<g clip-path="url(#clip0_2249_3028)">
<path d="M0.5 7.61914V23.9995H9.46989V7.61914H0.5ZM3.88761 14.4955H2.38804V12.4203H3.88761V14.4955ZM3.88761 11.4308H2.38804V9.35568H3.88761V11.4308ZM6.7858 14.4955H5.28547V12.4203H6.7858V14.4955ZM6.7858 11.4308H5.28547V9.35568H6.7858V11.4308Z" fill="#151515"/>
<path d="M8.79343 6.52539H1.77734V8.40833H8.79343V6.52539Z" fill="#151515"/>
<path d="M13.8988 0H8.79297V1.14118H13.8988V0Z" fill="#151515"/>
<path d="M16.6253 22.5167C15.4102 21.1953 9.46089 13.3497 9.46089 9.67467C9.46089 7.52145 10.3915 5.5777 11.8781 4.21054V2.14291H13.3784V3.13393C13.8763 2.86065 14.4092 2.64067 14.9675 2.48151V1.14062H7.72656V23.9994H16.711V22.5932C16.6804 22.5707 16.6521 22.5452 16.6253 22.5167ZM9.17643 2.14291H10.676V4.2188H9.17643V2.14291Z" fill="#151515"/>
<path d="M17.4365 2.80469C13.5358 2.80469 10.373 5.90914 10.373 9.73959C10.373 13.1579 15.9997 20.6191 17.2087 21.9344C17.3303 22.0666 17.5413 22.0666 17.6637 21.9344C18.8734 20.6191 24.4993 13.1579 24.4993 9.73959C24.4993 5.90989 21.3373 2.80469 17.4358 2.80469H17.4365ZM17.4365 11.0805C16.1434 11.0805 15.0958 10.0512 15.0958 8.78235C15.0958 7.51354 16.1442 6.48423 17.4365 6.48423C18.7289 6.48423 19.7773 7.51354 19.7773 8.78235C19.7773 10.0512 18.7289 11.0805 17.4365 11.0805Z" fill="#151515"/>
</g>
<defs>
<clipPath id="clip0_2249_3028">
<rect width="24" height="24" fill="white" transform="translate(0.5)"/>
</clipPath>
</defs>
</svg>
