<svg width="50" height="50" viewBox="0 0 50 50" fill="none" xmlns="http://www.w3.org/2000/svg">
<rect width="50" height="50" rx="6" fill="#F2F2F2"/>
<g clip-path="url(#clip0_2214_325)">
<path d="M14 20.3022V36.0001H22.5961V20.3022H14ZM17.2465 26.8921H15.8094V24.9034H17.2465V26.8921ZM17.2465 23.9551H15.8094V21.9664H17.2465V23.9551ZM20.0239 26.8921H18.5861V24.9034H20.0239V26.8921ZM20.0239 23.9551H18.5861V21.9664H20.0239V23.9551Z" fill="#9A9A9A"/>
<path d="M21.9484 19.2539H15.2246V21.0584H21.9484V19.2539Z" fill="#9A9A9A"/>
<path d="M26.8424 13H21.9492V14.0936H26.8424V13Z" fill="#9A9A9A"/>
<path d="M29.4538 34.5791C28.2893 33.3128 22.5878 25.7941 22.5878 22.2722C22.5878 20.2087 23.4797 18.3459 24.9043 17.0358V15.0543H26.3422V16.004C26.8192 15.7421 27.33 15.5313 27.865 15.3788V14.0938H20.9258V36.0001H29.5358V34.6525C29.5065 34.6309 29.4794 34.6065 29.4538 34.5791ZM22.3152 15.0543H23.7523V17.0437H22.3152V15.0543Z" fill="#9A9A9A"/>
<path d="M30.2301 15.689C26.4919 15.689 23.4609 18.6641 23.4609 22.3349C23.4609 25.6108 28.8531 32.7611 30.0117 34.0216C30.1283 34.1483 30.3305 34.1483 30.4478 34.0216C31.6071 32.7611 36.9986 25.6108 36.9986 22.3349C36.9986 18.6648 33.9683 15.689 30.2294 15.689H30.2301ZM30.2301 23.6199C28.9909 23.6199 27.9869 22.6335 27.9869 21.4176C27.9869 20.2016 28.9916 19.2152 30.2301 19.2152C31.4686 19.2152 32.4733 20.2016 32.4733 21.4176C32.4733 22.6335 31.4686 23.6199 30.2301 23.6199Z" fill="#9A9A9A"/>
</g>
<defs>
<clipPath id="clip0_2214_325">
<rect width="23" height="23" fill="white" transform="translate(14 13)"/>
</clipPath>
</defs>
</svg>
