<svg width="50" height="50" viewBox="0 0 50 50" fill="none" xmlns="http://www.w3.org/2000/svg">
<rect width="50" height="50" rx="6" fill="#F2F2F2"/>
<g clip-path="url(#clip0_2214_350)">
<path d="M36.996 24.4069C36.9824 24.2144 36.9228 24.1177 36.8176 24.1177C35.3637 24.2002 33.9631 24.2416 32.615 24.2416C31.2668 24.2416 29.3899 24.173 27.1436 24.0352C27.0903 24.0352 27.0446 24.0701 27.0049 24.1384C26.9652 24.2074 26.9453 24.996 26.9453 25.0785C26.9453 25.2992 27.0248 25.4089 27.1833 25.4089C28.4781 25.4089 29.3837 25.5056 29.8991 25.6978C30.4146 25.8908 30.7514 26.0319 30.9102 26.5958C31.0688 27.1605 31.1483 27.6833 31.1483 29.1145C31.1483 30.5457 31.0158 31.5789 30.7517 32.2946C30.4872 33.0109 30.064 33.4923 29.483 33.7401C28.9014 33.9879 28.0687 34.1118 26.9853 34.1118L26.9726 35.1633C28.5359 35.1633 30.3334 35.1281 31.972 34.7999C33.1865 34.5567 34.3134 34.0796 35.1923 33.717C35.377 33.6622 35.4959 33.5479 35.5492 33.4923C35.6017 33.4375 35.6284 33.327 35.6284 33.162C35.6284 33.0246 35.5818 32.694 35.4896 32.1707C35.3969 31.648 35.3509 30.7666 35.3509 29.5276C35.3509 27.9582 35.377 26.8573 35.4301 26.2235C35.4828 25.5906 35.6085 25.1705 35.8068 24.9638C36.0051 24.7574 36.3421 24.6684 36.8179 24.6953C36.9498 24.6953 37.0094 24.599 36.9963 24.4061L36.996 24.4069Z" fill="#9A9A9A"/>
<path d="M24.9091 34.843C22.2553 33.2395 20.2393 30.8535 19.2721 28.0545C19.557 27.9217 19.8563 27.8129 20.1664 27.7314C22.0264 27.2415 24.7544 27.5825 28.2516 30.8707C28.3192 30.9342 28.4357 30.9156 28.4742 30.8347C28.7167 30.3259 29.509 28.8587 30.6553 28.6714C30.7744 28.652 30.8121 28.5138 30.7142 28.4491C29.549 27.6788 24.9527 25.0566 19.136 27.6352C18.8118 26.5676 18.6387 25.4444 18.6387 24.2852C18.6387 19.5749 21.4941 15.4629 25.7382 13.2624C25.8529 13.203 25.7904 13.0436 25.6603 13.0643C19.1698 14.1034 14.2819 18.6543 14.2819 24.111C14.2819 26.0599 14.9055 27.8932 16.0029 29.4922C9.65147 34.3629 13.8609 42.3891 24.0679 37.4509C24.1802 37.3966 24.1061 37.2724 23.9807 37.2614C21.9651 37.0811 15.0448 37.4635 16.8376 30.7694C16.8518 30.7167 16.8672 30.6649 16.8838 30.613C18.7783 32.7369 21.5753 34.3178 24.8321 35.0034C24.9388 35.026 25.0001 34.8978 24.9091 34.8427V34.843Z" fill="#9A9A9A"/>
<path d="M18.9957 12.2746C21.284 11.8733 25.7517 11.4527 27.2519 13.8908C26.579 14.03 25.9189 14.2136 24.8446 14.8527C20.3731 17.5131 22.1371 21.925 22.7329 22.677C22.7661 22.7187 22.8376 22.6959 22.834 22.6445C22.7732 21.8135 23.1962 20.8617 23.6655 20.0815C24.4901 18.711 26.2526 17.2462 27.7072 17.0346C29.0499 16.8392 30.2635 16.9986 31.0505 17.3588C31.8683 17.7329 32.5032 18.4758 32.8548 19.1582C33.1331 19.6982 33.3442 20.2073 33.488 20.6854C33.5028 20.776 33.5701 20.8136 33.6898 20.798C33.809 20.783 33.8712 20.7413 33.876 20.6744L33.7868 15.9966C33.7873 15.683 33.7574 15.5018 33.7455 15.4395C33.7396 15.4096 33.6637 15.2903 33.5455 15.1661C33.4805 15.0981 33.4067 15.0376 33.3279 14.9828C33.0611 14.7973 32.0889 14.0722 30.7259 13.7956C30.6269 13.7755 30.5193 13.7583 30.4055 13.744C29.588 12.824 27.69 11.0767 25.1636 11.003C23.0261 10.9409 20.3171 11.8481 18.9719 12.183C18.9076 12.1991 18.9301 12.2862 18.9957 12.2746Z" fill="#9A9A9A"/>
</g>
<defs>
<clipPath id="clip0_2214_350">
<rect width="24" height="28" fill="white" transform="translate(13 11)"/>
</clipPath>
</defs>
</svg>
