<svg width="50" height="50" viewBox="0 0 50 50" fill="none" xmlns="http://www.w3.org/2000/svg">
<rect width="50" height="50" rx="6" fill="#F2F2F2"/>
<g clip-path="url(#clip0_2214_309)">
<path d="M24.4819 36.9971C20.9584 36.9971 17.4349 36.9952 13.9115 37.0001C13.4704 37.0001 13.086 36.8679 12.7308 36.6113C12.5551 36.485 12.5366 36.3893 12.7152 36.2383C13.6929 35.4125 14.6628 34.5767 15.6366 33.7449C17.2739 32.3467 18.9132 30.9515 20.5447 29.5464C20.7184 29.3964 20.8257 29.4023 20.9945 29.5454C21.6551 30.1029 22.3255 30.6476 22.9958 31.1932C23.9218 31.9471 25.0722 31.9491 25.9943 31.1982C26.6774 30.6426 27.3594 30.0851 28.0346 29.5198C28.181 29.3974 28.2796 29.3935 28.4279 29.5217C31.0224 31.7458 33.6219 33.963 36.2184 36.1841C36.4974 36.4229 36.4916 36.4495 36.1979 36.6577C35.8681 36.8906 35.5051 36.9991 35.1011 36.9991C31.561 36.9961 28.022 36.9971 24.4819 36.9971Z" fill="#9A9A9A"/>
<path d="M12.0916 22.2515C12.1384 22.287 12.1911 22.3245 12.2409 22.3649C13.7719 23.621 15.3028 24.8771 16.8338 26.1342C17.6964 26.8427 18.5599 27.5502 19.4225 28.2606C19.6518 28.4491 19.6528 28.4569 19.4225 28.6543C17.4895 30.308 15.5556 31.9598 13.6226 33.6116C13.164 34.0033 12.7054 34.396 12.2448 34.7848C12.1862 34.8341 12.1306 34.9397 12.0467 34.8933C11.9716 34.8519 12.0096 34.7424 12.0096 34.6644C12.0087 30.9721 12.0087 27.2798 12.0087 23.5875C12.0087 23.1938 12.0077 22.8001 12.0106 22.4064C12.0106 22.3501 11.9813 22.2673 12.0926 22.2525L12.0916 22.2515Z" fill="#9A9A9A"/>
<path d="M36.9869 28.5754C36.9869 30.6011 36.9869 32.6278 36.985 34.6536C36.985 34.7365 37.0357 34.8559 36.9343 34.8953C36.8572 34.9249 36.7996 34.8203 36.7401 34.77C34.3719 32.7492 32.0047 30.7264 29.6375 28.7046C29.6131 28.6839 29.5877 28.6622 29.5633 28.6405C29.3458 28.4501 29.3448 28.4481 29.5682 28.2646C31.9423 26.3148 34.3153 24.365 36.6913 22.4173C36.7684 22.3541 36.8474 22.217 36.946 22.2712C37.0357 22.3206 36.984 22.4676 36.984 22.5712C36.986 24.5732 36.986 26.5743 36.986 28.5764L36.9869 28.5754Z" fill="#9A9A9A"/>
<path d="M36.7369 20.6866L35.2138 22.0019C35.1708 22.0375 35.1074 22.0059 35.1074 21.9506V19.3121C35.1074 19.2559 35.1718 19.2253 35.2138 19.2608L36.7369 20.584C36.7691 20.6107 36.7691 20.66 36.7369 20.6866Z" fill="#9A9A9A"/>
<path d="M12.2195 20.6866L13.7426 22.0019C13.7856 22.0375 13.849 22.0059 13.849 21.9506V19.3121C13.849 19.2559 13.7846 19.2253 13.7426 19.2608L12.2195 20.584C12.1873 20.6107 12.1873 20.66 12.2195 20.6866Z" fill="#9A9A9A"/>
<path d="M24.5965 19.4619C23.7934 19.4619 23.1641 20.1457 23.1641 21.018C23.1641 21.8902 23.7934 22.5612 24.5965 22.5612C25.3995 22.5612 26.0562 21.8833 26.0562 21.018C26.0562 20.1526 25.4288 19.4619 24.5965 19.4619Z" fill="#9A9A9A"/>
<path d="M33.9172 13.8397C33.9172 13.2575 33.6449 13 33.0292 13C30.1888 13 27.3474 13 24.5069 13C21.6421 13 18.7763 13 15.9114 13C15.3748 13 15.0791 13.2753 15.0791 13.7765C15.0781 16.8985 15.0791 19.5272 15.0762 22.6482C15.0762 22.808 15.1259 22.9165 15.2606 23.0192C18.0981 25.187 20.9307 27.8521 23.7663 30.0229C24.3235 30.4492 24.6767 30.4492 25.2368 30.0199C28.0528 27.864 30.8669 25.2126 33.6859 23.0606C33.8537 22.9323 33.923 22.8011 33.922 22.5968C33.9162 19.5133 33.9181 16.9232 33.9172 13.8397ZM27.8596 23.6487C27.1795 23.6487 26.5882 23.3093 26.2613 22.7468C25.831 23.3231 25.1929 23.6487 24.4757 23.6487C23.1145 23.6487 22.007 22.4686 22.007 21.0181C22.007 19.5676 23.1145 18.3875 24.4757 18.3875C25.0143 18.3875 25.5246 18.5799 25.9218 18.9253V18.5345H27.0371V21.5815C27.0371 22.1834 27.362 22.588 27.846 22.588C28.4988 22.588 28.9203 21.84 28.9203 20.6826C28.9203 18.2957 27.1629 16.563 24.7401 16.563C22.3173 16.563 20.4009 18.426 20.4009 20.8967C20.4009 23.1514 21.9807 24.9393 24.2415 25.2452L24.4103 25.2679L24.0883 26.3908L23.9605 26.3701C21.1844 25.9181 19.2456 23.6734 19.2456 20.9096C19.2456 19.4216 19.8076 18.0441 20.8293 17.0317C21.8499 16.0194 23.2394 15.4609 24.7401 15.4609C26.2408 15.4609 27.5454 15.9848 28.5349 16.936C29.5282 17.8902 30.0746 19.1917 30.0746 20.6007C30.0746 22.4232 29.1837 23.6477 27.8577 23.6477L27.8596 23.6487Z" fill="#9A9A9A"/>
</g>
<defs>
<clipPath id="clip0_2214_309">
<rect width="25" height="24" fill="white" transform="translate(12 13)"/>
</clipPath>
</defs>
</svg>
