<svg width="50" height="50" viewBox="0 0 50 50" fill="none" xmlns="http://www.w3.org/2000/svg">
<rect width="50" height="50" rx="6" fill="#F2F2F2"/>
<g clip-path="url(#clip0_2214_300)">
<path d="M31.7455 35.0002C31.1128 35.0044 30.5241 34.8 29.9329 34.625C26.9039 33.7293 24.2149 32.2229 21.855 30.1371C19.6625 28.1992 17.8888 25.9418 16.609 23.3109C15.9196 21.8954 15.3529 20.4302 15.0602 18.8835C14.8327 17.6774 15.2531 16.6613 16.2673 15.9515C17.0945 15.372 17.8998 14.7126 18.7388 14.149C19.2565 13.8008 20.2216 14.0902 20.5168 14.7521C21.2908 16.2391 22.6061 17.9692 23.1762 19.4966C23.3166 19.8726 23.2667 20.2401 23.0451 20.5799C22.7389 21.0492 21.5936 21.5236 21.2806 21.9887C20.9389 22.495 20.9482 22.9837 21.2832 23.4934C22.6822 25.6213 24.45 27.3775 26.5917 28.7653C27.0967 29.0924 27.5856 29.0992 28.0872 28.7653C28.549 28.4583 29.0219 28.1664 29.4863 27.862C29.8483 27.6239 30.2314 27.5802 30.6332 27.7291C32.1558 28.2934 33.6791 28.8569 35.1966 29.4331C35.935 29.7132 36.2235 30.5307 35.8115 31.1985C35.2778 32.0631 34.7365 32.9244 34.1571 33.7587C33.5827 34.5847 32.7546 34.9817 31.7447 35.0002H31.7455Z" fill="#9A9A9A"/>
<path d="M26.1821 17.8243C26.5086 17.8714 26.8579 17.9513 27.2005 18.0598C28.2324 18.3861 29.1324 18.9328 29.8971 19.6907C30.5941 20.3812 31.1185 21.1852 31.4594 22.1062C31.5922 22.4637 31.6903 22.8295 31.7656 23.2021C31.7808 23.2787 31.7664 23.3132 31.6844 23.3266C31.4433 23.3645 31.2022 23.4057 30.9629 23.4519C30.8724 23.4696 30.8487 23.4242 30.8351 23.3519C30.7683 23.0121 30.6753 22.6798 30.5492 22.3569C30.2219 21.5208 29.7254 20.8017 29.0605 20.1953C28.3246 19.5224 27.4695 19.0733 26.4993 18.8403C26.347 18.8042 26.1931 18.7781 26.0391 18.7495C25.9833 18.7394 25.9486 18.7209 25.9588 18.6528C25.996 18.4013 26.0282 18.149 26.0645 17.8975C26.0713 17.8504 26.0891 17.8066 26.1821 17.8251V17.8243Z" fill="#9A9A9A"/>
<path d="M29.3892 23.3681C29.4036 23.4522 29.3732 23.4724 29.3249 23.48C29.0729 23.522 28.8208 23.5624 28.5687 23.6086C28.4875 23.6238 28.4723 23.5809 28.4588 23.517C28.3759 23.1183 28.227 22.7457 27.9944 22.4101C27.5004 21.6986 26.828 21.2528 25.9703 21.093C25.8586 21.072 25.8256 21.0349 25.8451 20.9214C25.8857 20.6935 25.9119 20.4639 25.9424 20.2342C25.9517 20.1636 25.983 20.14 26.0583 20.1527C26.9718 20.3049 27.7457 20.7179 28.3767 21.3899C28.8961 21.9442 29.2344 22.5951 29.3825 23.3403C29.3858 23.3588 29.3909 23.3773 29.3884 23.3664L29.3892 23.3681Z" fill="#9A9A9A"/>
</g>
<defs>
<clipPath id="clip0_2214_300">
<rect width="21" height="21" fill="white" transform="translate(15 14)"/>
</clipPath>
</defs>
</svg>
