<svg width="50" height="50" viewBox="0 0 50 50" fill="none" xmlns="http://www.w3.org/2000/svg">
<rect width="50" height="50" rx="6" fill="#F2F2F2"/>
<g clip-path="url(#clip0_2214_340)">
<path d="M25 11C17.2683 11 11 17.2683 11 25C11 32.7317 17.2683 39 25 39C32.7317 39 39 32.7317 39 25C39 17.2683 32.7317 11 25 11ZM25 37.7159C17.9769 37.7159 12.2841 32.0231 12.2841 25C12.2841 17.9769 17.9769 12.2841 25 12.2841C32.0231 12.2841 37.7159 17.9769 37.7159 25C37.7159 32.0231 32.0231 37.7159 25 37.7159Z" fill="#9A9A9A"/>
<path d="M24.9993 13.3442C18.5619 13.3442 13.3438 18.5624 13.3438 24.9998C13.3438 31.4372 18.5619 36.6554 24.9993 36.6554C31.4367 36.6554 36.6549 31.4372 36.6549 24.9998C36.6549 18.5624 31.4367 13.3442 24.9993 13.3442ZM30.1219 29.0945L29.4363 29.78C29.3211 29.8953 29.1332 29.8953 29.018 29.78L24.2378 24.9998H24.219V16.6739C24.219 16.5032 24.3573 16.3649 24.528 16.3649H25.4706C25.6413 16.3649 25.7797 16.5032 25.7797 16.6739V24.3347L30.121 28.6761C30.2363 28.7914 30.2363 28.9792 30.121 29.0945H30.1219Z" fill="#9A9A9A"/>
</g>
<defs>
<clipPath id="clip0_2214_340">
<rect width="28" height="28" fill="white" transform="translate(11 11)"/>
</clipPath>
</defs>
</svg>
