<svg width="12" height="14" viewBox="0 0 12 14" fill="none" xmlns="http://www.w3.org/2000/svg">
<path fill-rule="evenodd" clip-rule="evenodd" d="M6.24686 13.9291L6.24857 13.9283L6.25286 13.9256L6.26571 13.9167L6.31629 13.8836C6.35971 13.8548 6.42114 13.8128 6.50057 13.7576C6.65829 13.648 6.882 13.4866 7.149 13.2793C7.84989 12.7357 8.50527 12.1455 9.10971 11.5137C10.5274 10.0258 12 7.90239 12 5.47411C12 4.02353 11.3683 2.63128 10.2437 1.60459C9.6879 1.09642 9.0268 0.693029 8.29849 0.417645C7.57017 0.142261 6.78902 0.000322239 6 0C5.21101 0.000271299 4.42988 0.142149 3.70156 0.417465C2.97325 0.692782 2.31214 1.0961 1.75629 1.6042C0.630729 2.63331 -0.000615818 4.02459 4.5074e-07 5.4745C4.5074e-07 7.90239 1.47257 10.0258 2.89029 11.5137C3.49473 12.1455 4.15011 12.7357 4.851 13.2793C5.11843 13.4866 5.34171 13.648 5.49943 13.7576C5.5768 13.8117 5.65495 13.8649 5.73386 13.9171L5.74757 13.9256L5.75143 13.9283L5.75314 13.9291C5.901 14.0236 6.099 14.0236 6.24686 13.9291ZM8.14286 5.44456C8.14286 5.96027 7.91709 6.45485 7.51523 6.81952C7.11337 7.18418 6.56832 7.38904 6 7.38904C5.43168 7.38904 4.88663 7.18418 4.48477 6.81952C4.08291 6.45485 3.85714 5.96027 3.85714 5.44456C3.85714 4.92885 4.08291 4.43426 4.48477 4.0696C4.88663 3.70494 5.43168 3.50007 6 3.50007C6.56832 3.50007 7.11337 3.70494 7.51523 4.0696C7.91709 4.43426 8.14286 4.92885 8.14286 5.44456Z" fill="#151515"/>
</svg>
