<svg width="228" height="23" viewBox="0 0 228 23" fill="none" xmlns="http://www.w3.org/2000/svg">
<path d="M18.52 17.892L19.222 19.01L14.438 21.948C13.71 22.1733 12.9993 22.3207 12.306 22.39C11.63 22.4767 10.902 22.52 10.122 22.52C8.198 22.52 6.49067 22.078 5 21.194C3.52667 20.31 2.374 19.0967 1.542 17.554C0.727333 15.994 0.32 14.226 0.32 12.25C0.32 10.222 0.935333 8.35 2.166 6.634C3.39667 4.90067 4.93067 3.54 6.768 2.552C8.60533 1.54667 10.356 1.044 12.02 1.044C13.008 1.044 14.1607 1.174 15.478 1.434C16.7953 1.694 17.7573 1.97133 18.364 2.266V7.31H17.376C15.6427 4.58867 13.3547 3.228 10.512 3.228C9.264 3.228 8.12867 3.566 7.106 4.242C6.08333 4.90067 5.27733 5.828 4.688 7.024C4.116 8.20267 3.83 9.52867 3.83 11.002C3.83 12.7007 4.10733 14.252 4.662 15.656C5.234 17.06 6.10067 18.1867 7.262 19.036C8.42333 19.8853 9.862 20.31 11.578 20.31C12.3407 20.31 12.9733 20.284 13.476 20.232C13.9787 20.18 14.5767 20.0153 15.27 19.738V13.602L11.266 12.484L11.786 11.444H20.99V12.25L18.52 14.2V17.892ZM39.3241 22H23.7241V21.194L26.1681 19.27V3.514L23.4641 2.604L23.9841 1.564H39.0641L40.4681 1.096V7.076L39.6881 7.336L36.5941 2.734H29.4181V10.976H33.5001L35.3981 7.648H36.2041V15.552L35.1641 16.072L33.5261 12.146H29.4181V20.83H36.4901L39.9481 15.708L40.7281 15.968V22.468L39.3241 22ZM62.5538 4.32V22.026H61.1238L48.7738 6.4V19.608L51.5038 20.986L50.9838 22.026H44.8998V21.22L47.3438 19.296V4.06L44.6398 2.604L45.1598 1.564H49.0858L61.1238 16.8V3.956L58.4198 2.604L58.9398 1.564H65.0238V2.396L62.5538 4.32ZM85.8765 7.596L85.0965 7.856L81.6385 2.734H78.4665V20.024L81.1965 20.96L80.6765 22H72.7725V21.194L75.2165 19.27V2.734H72.1225L68.6645 7.856L67.8845 7.596V1.096L69.2885 1.564H84.4725L85.8765 1.096V7.596ZM104.857 22H89.2573V21.194L91.7013 19.27V3.514L88.9973 2.604L89.5173 1.564H104.597L106.001 1.096V7.076L105.221 7.336L102.127 2.734H94.9513V10.976H99.0333L100.931 7.648H101.737V15.552L100.697 16.072L99.0593 12.146H94.9513V20.83H102.023L105.481 15.708L106.261 15.968V22.468L104.857 22ZM126.033 22H110.433V21.194L112.877 19.27V3.514L110.173 2.604L110.693 1.564H118.597V2.37L116.127 4.294V20.83H122.835L126.657 15.188L127.437 15.448V22.468L126.033 22ZM155.418 22.026H147.514V21.22L149.958 19.296V4.918L143.016 22.026H141.586L134.696 4.736V19.608L137.426 20.986L136.906 22.026H130.822V21.22L133.266 19.296V4.06L130.562 2.604L131.082 1.564H136.724L143.224 17.892L149.698 1.564H155.678V2.37L153.208 4.294V20.024L155.938 20.986L155.418 22.026ZM174.402 22H158.802V21.194L161.246 19.27V3.514L158.542 2.604L159.062 1.564H174.142L175.546 1.096V7.076L174.766 7.336L171.672 2.734H164.496V10.976H168.578L170.476 7.648H171.282V15.552L170.242 16.072L168.604 12.146H164.496V20.83H171.568L175.026 15.708L175.806 15.968V22.468L174.402 22ZM197.632 4.32V22.026H196.202L183.852 6.4V19.608L186.582 20.986L186.062 22.026H179.978V21.22L182.422 19.296V4.06L179.718 2.604L180.238 1.564H184.164L196.202 16.8V3.956L193.498 2.604L194.018 1.564H200.102V2.396L197.632 4.32ZM203.431 10.82L202.443 10.04C203.327 8.98267 203.959 8.07267 204.341 7.31C204.722 6.53 204.947 5.66333 205.017 4.71L202.989 3.514V2.708L207.435 0.523999L208.423 4.476L203.431 10.82ZM223.818 17.398C223.818 16.8607 223.601 16.358 223.168 15.89C222.734 15.422 222.188 14.9973 221.53 14.616C220.888 14.2173 220.013 13.732 218.904 13.16C217.586 12.4667 216.529 11.8773 215.732 11.392C214.934 10.8893 214.25 10.3 213.678 9.624C213.123 8.948 212.846 8.20267 212.846 7.388C212.846 6.52133 213.21 5.594 213.938 4.606C214.666 3.60067 215.55 2.76 216.59 2.084C217.647 1.39067 218.618 1.044 219.502 1.044C220.576 1.044 221.824 1.174 223.246 1.434C224.667 1.694 225.707 1.97133 226.366 2.266V7.31H225.378C224.528 5.906 223.592 4.814 222.57 4.034C221.564 3.254 220.507 2.864 219.398 2.864C218.41 2.864 217.621 3.176 217.032 3.8C216.46 4.40667 216.174 5.204 216.174 6.192C216.174 6.764 216.39 7.30133 216.824 7.804C217.274 8.28933 217.82 8.72267 218.462 9.104C219.12 9.48533 220.03 9.97933 221.192 10.586C222.474 11.2273 223.514 11.7993 224.312 12.302C225.109 12.7873 225.776 13.3593 226.314 14.018C226.868 14.6593 227.146 15.3873 227.146 16.202C227.146 17.0687 226.756 18.0047 225.976 19.01C225.196 19.998 224.242 20.8387 223.116 21.532C222.006 22.208 220.992 22.546 220.074 22.546C218.947 22.546 217.604 22.416 216.044 22.156C214.501 21.896 213.392 21.6187 212.716 21.324V16.28H213.704C214.588 17.684 215.593 18.776 216.72 19.556C217.846 20.336 219.008 20.726 220.204 20.726C220.914 20.726 221.547 20.57 222.102 20.258C222.656 19.946 223.081 19.5387 223.376 19.036C223.67 18.516 223.818 17.97 223.818 17.398Z" fill="#151515"/>
</svg>
