<svg width="32" height="32" viewBox="0 0 32 32" fill="none" xmlns="http://www.w3.org/2000/svg">
<path d="M24.3379 26.272C25.1087 25.9833 25.773 25.466 26.2418 24.7894C26.7105 24.1128 26.9614 23.3092 26.9609 22.486V20.186H24.3389L24.3379 26.272Z" fill="url(#paint0_radial_274_5959)"/>
<g filter="url(#filter0_ii_274_5959)">
<path d="M6.68437 16.876H5.15137V14.746C5.15137 14.156 4.96137 13.586 4.63137 13.106C4.17253 12.4381 3.90487 11.6575 3.85729 10.8486C3.8097 10.0397 3.984 9.23311 4.36137 8.51601C4.88485 7.52291 5.76867 6.7679 6.83137 6.40601C7.91422 6.02787 8.8375 5.29488 9.45137 4.32601C9.84885 3.69359 10.4007 3.17269 11.0549 2.81232C11.7092 2.45195 12.4444 2.26395 13.1914 2.26601C13.8014 2.26601 14.3914 2.39601 14.9314 2.61601C15.6514 2.92601 16.4714 2.92601 17.1914 2.61601C18.1695 2.20179 19.2638 2.15264 20.2752 2.47751C21.2865 2.80238 22.1475 3.47965 22.7014 4.38601C23.2814 5.34601 24.2114 6.03601 25.2714 6.39601C26.2514 6.72601 27.1114 7.39601 27.6714 8.36601C28.0908 9.09376 28.2948 9.92579 28.2594 10.765C28.224 11.6043 27.9507 12.4162 27.4714 13.106C27.1414 13.586 26.9614 14.166 26.9614 14.746V16.876H25.7094L25.8144 15.186H25.7914L25.8414 13.586C25.8618 12.8663 25.5986 12.1673 25.1085 11.6398C24.6184 11.1123 23.9407 10.7985 23.2214 10.766H20.5714C18.7614 10.766 17.1214 9.71601 16.3714 8.06601C16.1814 7.58601 15.7214 7.27601 15.2114 7.27601H12.7914C11.1363 7.2764 9.54714 7.92493 8.36435 9.08267C7.18156 10.2404 6.49918 11.8153 6.46337 13.47L6.68437 16.876Z" fill="url(#paint1_linear_274_5959)"/>
<path d="M6.68437 16.876H5.15137V14.746C5.15137 14.156 4.96137 13.586 4.63137 13.106C4.17253 12.4381 3.90487 11.6575 3.85729 10.8486C3.8097 10.0397 3.984 9.23311 4.36137 8.51601C4.88485 7.52291 5.76867 6.7679 6.83137 6.40601C7.91422 6.02787 8.8375 5.29488 9.45137 4.32601C9.84885 3.69359 10.4007 3.17269 11.0549 2.81232C11.7092 2.45195 12.4444 2.26395 13.1914 2.26601C13.8014 2.26601 14.3914 2.39601 14.9314 2.61601C15.6514 2.92601 16.4714 2.92601 17.1914 2.61601C18.1695 2.20179 19.2638 2.15264 20.2752 2.47751C21.2865 2.80238 22.1475 3.47965 22.7014 4.38601C23.2814 5.34601 24.2114 6.03601 25.2714 6.39601C26.2514 6.72601 27.1114 7.39601 27.6714 8.36601C28.0908 9.09376 28.2948 9.92579 28.2594 10.765C28.224 11.6043 27.9507 12.4162 27.4714 13.106C27.1414 13.586 26.9614 14.166 26.9614 14.746V16.876H25.7094L25.8144 15.186H25.7914L25.8414 13.586C25.8618 12.8663 25.5986 12.1673 25.1085 11.6398C24.6184 11.1123 23.9407 10.7985 23.2214 10.766H20.5714C18.7614 10.766 17.1214 9.71601 16.3714 8.06601C16.1814 7.58601 15.7214 7.27601 15.2114 7.27601H12.7914C11.1363 7.2764 9.54714 7.92493 8.36435 9.08267C7.18156 10.2404 6.49918 11.8153 6.46337 13.47L6.68437 16.876Z" fill="url(#paint2_radial_274_5959)"/>
<path d="M6.68437 16.876H5.15137V14.746C5.15137 14.156 4.96137 13.586 4.63137 13.106C4.17253 12.4381 3.90487 11.6575 3.85729 10.8486C3.8097 10.0397 3.984 9.23311 4.36137 8.51601C4.88485 7.52291 5.76867 6.7679 6.83137 6.40601C7.91422 6.02787 8.8375 5.29488 9.45137 4.32601C9.84885 3.69359 10.4007 3.17269 11.0549 2.81232C11.7092 2.45195 12.4444 2.26395 13.1914 2.26601C13.8014 2.26601 14.3914 2.39601 14.9314 2.61601C15.6514 2.92601 16.4714 2.92601 17.1914 2.61601C18.1695 2.20179 19.2638 2.15264 20.2752 2.47751C21.2865 2.80238 22.1475 3.47965 22.7014 4.38601C23.2814 5.34601 24.2114 6.03601 25.2714 6.39601C26.2514 6.72601 27.1114 7.39601 27.6714 8.36601C28.0908 9.09376 28.2948 9.92579 28.2594 10.765C28.224 11.6043 27.9507 12.4162 27.4714 13.106C27.1414 13.586 26.9614 14.166 26.9614 14.746V16.876H25.7094L25.8144 15.186H25.7914L25.8414 13.586C25.8618 12.8663 25.5986 12.1673 25.1085 11.6398C24.6184 11.1123 23.9407 10.7985 23.2214 10.766H20.5714C18.7614 10.766 17.1214 9.71601 16.3714 8.06601C16.1814 7.58601 15.7214 7.27601 15.2114 7.27601H12.7914C11.1363 7.2764 9.54714 7.92493 8.36435 9.08267C7.18156 10.2404 6.49918 11.8153 6.46337 13.47L6.68437 16.876Z" fill="url(#paint3_radial_274_5959)"/>
<path d="M6.68437 16.876H5.15137V14.746C5.15137 14.156 4.96137 13.586 4.63137 13.106C4.17253 12.4381 3.90487 11.6575 3.85729 10.8486C3.8097 10.0397 3.984 9.23311 4.36137 8.51601C4.88485 7.52291 5.76867 6.7679 6.83137 6.40601C7.91422 6.02787 8.8375 5.29488 9.45137 4.32601C9.84885 3.69359 10.4007 3.17269 11.0549 2.81232C11.7092 2.45195 12.4444 2.26395 13.1914 2.26601C13.8014 2.26601 14.3914 2.39601 14.9314 2.61601C15.6514 2.92601 16.4714 2.92601 17.1914 2.61601C18.1695 2.20179 19.2638 2.15264 20.2752 2.47751C21.2865 2.80238 22.1475 3.47965 22.7014 4.38601C23.2814 5.34601 24.2114 6.03601 25.2714 6.39601C26.2514 6.72601 27.1114 7.39601 27.6714 8.36601C28.0908 9.09376 28.2948 9.92579 28.2594 10.765C28.224 11.6043 27.9507 12.4162 27.4714 13.106C27.1414 13.586 26.9614 14.166 26.9614 14.746V16.876H25.7094L25.8144 15.186H25.7914L25.8414 13.586C25.8618 12.8663 25.5986 12.1673 25.1085 11.6398C24.6184 11.1123 23.9407 10.7985 23.2214 10.766H20.5714C18.7614 10.766 17.1214 9.71601 16.3714 8.06601C16.1814 7.58601 15.7214 7.27601 15.2114 7.27601H12.7914C11.1363 7.2764 9.54714 7.92493 8.36435 9.08267C7.18156 10.2404 6.49918 11.8153 6.46337 13.47L6.68437 16.876Z" fill="url(#paint4_radial_274_5959)"/>
<path d="M6.68437 16.876H5.15137V14.746C5.15137 14.156 4.96137 13.586 4.63137 13.106C4.17253 12.4381 3.90487 11.6575 3.85729 10.8486C3.8097 10.0397 3.984 9.23311 4.36137 8.51601C4.88485 7.52291 5.76867 6.7679 6.83137 6.40601C7.91422 6.02787 8.8375 5.29488 9.45137 4.32601C9.84885 3.69359 10.4007 3.17269 11.0549 2.81232C11.7092 2.45195 12.4444 2.26395 13.1914 2.26601C13.8014 2.26601 14.3914 2.39601 14.9314 2.61601C15.6514 2.92601 16.4714 2.92601 17.1914 2.61601C18.1695 2.20179 19.2638 2.15264 20.2752 2.47751C21.2865 2.80238 22.1475 3.47965 22.7014 4.38601C23.2814 5.34601 24.2114 6.03601 25.2714 6.39601C26.2514 6.72601 27.1114 7.39601 27.6714 8.36601C28.0908 9.09376 28.2948 9.92579 28.2594 10.765C28.224 11.6043 27.9507 12.4162 27.4714 13.106C27.1414 13.586 26.9614 14.166 26.9614 14.746V16.876H25.7094L25.8144 15.186H25.7914L25.8414 13.586C25.8618 12.8663 25.5986 12.1673 25.1085 11.6398C24.6184 11.1123 23.9407 10.7985 23.2214 10.766H20.5714C18.7614 10.766 17.1214 9.71601 16.3714 8.06601C16.1814 7.58601 15.7214 7.27601 15.2114 7.27601H12.7914C11.1363 7.2764 9.54714 7.92493 8.36435 9.08267C7.18156 10.2404 6.49918 11.8153 6.46337 13.47L6.68437 16.876Z" fill="url(#paint5_radial_274_5959)"/>
</g>
<path d="M9.1204 20.186H5.1504V22.486C5.14855 23.327 5.40981 24.1474 5.89756 24.8324C6.38532 25.5174 7.07515 26.0327 7.8704 26.306L9.1204 26.739V20.186Z" fill="url(#paint6_radial_274_5959)"/>
<g filter="url(#filter1_i_274_5959)">
<path d="M7.16055 21.326C7.56764 21.326 7.97076 21.2458 8.34687 21.09C8.72297 20.9342 9.06472 20.7059 9.35258 20.418C9.64044 20.1301 9.86878 19.7884 10.0246 19.4123C10.1804 19.0362 10.2605 18.6331 10.2605 18.226C10.2605 17.8189 10.1804 17.4158 10.0246 17.0397C9.86878 16.6635 9.64044 16.3218 9.35258 16.0339C9.06472 15.7461 8.72297 15.5177 8.34687 15.3619C7.97076 15.2062 7.56764 15.126 7.16055 15.126C6.33838 15.126 5.54988 15.4526 4.96852 16.0339C4.38715 16.6153 4.06055 17.4038 4.06055 18.226C4.06055 19.0481 4.38715 19.8366 4.96852 20.418C5.54988 20.9994 6.33838 21.326 7.16055 21.326Z" fill="url(#paint7_linear_274_5959)"/>
</g>
<path d="M24.9516 21.326C25.3587 21.326 25.7618 21.2458 26.1379 21.09C26.514 20.9342 26.8557 20.7059 27.1436 20.418C27.4315 20.1301 27.6598 19.7884 27.8156 19.4123C27.9714 19.0362 28.0516 18.6331 28.0516 18.226C28.0516 17.8189 27.9714 17.4158 27.8156 17.0397C27.6598 16.6635 27.4315 16.3218 27.1436 16.0339C26.8557 15.7461 26.514 15.5177 26.1379 15.3619C25.7618 15.2062 25.3587 15.126 24.9516 15.126C24.1294 15.126 23.3409 15.4526 22.7595 16.0339C22.1782 16.6153 21.8516 17.4038 21.8516 18.226C21.8516 19.0481 22.1782 19.8366 22.7595 20.418C23.3409 20.9994 24.1294 21.326 24.9516 21.326Z" fill="url(#paint8_linear_274_5959)"/>
<path d="M24.9516 21.326C25.3587 21.326 25.7618 21.2458 26.1379 21.09C26.514 20.9342 26.8557 20.7059 27.1436 20.418C27.4315 20.1301 27.6598 19.7884 27.8156 19.4123C27.9714 19.0362 28.0516 18.6331 28.0516 18.226C28.0516 17.8189 27.9714 17.4158 27.8156 17.0397C27.6598 16.6635 27.4315 16.3218 27.1436 16.0339C26.8557 15.7461 26.514 15.5177 26.1379 15.3619C25.7618 15.2062 25.3587 15.126 24.9516 15.126C24.1294 15.126 23.3409 15.4526 22.7595 16.0339C22.1782 16.6153 21.8516 17.4038 21.8516 18.226C21.8516 19.0481 22.1782 19.8366 22.7595 20.418C23.3409 20.9994 24.1294 21.326 24.9516 21.326Z" fill="url(#paint9_radial_274_5959)"/>
<path d="M24.9516 21.326C25.3587 21.326 25.7618 21.2458 26.1379 21.09C26.514 20.9342 26.8557 20.7059 27.1436 20.418C27.4315 20.1301 27.6598 19.7884 27.8156 19.4123C27.9714 19.0362 28.0516 18.6331 28.0516 18.226C28.0516 17.8189 27.9714 17.4158 27.8156 17.0397C27.6598 16.6635 27.4315 16.3218 27.1436 16.0339C26.8557 15.7461 26.514 15.5177 26.1379 15.3619C25.7618 15.2062 25.3587 15.126 24.9516 15.126C24.1294 15.126 23.3409 15.4526 22.7595 16.0339C22.1782 16.6153 21.8516 17.4038 21.8516 18.226C21.8516 19.0481 22.1782 19.8366 22.7595 20.418C23.3409 20.9994 24.1294 21.326 24.9516 21.326Z" fill="url(#paint10_radial_274_5959)"/>
<g filter="url(#filter2_f_274_5959)">
<path d="M24.9521 20.1841C25.4714 20.1841 25.9695 19.9778 26.3367 19.6106C26.7039 19.2434 26.9101 18.7454 26.9101 18.2261C26.9101 17.7068 26.7039 17.2087 26.3367 16.8416C25.9695 16.4744 25.4714 16.2681 24.9521 16.2681C24.4328 16.2681 23.9348 16.4744 23.5676 16.8416C23.2004 17.2087 22.9941 17.7068 22.9941 18.2261C22.9941 18.7454 23.2004 19.2434 23.5676 19.6106C23.9348 19.9778 24.4328 20.1841 24.9521 20.1841Z" fill="url(#paint11_radial_274_5959)"/>
</g>
<g filter="url(#filter3_f_274_5959)">
<path d="M7.16117 20.186C7.681 20.186 8.17953 19.9795 8.5471 19.6119C8.91467 19.2443 9.12117 18.7458 9.12117 18.226C9.12117 17.7062 8.91467 17.2076 8.5471 16.8401C8.17953 16.4725 7.681 16.266 7.16117 16.266C6.64135 16.266 6.14281 16.4725 5.77524 16.8401C5.40767 17.2076 5.20117 17.7062 5.20117 18.226C5.20117 18.7458 5.40767 19.2443 5.77524 19.6119C6.14281 19.9795 6.64135 20.186 7.16117 20.186Z" fill="url(#paint12_radial_274_5959)"/>
</g>
<g filter="url(#filter4_i_274_5959)">
<path d="M6.46289 13.4701C6.49871 11.8154 7.18109 10.2405 8.36387 9.08278C9.54666 7.92504 11.1358 7.27652 12.7909 7.27612H15.2109C15.7209 7.27612 16.1809 7.58612 16.3709 8.06612C17.1209 9.71612 18.7609 10.7661 20.5709 10.7661H23.2209C24.7109 10.8361 25.8809 12.0761 25.8409 13.5861L25.7909 15.1861H25.8139L25.1889 23.7461C24.6989 27.4061 21.6709 30.1361 17.9809 30.1361H14.4309C10.7409 30.1361 7.62089 27.4061 7.13089 23.7461L6.46289 13.4701Z" fill="url(#paint13_linear_274_5959)"/>
<path d="M6.46289 13.4701C6.49871 11.8154 7.18109 10.2405 8.36387 9.08278C9.54666 7.92504 11.1358 7.27652 12.7909 7.27612H15.2109C15.7209 7.27612 16.1809 7.58612 16.3709 8.06612C17.1209 9.71612 18.7609 10.7661 20.5709 10.7661H23.2209C24.7109 10.8361 25.8809 12.0761 25.8409 13.5861L25.7909 15.1861H25.8139L25.1889 23.7461C24.6989 27.4061 21.6709 30.1361 17.9809 30.1361H14.4309C10.7409 30.1361 7.62089 27.4061 7.13089 23.7461L6.46289 13.4701Z" fill="url(#paint14_linear_274_5959)"/>
<path d="M6.46289 13.4701C6.49871 11.8154 7.18109 10.2405 8.36387 9.08278C9.54666 7.92504 11.1358 7.27652 12.7909 7.27612H15.2109C15.7209 7.27612 16.1809 7.58612 16.3709 8.06612C17.1209 9.71612 18.7609 10.7661 20.5709 10.7661H23.2209C24.7109 10.8361 25.8809 12.0761 25.8409 13.5861L25.7909 15.1861H25.8139L25.1889 23.7461C24.6989 27.4061 21.6709 30.1361 17.9809 30.1361H14.4309C10.7409 30.1361 7.62089 27.4061 7.13089 23.7461L6.46289 13.4701Z" fill="url(#paint15_radial_274_5959)"/>
<path d="M6.46289 13.4701C6.49871 11.8154 7.18109 10.2405 8.36387 9.08278C9.54666 7.92504 11.1358 7.27652 12.7909 7.27612H15.2109C15.7209 7.27612 16.1809 7.58612 16.3709 8.06612C17.1209 9.71612 18.7609 10.7661 20.5709 10.7661H23.2209C24.7109 10.8361 25.8809 12.0761 25.8409 13.5861L25.7909 15.1861H25.8139L25.1889 23.7461C24.6989 27.4061 21.6709 30.1361 17.9809 30.1361H14.4309C10.7409 30.1361 7.62089 27.4061 7.13089 23.7461L6.46289 13.4701Z" fill="url(#paint16_radial_274_5959)"/>
<path d="M6.46289 13.4701C6.49871 11.8154 7.18109 10.2405 8.36387 9.08278C9.54666 7.92504 11.1358 7.27652 12.7909 7.27612H15.2109C15.7209 7.27612 16.1809 7.58612 16.3709 8.06612C17.1209 9.71612 18.7609 10.7661 20.5709 10.7661H23.2209C24.7109 10.8361 25.8809 12.0761 25.8409 13.5861L25.7909 15.1861H25.8139L25.1889 23.7461C24.6989 27.4061 21.6709 30.1361 17.9809 30.1361H14.4309C10.7409 30.1361 7.62089 27.4061 7.13089 23.7461L6.46289 13.4701Z" fill="url(#paint17_radial_274_5959)"/>
<path d="M6.46289 13.4701C6.49871 11.8154 7.18109 10.2405 8.36387 9.08278C9.54666 7.92504 11.1358 7.27652 12.7909 7.27612H15.2109C15.7209 7.27612 16.1809 7.58612 16.3709 8.06612C17.1209 9.71612 18.7609 10.7661 20.5709 10.7661H23.2209C24.7109 10.8361 25.8809 12.0761 25.8409 13.5861L25.7909 15.1861H25.8139L25.1889 23.7461C24.6989 27.4061 21.6709 30.1361 17.9809 30.1361H14.4309C10.7409 30.1361 7.62089 27.4061 7.13089 23.7461L6.46289 13.4701Z" fill="url(#paint18_radial_274_5959)"/>
<path d="M6.46289 13.4701C6.49871 11.8154 7.18109 10.2405 8.36387 9.08278C9.54666 7.92504 11.1358 7.27652 12.7909 7.27612H15.2109C15.7209 7.27612 16.1809 7.58612 16.3709 8.06612C17.1209 9.71612 18.7609 10.7661 20.5709 10.7661H23.2209C24.7109 10.8361 25.8809 12.0761 25.8409 13.5861L25.7909 15.1861H25.8139L25.1889 23.7461C24.6989 27.4061 21.6709 30.1361 17.9809 30.1361H14.4309C10.7409 30.1361 7.62089 27.4061 7.13089 23.7461L6.46289 13.4701Z" fill="url(#paint19_radial_274_5959)"/>
<path d="M6.46289 13.4701C6.49871 11.8154 7.18109 10.2405 8.36387 9.08278C9.54666 7.92504 11.1358 7.27652 12.7909 7.27612H15.2109C15.7209 7.27612 16.1809 7.58612 16.3709 8.06612C17.1209 9.71612 18.7609 10.7661 20.5709 10.7661H23.2209C24.7109 10.8361 25.8809 12.0761 25.8409 13.5861L25.7909 15.1861H25.8139L25.1889 23.7461C24.6989 27.4061 21.6709 30.1361 17.9809 30.1361H14.4309C10.7409 30.1361 7.62089 27.4061 7.13089 23.7461L6.46289 13.4701Z" fill="url(#paint20_radial_274_5959)"/>
<path d="M6.46289 13.4701C6.49871 11.8154 7.18109 10.2405 8.36387 9.08278C9.54666 7.92504 11.1358 7.27652 12.7909 7.27612H15.2109C15.7209 7.27612 16.1809 7.58612 16.3709 8.06612C17.1209 9.71612 18.7609 10.7661 20.5709 10.7661H23.2209C24.7109 10.8361 25.8809 12.0761 25.8409 13.5861L25.7909 15.1861H25.8139L25.1889 23.7461C24.6989 27.4061 21.6709 30.1361 17.9809 30.1361H14.4309C10.7409 30.1361 7.62089 27.4061 7.13089 23.7461L6.46289 13.4701Z" fill="url(#paint21_radial_274_5959)"/>
<path d="M6.46289 13.4701C6.49871 11.8154 7.18109 10.2405 8.36387 9.08278C9.54666 7.92504 11.1358 7.27652 12.7909 7.27612H15.2109C15.7209 7.27612 16.1809 7.58612 16.3709 8.06612C17.1209 9.71612 18.7609 10.7661 20.5709 10.7661H23.2209C24.7109 10.8361 25.8809 12.0761 25.8409 13.5861L25.7909 15.1861H25.8139L25.1889 23.7461C24.6989 27.4061 21.6709 30.1361 17.9809 30.1361H14.4309C10.7409 30.1361 7.62089 27.4061 7.13089 23.7461L6.46289 13.4701Z" fill="url(#paint22_radial_274_5959)"/>
</g>
<g filter="url(#filter5_f_274_5959)">
<path d="M15.3933 18.086L14.1503 21.118C13.8963 21.738 14.3063 22.431 14.9603 22.494L16.3573 22.628C17.0113 22.691 17.5453 22.088 17.4143 21.431L16.7703 18.218C16.6243 17.511 15.6623 17.418 15.3933 18.086Z" fill="#603734"/>
</g>
<g filter="url(#filter6_f_274_5959)">
<path d="M19.1123 23.89C19.3003 23.6 18.9693 23.243 18.6673 23.401C17.8773 23.814 16.9773 24.046 15.9913 24.046C15.0679 24.0534 14.1571 23.8318 13.3403 23.401H13.3383C13.2709 23.3661 13.1939 23.3542 13.1192 23.3672C13.0444 23.3802 12.9759 23.4174 12.9243 23.473C12.8719 23.5283 12.8403 23.6001 12.8348 23.6761C12.8294 23.7521 12.8504 23.8277 12.8943 23.89C13.2294 24.4097 13.6897 24.8369 14.2329 25.1324C14.7761 25.4279 15.3849 25.5821 16.0033 25.581C17.3093 25.581 18.4533 24.909 19.1133 23.89H19.1123ZM19.1123 23.89L19.0703 23.863" stroke="url(#paint23_linear_274_5959)" stroke-width="0.1"/>
</g>
<path d="M15.9894 24.0961C15.0581 24.1037 14.1393 23.8804 13.3154 23.4461C13.0454 23.3101 12.7634 23.6051 12.9354 23.8621C13.2659 24.3749 13.7199 24.7966 14.2558 25.0882C14.7917 25.3798 15.3923 25.5321 16.0024 25.5311C16.6125 25.5323 17.213 25.3802 17.749 25.0888C18.2849 24.7973 18.7389 24.3758 19.0694 23.8631C19.2294 23.6171 18.9474 23.3101 18.6894 23.4451C17.8558 23.8783 16.9289 24.1014 15.9894 24.0951" fill="url(#paint24_radial_274_5959)"/>
<g filter="url(#filter7_i_274_5959)">
<path d="M22.8093 13.2059C22.4823 12.9209 22.1023 12.6199 21.5273 12.4389C20.9603 12.2599 20.2493 12.2119 19.2673 12.3319C19.1311 12.3485 19.0071 12.4185 18.9225 12.5265C18.8379 12.6346 18.7997 12.7718 18.8163 12.9079C18.8329 13.0441 18.9029 13.1682 19.0109 13.2527C19.1189 13.3373 19.2561 13.3755 19.3923 13.3589C20.2893 13.2489 20.8393 13.3059 21.2163 13.4249C21.5863 13.5409 21.8363 13.7299 22.1293 13.9849C22.2327 14.0751 22.3677 14.1205 22.5046 14.1111C22.5724 14.1065 22.6386 14.0885 22.6995 14.0583C22.7603 14.0281 22.8146 13.9862 22.8593 13.9349C22.9039 13.8837 22.9381 13.8242 22.9597 13.7598C22.9814 13.6954 22.9901 13.6274 22.9855 13.5596C22.9808 13.4918 22.9629 13.4256 22.9327 13.3647C22.9024 13.3039 22.8605 13.2496 22.8093 13.2049" fill="#2E201F"/>
</g>
<g filter="url(#filter8_i_274_5959)">
<path d="M9.48938 13.002C10.4674 12.4295 11.6065 12.1941 12.7314 12.332C12.7988 12.3403 12.864 12.3617 12.9231 12.3951C12.9823 12.4284 13.0343 12.4732 13.0762 12.5266C13.1181 12.5801 13.149 12.6413 13.1672 12.7068C13.1854 12.7722 13.1906 12.8406 13.1824 12.908C13.1742 12.9755 13.1528 13.0406 13.1194 13.0998C13.086 13.159 13.0413 13.211 12.9878 13.2528C12.9343 13.2947 12.8731 13.3257 12.8076 13.3439C12.7422 13.3621 12.6738 13.3673 12.6064 13.359C11.71 13.2489 10.8021 13.435 10.0214 13.889C9.96296 13.9242 9.90591 13.9615 9.85038 14.001L9.84538 14.005C9.73691 14.089 9.59953 14.1264 9.46347 14.1091C9.32741 14.0917 9.20382 14.021 9.11988 13.9125C9.03594 13.8041 8.99853 13.6667 9.01587 13.5306C9.03322 13.3946 9.10391 13.271 9.21238 13.187L9.48938 13.002Z" fill="#2E201F"/>
</g>
<g filter="url(#filter9_if_274_5959)">
<path d="M16.3196 8.15693C16.276 8.0732 16.235 7.98817 16.1966 7.90193C16.1052 7.67226 15.947 7.47522 15.7426 7.33621C15.5382 7.19719 15.2968 7.12256 15.0496 7.12193H12.6766C9.23463 7.12193 6.44663 9.94193 6.44663 13.4219V13.9349C5.81263 13.4529 5.01562 12.4349 5.01562 10.7879C5.01562 8.78993 6.47263 7.77993 7.40263 7.13493C7.66463 6.95293 7.88563 6.80093 8.01863 6.66293C8.07563 6.60493 8.13763 6.53893 8.20463 6.46793C8.85663 5.77693 10.0176 4.54493 12.0446 4.00693C13.3436 3.66193 14.6646 3.65893 15.5566 3.73793C16.0266 3.78093 16.3586 4.18893 16.3586 4.66193V8.13193L16.3196 8.15693Z" fill="#2D171F"/>
<path d="M16.3196 8.15693C16.276 8.0732 16.235 7.98817 16.1966 7.90193C16.1052 7.67226 15.947 7.47522 15.7426 7.33621C15.5382 7.19719 15.2968 7.12256 15.0496 7.12193H12.6766C9.23463 7.12193 6.44663 9.94193 6.44663 13.4219V13.9349C5.81263 13.4529 5.01562 12.4349 5.01562 10.7879C5.01562 8.78993 6.47263 7.77993 7.40263 7.13493C7.66463 6.95293 7.88563 6.80093 8.01863 6.66293C8.07563 6.60493 8.13763 6.53893 8.20463 6.46793C8.85663 5.77693 10.0176 4.54493 12.0446 4.00693C13.3436 3.66193 14.6646 3.65893 15.5566 3.73793C16.0266 3.78093 16.3586 4.18893 16.3586 4.66193V8.13193L16.3196 8.15693Z" fill="url(#paint25_radial_274_5959)"/>
<path d="M16.3196 8.15693C16.276 8.0732 16.235 7.98817 16.1966 7.90193C16.1052 7.67226 15.947 7.47522 15.7426 7.33621C15.5382 7.19719 15.2968 7.12256 15.0496 7.12193H12.6766C9.23463 7.12193 6.44663 9.94193 6.44663 13.4219V13.9349C5.81263 13.4529 5.01562 12.4349 5.01562 10.7879C5.01562 8.78993 6.47263 7.77993 7.40263 7.13493C7.66463 6.95293 7.88563 6.80093 8.01863 6.66293C8.07563 6.60493 8.13763 6.53893 8.20463 6.46793C8.85663 5.77693 10.0176 4.54493 12.0446 4.00693C13.3436 3.66193 14.6646 3.65893 15.5566 3.73793C16.0266 3.78093 16.3586 4.18893 16.3586 4.66193V8.13193L16.3196 8.15693Z" fill="url(#paint26_radial_274_5959)"/>
</g>
<g filter="url(#filter10_f_274_5959)">
<path d="M25.9556 14.283L25.9006 13.106C25.8806 11.683 24.7046 10.508 23.2806 10.448H20.6706C19.8605 10.448 19.0652 10.23 18.3683 9.81691C17.6714 9.40379 17.0985 8.81076 16.7096 8.10001C16.7096 8.10001 16.3276 7.21501 16.2436 5.92001C16.1776 4.92001 17.0836 4.20201 18.0776 4.33401C20.1436 4.60701 23.0116 5.25201 24.9826 6.53801C28.2356 8.65901 27.6656 12.483 25.9536 14.283" fill="#2D171F"/>
<path d="M25.9556 14.283L25.9006 13.106C25.8806 11.683 24.7046 10.508 23.2806 10.448H20.6706C19.8605 10.448 19.0652 10.23 18.3683 9.81691C17.6714 9.40379 17.0985 8.81076 16.7096 8.10001C16.7096 8.10001 16.3276 7.21501 16.2436 5.92001C16.1776 4.92001 17.0836 4.20201 18.0776 4.33401C20.1436 4.60701 23.0116 5.25201 24.9826 6.53801C28.2356 8.65901 27.6656 12.483 25.9536 14.283" fill="url(#paint27_radial_274_5959)"/>
<path d="M25.9556 14.283L25.9006 13.106C25.8806 11.683 24.7046 10.508 23.2806 10.448H20.6706C19.8605 10.448 19.0652 10.23 18.3683 9.81691C17.6714 9.40379 17.0985 8.81076 16.7096 8.10001C16.7096 8.10001 16.3276 7.21501 16.2436 5.92001C16.1776 4.92001 17.0836 4.20201 18.0776 4.33401C20.1436 4.60701 23.0116 5.25201 24.9826 6.53801C28.2356 8.65901 27.6656 12.483 25.9536 14.283" fill="url(#paint28_radial_274_5959)"/>
<path d="M25.9556 14.283L25.9006 13.106C25.8806 11.683 24.7046 10.508 23.2806 10.448H20.6706C19.8605 10.448 19.0652 10.23 18.3683 9.81691C17.6714 9.40379 17.0985 8.81076 16.7096 8.10001C16.7096 8.10001 16.3276 7.21501 16.2436 5.92001C16.1776 4.92001 17.0836 4.20201 18.0776 4.33401C20.1436 4.60701 23.0116 5.25201 24.9826 6.53801C28.2356 8.65901 27.6656 12.483 25.9536 14.283" fill="url(#paint29_radial_274_5959)"/>
</g>
<g filter="url(#filter11_f_274_5959)">
<path d="M15.3572 17.703L14.3772 20.896C14.1772 21.549 14.6672 22.211 15.3472 22.211H16.7972C17.4772 22.211 17.9672 21.549 17.7672 20.896L16.7872 17.703C16.5672 17 15.5672 17 15.3572 17.703Z" fill="#835A51"/>
<path d="M15.3572 17.703L14.3772 20.896C14.1772 21.549 14.6672 22.211 15.3472 22.211H16.7972C17.4772 22.211 17.9672 21.549 17.7672 20.896L16.7872 17.703C16.5672 17 15.5672 17 15.3572 17.703Z" fill="url(#paint30_radial_274_5959)"/>
<path d="M15.3572 17.703L14.3772 20.896C14.1772 21.549 14.6672 22.211 15.3472 22.211H16.7972C17.4772 22.211 17.9672 21.549 17.7672 20.896L16.7872 17.703C16.5672 17 15.5672 17 15.3572 17.703Z" fill="url(#paint31_linear_274_5959)"/>
<path d="M15.3572 17.703L14.3772 20.896C14.1772 21.549 14.6672 22.211 15.3472 22.211H16.7972C17.4772 22.211 17.9672 21.549 17.7672 20.896L16.7872 17.703C16.5672 17 15.5672 17 15.3572 17.703Z" fill="url(#paint32_linear_274_5959)"/>
<path d="M15.3572 17.703L14.3772 20.896C14.1772 21.549 14.6672 22.211 15.3472 22.211H16.7972C17.4772 22.211 17.9672 21.549 17.7672 20.896L16.7872 17.703C16.5672 17 15.5672 17 15.3572 17.703Z" fill="url(#paint33_linear_274_5959)"/>
<path d="M15.3572 17.703L14.3772 20.896C14.1772 21.549 14.6672 22.211 15.3472 22.211H16.7972C17.4772 22.211 17.9672 21.549 17.7672 20.896L16.7872 17.703C16.5672 17 15.5672 17 15.3572 17.703Z" fill="url(#paint34_radial_274_5959)"/>
</g>
<path d="M20.6547 15.697C21.8727 15.697 22.9007 16.537 23.1807 17.671C23.1997 17.7467 23.201 17.8257 23.1847 17.902C23.1684 17.9783 23.1348 18.0499 23.0865 18.1112C23.0382 18.1725 22.9766 18.2219 22.9062 18.2557C22.8359 18.2895 22.7588 18.3067 22.6807 18.306H18.5217C18.4588 18.306 18.3965 18.2922 18.3395 18.2655C18.2825 18.2388 18.232 18.1999 18.1916 18.1515C18.1513 18.1031 18.122 18.0465 18.106 17.9856C18.0899 17.9247 18.0875 17.861 18.0987 17.799C18.2155 17.2069 18.5341 16.6736 19.0003 16.2902C19.4664 15.9069 20.0512 15.6972 20.6547 15.697Z" fill="white"/>
<path d="M20.2697 16.2031C20.5254 16.2034 20.7777 16.2627 21.0069 16.3764C21.236 16.49 21.4359 16.655 21.591 16.8584C21.7461 17.0618 21.8521 17.2983 21.901 17.5493C21.9498 17.8004 21.9401 18.0594 21.8727 18.3061H18.6577C18.6187 18.163 18.5985 18.0154 18.5977 17.8671C18.5992 17.4251 18.776 17.0017 19.0893 16.6898C19.4025 16.3779 19.8266 16.2029 20.2687 16.2031" fill="url(#paint35_radial_274_5959)"/>
<path d="M19.3145 17.8671C19.3145 17.3371 19.7385 16.9141 20.2675 16.9141C20.7975 16.9141 21.2205 17.3381 21.2205 17.8671C21.2214 18.0198 21.185 18.1705 21.1145 18.3061H19.4285C19.352 18.1725 19.3126 18.021 19.3145 17.8671Z" fill="black"/>
<g filter="url(#filter12_f_274_5959)">
<path d="M20.1462 16.555C20.2642 16.714 20.0162 16.907 19.7352 17.118C19.4532 17.328 19.2452 17.477 19.1252 17.318C19.0072 17.159 19.1392 16.86 19.4212 16.649C19.7032 16.439 20.0272 16.397 20.1462 16.555Z" fill="#C7A7A3"/>
<path d="M20.1462 16.555C20.2642 16.714 20.0162 16.907 19.7352 17.118C19.4532 17.328 19.2452 17.477 19.1252 17.318C19.0072 17.159 19.1392 16.86 19.4212 16.649C19.7032 16.439 20.0272 16.397 20.1462 16.555Z" fill="url(#paint36_radial_274_5959)"/>
</g>
<g filter="url(#filter13_f_274_5959)">
<path d="M21.75 17.6479C21.7005 17.3224 21.5497 17.0208 21.319 16.7859L20.834 17.3169L21.054 17.7429L21.75 17.6479Z" fill="url(#paint37_linear_274_5959)"/>
</g>
<path d="M11.5328 15.6721C10.9418 15.6722 10.3678 15.8699 9.90211 16.2337C9.43642 16.5976 9.10577 17.1067 8.96277 17.6801C8.94355 17.7571 8.94218 17.8374 8.95878 17.9149C8.97537 17.9925 9.00949 18.0652 9.05851 18.1276C9.10754 18.1899 9.17017 18.2402 9.24163 18.2746C9.31308 18.309 9.39146 18.3267 9.47076 18.3261H13.7028C13.9728 18.3261 14.1878 18.0801 14.1328 17.8111C14.0131 17.2092 13.6888 16.6672 13.2148 16.2773C12.7408 15.8873 12.1465 15.6735 11.5328 15.6721Z" fill="white"/>
<path d="M11.9249 16.188C11.6648 16.1884 11.4083 16.2487 11.1753 16.3642C10.9423 16.4797 10.7391 16.6474 10.5813 16.8541C10.4236 17.0609 10.3156 17.3013 10.2658 17.5565C10.2159 17.8118 10.2255 18.0751 10.2939 18.326H13.5639C13.6019 18.18 13.6249 18.034 13.6249 17.88C13.6217 17.4308 13.4414 17.0011 13.123 16.6842C12.8047 16.3674 12.3741 16.189 11.9249 16.188Z" fill="url(#paint38_radial_274_5959)"/>
<path d="M12.8941 17.8799C12.8941 17.3419 12.4641 16.9099 11.9241 16.9099C11.7966 16.9095 11.6704 16.9343 11.5526 16.983C11.4348 17.0316 11.3277 17.103 11.2377 17.1932C11.1476 17.2834 11.0762 17.3905 11.0278 17.5083C10.9793 17.6262 10.9546 17.7525 10.9551 17.8799C10.9551 18.0419 10.9941 18.1959 11.0631 18.3259H12.7791C12.853 18.1888 12.8925 18.0357 12.8941 17.8799Z" fill="black"/>
<g filter="url(#filter14_f_274_5959)">
<path d="M13.4714 17.681C13.4714 17.134 13.0264 16.77 12.9064 16.66L12.3594 17.188L12.6964 17.874L13.4714 17.681Z" fill="url(#paint39_linear_274_5959)"/>
</g>
<g filter="url(#filter15_f_274_5959)">
<path d="M11.5891 17.2413C11.9498 17.0502 12.1638 16.7474 12.0671 16.5648C11.9704 16.3823 11.5996 16.3892 11.239 16.5803C10.8783 16.7714 10.6643 17.0742 10.761 17.2568C10.8577 17.4393 11.2285 17.4323 11.5891 17.2413Z" fill="#C7A7A3" fill-opacity="0.9"/>
<path d="M11.5891 17.2413C11.9498 17.0502 12.1638 16.7474 12.0671 16.5648C11.9704 16.3823 11.5996 16.3892 11.239 16.5803C10.8783 16.7714 10.6643 17.0742 10.761 17.2568C10.8577 17.4393 11.2285 17.4323 11.5891 17.2413Z" fill="url(#paint40_radial_274_5959)"/>
</g>
<g filter="url(#filter16_ii_274_5959)">
<path fill-rule="evenodd" clip-rule="evenodd" d="M6.41935 13.9401C6.407 13.9402 6.39481 13.9428 6.38353 13.9478C6.37224 13.9528 6.36211 13.9601 6.35376 13.9692C6.34541 13.9783 6.33903 13.989 6.335 14.0007C6.33097 14.0124 6.32939 14.0248 6.33035 14.0371L7.13135 23.7461C7.29196 24.9538 7.75038 26.1026 8.46535 27.0891C9.00535 27.9061 9.73735 28.5041 10.5554 29.0341C11.6079 29.6868 12.8085 30.0625 14.0454 30.1261H18.0814C18.3044 30.1261 18.5244 30.1161 18.7384 30.0971C19.6793 30.0011 20.5927 29.724 21.4284 29.2811C22.9884 28.4321 24.1384 27.0531 24.7584 25.6551C24.9844 25.1251 25.1504 24.5611 25.2484 23.9721C25.2578 23.8969 25.2655 23.8216 25.2714 23.7461L25.3254 23.0511L26.1154 14.1351C26.1182 14.094 26.106 14.0533 26.0812 14.0206C26.0563 13.9878 26.0204 13.9652 25.9801 13.9569C25.9398 13.9486 25.8978 13.9552 25.862 13.9754C25.8262 13.9957 25.799 14.0282 25.7854 14.0671L22.7214 23.4361C22.5714 23.8661 22.0314 24.0061 21.7014 23.7061L20.9514 23.0361C20.3314 22.4761 19.5214 22.1761 18.6814 22.1761H13.6514C12.8114 22.1761 12.0114 22.4861 11.3814 23.0361L10.6314 23.7061C10.2914 24.0061 9.75135 23.8661 9.61135 23.4361L6.50435 14.0021C6.49848 13.9841 6.48711 13.9685 6.47185 13.9573C6.4566 13.9462 6.43823 13.9402 6.41935 13.9401ZM12.5884 25.8601V24.0781C12.5884 23.6081 12.9684 23.2281 13.4384 23.2281H18.5034C18.9734 23.2281 19.3534 23.6081 19.3534 24.0781V25.8611C19.3534 26.7811 18.2894 27.5211 17.3694 27.5211C17.1794 27.5211 17.0294 27.3711 17.0294 27.1811V26.8581C17.0294 26.3481 16.5614 25.9381 16.0514 25.9381C15.5414 25.9381 15.1354 26.3481 15.1354 26.8581V27.1811C15.1354 27.3711 14.9854 27.5211 14.7954 27.5211C13.8754 27.5211 12.5884 26.7801 12.5884 25.8601Z" fill="url(#paint41_linear_274_5959)"/>
<path fill-rule="evenodd" clip-rule="evenodd" d="M6.41935 13.9401C6.407 13.9402 6.39481 13.9428 6.38353 13.9478C6.37224 13.9528 6.36211 13.9601 6.35376 13.9692C6.34541 13.9783 6.33903 13.989 6.335 14.0007C6.33097 14.0124 6.32939 14.0248 6.33035 14.0371L7.13135 23.7461C7.29196 24.9538 7.75038 26.1026 8.46535 27.0891C9.00535 27.9061 9.73735 28.5041 10.5554 29.0341C11.6079 29.6868 12.8085 30.0625 14.0454 30.1261H18.0814C18.3044 30.1261 18.5244 30.1161 18.7384 30.0971C19.6793 30.0011 20.5927 29.724 21.4284 29.2811C22.9884 28.4321 24.1384 27.0531 24.7584 25.6551C24.9844 25.1251 25.1504 24.5611 25.2484 23.9721C25.2578 23.8969 25.2655 23.8216 25.2714 23.7461L25.3254 23.0511L26.1154 14.1351C26.1182 14.094 26.106 14.0533 26.0812 14.0206C26.0563 13.9878 26.0204 13.9652 25.9801 13.9569C25.9398 13.9486 25.8978 13.9552 25.862 13.9754C25.8262 13.9957 25.799 14.0282 25.7854 14.0671L22.7214 23.4361C22.5714 23.8661 22.0314 24.0061 21.7014 23.7061L20.9514 23.0361C20.3314 22.4761 19.5214 22.1761 18.6814 22.1761H13.6514C12.8114 22.1761 12.0114 22.4861 11.3814 23.0361L10.6314 23.7061C10.2914 24.0061 9.75135 23.8661 9.61135 23.4361L6.50435 14.0021C6.49848 13.9841 6.48711 13.9685 6.47185 13.9573C6.4566 13.9462 6.43823 13.9402 6.41935 13.9401ZM12.5884 25.8601V24.0781C12.5884 23.6081 12.9684 23.2281 13.4384 23.2281H18.5034C18.9734 23.2281 19.3534 23.6081 19.3534 24.0781V25.8611C19.3534 26.7811 18.2894 27.5211 17.3694 27.5211C17.1794 27.5211 17.0294 27.3711 17.0294 27.1811V26.8581C17.0294 26.3481 16.5614 25.9381 16.0514 25.9381C15.5414 25.9381 15.1354 26.3481 15.1354 26.8581V27.1811C15.1354 27.3711 14.9854 27.5211 14.7954 27.5211C13.8754 27.5211 12.5884 26.7801 12.5884 25.8601Z" fill="url(#paint42_radial_274_5959)"/>
</g>
<path fill-rule="evenodd" clip-rule="evenodd" d="M6.41935 13.9401C6.407 13.9402 6.39481 13.9428 6.38353 13.9478C6.37224 13.9528 6.36211 13.9601 6.35376 13.9692C6.34541 13.9783 6.33903 13.989 6.335 14.0007C6.33097 14.0124 6.32939 14.0248 6.33035 14.0371L7.13135 23.7461C7.29196 24.9538 7.75038 26.1026 8.46535 27.0891C9.04632 27.8516 9.75313 28.5093 10.5554 29.0341C11.6079 29.6868 12.8085 30.0625 14.0454 30.1261H18.0814C18.3044 30.1261 18.5244 30.1161 18.7384 30.0971C19.6793 30.0011 20.5927 29.724 21.4284 29.2811C22.9884 28.4321 24.1384 27.0531 24.7584 25.6551C24.9844 25.1251 25.1504 24.5611 25.2484 23.9721C25.2578 23.8969 25.2655 23.8216 25.2714 23.7461L25.3254 23.0511L26.1154 14.1351C26.1182 14.094 26.106 14.0533 26.0812 14.0206C26.0563 13.9878 26.0204 13.9652 25.9801 13.9569C25.9398 13.9486 25.8978 13.9552 25.862 13.9754C25.8262 13.9957 25.799 14.0282 25.7854 14.0671L22.7214 23.4361C22.5714 23.8661 22.0314 24.0061 21.7014 23.7061L20.9514 23.0361C20.3314 22.4761 19.5214 22.1761 18.6814 22.1761H13.6514C12.8114 22.1761 12.0114 22.4861 11.3814 23.0361L10.6314 23.7061C10.2914 24.0061 9.75135 23.8661 9.61135 23.4361L6.50435 14.0021C6.49848 13.9841 6.48711 13.9685 6.47185 13.9573C6.4566 13.9462 6.43823 13.9402 6.41935 13.9401ZM12.5884 25.8601V24.0781C12.5884 23.6081 12.9684 23.2281 13.4384 23.2281H18.5034C18.9734 23.2281 19.3534 23.6081 19.3534 24.0781V25.8611C19.3534 26.7811 18.2894 27.5211 17.3694 27.5211C17.1794 27.5211 17.0294 27.3711 17.0294 27.1811V26.8581C17.0294 26.3481 16.5614 25.9381 16.0514 25.9381C15.5414 25.9381 15.1354 26.3481 15.1354 26.8581V27.1811C15.1354 27.3711 14.9854 27.5211 14.7954 27.5211C13.8754 27.5211 12.5884 26.7801 12.5884 25.8601Z" fill="url(#paint43_radial_274_5959)"/>
<path fill-rule="evenodd" clip-rule="evenodd" d="M6.41935 13.9401C6.407 13.9402 6.39481 13.9428 6.38353 13.9478C6.37224 13.9528 6.36211 13.9601 6.35376 13.9692C6.34541 13.9783 6.33903 13.989 6.335 14.0007C6.33097 14.0124 6.32939 14.0248 6.33035 14.0371L7.13135 23.7461C7.29196 24.9538 7.75038 26.1026 8.46535 27.0891C9.04632 27.8516 9.75313 28.5093 10.5554 29.0341C11.6079 29.6868 12.8085 30.0625 14.0454 30.1261H18.0814C18.3044 30.1261 18.5244 30.1161 18.7384 30.0971C19.6793 30.0011 20.5927 29.724 21.4284 29.2811C22.9884 28.4321 24.1384 27.0531 24.7584 25.6551C24.9844 25.1251 25.1504 24.5611 25.2484 23.9721C25.2578 23.8969 25.2655 23.8216 25.2714 23.7461L25.3254 23.0511L26.1154 14.1351C26.1182 14.094 26.106 14.0533 26.0812 14.0206C26.0563 13.9878 26.0204 13.9652 25.9801 13.9569C25.9398 13.9486 25.8978 13.9552 25.862 13.9754C25.8262 13.9957 25.799 14.0282 25.7854 14.0671L22.7214 23.4361C22.5714 23.8661 22.0314 24.0061 21.7014 23.7061L20.9514 23.0361C20.3314 22.4761 19.5214 22.1761 18.6814 22.1761H13.6514C12.8114 22.1761 12.0114 22.4861 11.3814 23.0361L10.6314 23.7061C10.2914 24.0061 9.75135 23.8661 9.61135 23.4361L6.50435 14.0021C6.49848 13.9841 6.48711 13.9685 6.47185 13.9573C6.4566 13.9462 6.43823 13.9402 6.41935 13.9401ZM12.5884 25.8601V24.0781C12.5884 23.6081 12.9684 23.2281 13.4384 23.2281H18.5034C18.9734 23.2281 19.3534 23.6081 19.3534 24.0781V25.8611C19.3534 26.7811 18.2894 27.5211 17.3694 27.5211C17.1794 27.5211 17.0294 27.3711 17.0294 27.1811V26.8581C17.0294 26.3481 16.5614 25.9381 16.0514 25.9381C15.5414 25.9381 15.1354 26.3481 15.1354 26.8581V27.1811C15.1354 27.3711 14.9854 27.5211 14.7954 27.5211C13.8754 27.5211 12.5884 26.7801 12.5884 25.8601Z" fill="url(#paint44_radial_274_5959)"/>
<path fill-rule="evenodd" clip-rule="evenodd" d="M6.41935 13.9401C6.407 13.9402 6.39481 13.9428 6.38353 13.9478C6.37224 13.9528 6.36211 13.9601 6.35376 13.9692C6.34541 13.9783 6.33903 13.989 6.335 14.0007C6.33097 14.0124 6.32939 14.0248 6.33035 14.0371L7.13135 23.7461C7.29196 24.9538 7.75038 26.1026 8.46535 27.0891C9.04632 27.8516 9.75313 28.5093 10.5554 29.0341C11.6079 29.6868 12.8085 30.0625 14.0454 30.1261H18.0814C18.3044 30.1261 18.5244 30.1161 18.7384 30.0971C19.6793 30.0011 20.5927 29.724 21.4284 29.2811C22.9884 28.4321 24.1384 27.0531 24.7584 25.6551C24.9844 25.1251 25.1504 24.5611 25.2484 23.9721C25.2578 23.8969 25.2655 23.8216 25.2714 23.7461L25.3254 23.0511L26.1154 14.1351C26.1182 14.094 26.106 14.0533 26.0812 14.0206C26.0563 13.9878 26.0204 13.9652 25.9801 13.9569C25.9398 13.9486 25.8978 13.9552 25.862 13.9754C25.8262 13.9957 25.799 14.0282 25.7854 14.0671L22.7214 23.4361C22.5714 23.8661 22.0314 24.0061 21.7014 23.7061L20.9514 23.0361C20.3314 22.4761 19.5214 22.1761 18.6814 22.1761H13.6514C12.8114 22.1761 12.0114 22.4861 11.3814 23.0361L10.6314 23.7061C10.2914 24.0061 9.75135 23.8661 9.61135 23.4361L6.50435 14.0021C6.49848 13.9841 6.48711 13.9685 6.47185 13.9573C6.4566 13.9462 6.43823 13.9402 6.41935 13.9401ZM12.5884 25.8601V24.0781C12.5884 23.6081 12.9684 23.2281 13.4384 23.2281H18.5034C18.9734 23.2281 19.3534 23.6081 19.3534 24.0781V25.8611C19.3534 26.7811 18.2894 27.5211 17.3694 27.5211C17.1794 27.5211 17.0294 27.3711 17.0294 27.1811V26.8581C17.0294 26.3481 16.5614 25.9381 16.0514 25.9381C15.5414 25.9381 15.1354 26.3481 15.1354 26.8581V27.1811C15.1354 27.3711 14.9854 27.5211 14.7954 27.5211C13.8754 27.5211 12.5884 26.7801 12.5884 25.8601Z" fill="url(#paint45_radial_274_5959)"/>
<path fill-rule="evenodd" clip-rule="evenodd" d="M6.41935 13.9401C6.407 13.9402 6.39481 13.9428 6.38353 13.9478C6.37224 13.9528 6.36211 13.9601 6.35376 13.9692C6.34541 13.9783 6.33903 13.989 6.335 14.0007C6.33097 14.0124 6.32939 14.0248 6.33035 14.0371L7.13135 23.7461C7.29196 24.9538 7.75038 26.1026 8.46535 27.0891C9.04632 27.8516 9.75313 28.5093 10.5554 29.0341C11.6079 29.6868 12.8085 30.0625 14.0454 30.1261H18.0814C18.3044 30.1261 18.5244 30.1161 18.7384 30.0971C19.6793 30.0011 20.5927 29.724 21.4284 29.2811C22.9884 28.4321 24.1384 27.0531 24.7584 25.6551C24.9844 25.1251 25.1504 24.5611 25.2484 23.9721C25.2578 23.8969 25.2655 23.8216 25.2714 23.7461L25.3254 23.0511L26.1154 14.1351C26.1182 14.094 26.106 14.0533 26.0812 14.0206C26.0563 13.9878 26.0204 13.9652 25.9801 13.9569C25.9398 13.9486 25.8978 13.9552 25.862 13.9754C25.8262 13.9957 25.799 14.0282 25.7854 14.0671L22.7214 23.4361C22.5714 23.8661 22.0314 24.0061 21.7014 23.7061L20.9514 23.0361C20.3314 22.4761 19.5214 22.1761 18.6814 22.1761H13.6514C12.8114 22.1761 12.0114 22.4861 11.3814 23.0361L10.6314 23.7061C10.2914 24.0061 9.75135 23.8661 9.61135 23.4361L6.50435 14.0021C6.49848 13.9841 6.48711 13.9685 6.47185 13.9573C6.4566 13.9462 6.43823 13.9402 6.41935 13.9401ZM12.5884 25.8601V24.0781C12.5884 23.6081 12.9684 23.2281 13.4384 23.2281H18.5034C18.9734 23.2281 19.3534 23.6081 19.3534 24.0781V25.8611C19.3534 26.7811 18.2894 27.5211 17.3694 27.5211C17.1794 27.5211 17.0294 27.3711 17.0294 27.1811V26.8581C17.0294 26.3481 16.5614 25.9381 16.0514 25.9381C15.5414 25.9381 15.1354 26.3481 15.1354 26.8581V27.1811C15.1354 27.3711 14.9854 27.5211 14.7954 27.5211C13.8754 27.5211 12.5884 26.7801 12.5884 25.8601Z" fill="url(#paint46_radial_274_5959)"/>
<g filter="url(#filter17_f_274_5959)">
<path d="M9.52539 13.563C9.93139 13.224 11.1314 12.6 12.6814 12.813" stroke="#353535" stroke-width="0.25" stroke-linecap="round"/>
</g>
<g filter="url(#filter18_f_274_5959)">
<path d="M22.572 13.5159C22.166 13.1779 20.966 12.5529 19.416 12.7659" stroke="#433739" stroke-width="0.25" stroke-linecap="round"/>
</g>
<defs>
<filter id="filter0_ii_274_5959" x="3.84961" y="1.76514" width="24.4141" height="15.1108" filterUnits="userSpaceOnUse" color-interpolation-filters="sRGB">
<feFlood flood-opacity="0" result="BackgroundImageFix"/>
<feBlend mode="normal" in="SourceGraphic" in2="BackgroundImageFix" result="shape"/>
<feColorMatrix in="SourceAlpha" type="matrix" values="0 0 0 0 0 0 0 0 0 0 0 0 0 0 0 0 0 0 127 0" result="hardAlpha"/>
<feOffset dy="-0.5"/>
<feGaussianBlur stdDeviation="0.625"/>
<feComposite in2="hardAlpha" operator="arithmetic" k2="-1" k3="1"/>
<feColorMatrix type="matrix" values="0 0 0 0 0.137255 0 0 0 0 0.0901961 0 0 0 0 0.145098 0 0 0 1 0"/>
<feBlend mode="normal" in2="shape" result="effect1_innerShadow_274_5959"/>
<feColorMatrix in="SourceAlpha" type="matrix" values="0 0 0 0 0 0 0 0 0 0 0 0 0 0 0 0 0 0 127 0" result="hardAlpha"/>
<feOffset dy="-0.2"/>
<feGaussianBlur stdDeviation="0.2"/>
<feComposite in2="hardAlpha" operator="arithmetic" k2="-1" k3="1"/>
<feColorMatrix type="matrix" values="0 0 0 0 0.0784314 0 0 0 0 0.0352941 0 0 0 0 0.0470588 0 0 0 1 0"/>
<feBlend mode="normal" in2="effect1_innerShadow_274_5959" result="effect2_innerShadow_274_5959"/>
</filter>
<filter id="filter1_i_274_5959" x="4.06055" y="15.126" width="6.39922" height="6.39995" filterUnits="userSpaceOnUse" color-interpolation-filters="sRGB">
<feFlood flood-opacity="0" result="BackgroundImageFix"/>
<feBlend mode="normal" in="SourceGraphic" in2="BackgroundImageFix" result="shape"/>
<feColorMatrix in="SourceAlpha" type="matrix" values="0 0 0 0 0 0 0 0 0 0 0 0 0 0 0 0 0 0 127 0" result="hardAlpha"/>
<feOffset dx="0.2" dy="0.2"/>
<feGaussianBlur stdDeviation="0.2"/>
<feComposite in2="hardAlpha" operator="arithmetic" k2="-1" k3="1"/>
<feColorMatrix type="matrix" values="0 0 0 0 0.509804 0 0 0 0 0.396078 0 0 0 0 0.360784 0 0 0 1 0"/>
<feBlend mode="normal" in2="shape" result="effect1_innerShadow_274_5959"/>
</filter>
<filter id="filter2_f_274_5959" x="22.7441" y="16.0181" width="4.41602" height="4.41602" filterUnits="userSpaceOnUse" color-interpolation-filters="sRGB">
<feFlood flood-opacity="0" result="BackgroundImageFix"/>
<feBlend mode="normal" in="SourceGraphic" in2="BackgroundImageFix" result="shape"/>
<feGaussianBlur stdDeviation="0.125" result="effect1_foregroundBlur_274_5959"/>
</filter>
<filter id="filter3_f_274_5959" x="4.95117" y="16.016" width="4.41992" height="4.42004" filterUnits="userSpaceOnUse" color-interpolation-filters="sRGB">
<feFlood flood-opacity="0" result="BackgroundImageFix"/>
<feBlend mode="normal" in="SourceGraphic" in2="BackgroundImageFix" result="shape"/>
<feGaussianBlur stdDeviation="0.125" result="effect1_foregroundBlur_274_5959"/>
</filter>
<filter id="filter4_i_274_5959" x="6.46289" y="7.27612" width="19.3789" height="23.11" filterUnits="userSpaceOnUse" color-interpolation-filters="sRGB">
<feFlood flood-opacity="0" result="BackgroundImageFix"/>
<feBlend mode="normal" in="SourceGraphic" in2="BackgroundImageFix" result="shape"/>
<feColorMatrix in="SourceAlpha" type="matrix" values="0 0 0 0 0 0 0 0 0 0 0 0 0 0 0 0 0 0 127 0" result="hardAlpha"/>
<feOffset dy="0.25"/>
<feGaussianBlur stdDeviation="0.25"/>
<feComposite in2="hardAlpha" operator="arithmetic" k2="-1" k3="1"/>
<feColorMatrix type="matrix" values="0 0 0 0 0.431373 0 0 0 0 0.239216 0 0 0 0 0.231373 0 0 0 1 0"/>
<feBlend mode="normal" in2="shape" result="effect1_innerShadow_274_5959"/>
</filter>
<filter id="filter5_f_274_5959" x="13.5742" y="17.1329" width="4.35938" height="5.99963" filterUnits="userSpaceOnUse" color-interpolation-filters="sRGB">
<feFlood flood-opacity="0" result="BackgroundImageFix"/>
<feBlend mode="normal" in="SourceGraphic" in2="BackgroundImageFix" result="shape"/>
<feGaussianBlur stdDeviation="0.25" result="effect1_foregroundBlur_274_5959"/>
</filter>
<filter id="filter6_f_274_5959" x="12.6832" y="23.212" width="6.63359" height="2.51897" filterUnits="userSpaceOnUse" color-interpolation-filters="sRGB">
<feFlood flood-opacity="0" result="BackgroundImageFix"/>
<feBlend mode="normal" in="SourceGraphic" in2="BackgroundImageFix" result="shape"/>
<feGaussianBlur stdDeviation="0.05" result="effect1_foregroundBlur_274_5959"/>
</filter>
<filter id="filter7_i_274_5959" x="18.8125" y="12.0659" width="4.27383" height="2.04644" filterUnits="userSpaceOnUse" color-interpolation-filters="sRGB">
<feFlood flood-opacity="0" result="BackgroundImageFix"/>
<feBlend mode="normal" in="SourceGraphic" in2="BackgroundImageFix" result="shape"/>
<feColorMatrix in="SourceAlpha" type="matrix" values="0 0 0 0 0 0 0 0 0 0 0 0 0 0 0 0 0 0 127 0" result="hardAlpha"/>
<feOffset dx="0.1" dy="-0.2"/>
<feGaussianBlur stdDeviation="0.125"/>
<feComposite in2="hardAlpha" operator="arithmetic" k2="-1" k3="1"/>
<feColorMatrix type="matrix" values="0 0 0 0 0.172549 0 0 0 0 0.0862745 0 0 0 0 0.156863 0 0 0 1 0"/>
<feBlend mode="normal" in2="shape" result="effect1_innerShadow_274_5959"/>
</filter>
<filter id="filter8_i_274_5959" x="9.01172" y="12.0936" width="4.27383" height="2.01958" filterUnits="userSpaceOnUse" color-interpolation-filters="sRGB">
<feFlood flood-opacity="0" result="BackgroundImageFix"/>
<feBlend mode="normal" in="SourceGraphic" in2="BackgroundImageFix" result="shape"/>
<feColorMatrix in="SourceAlpha" type="matrix" values="0 0 0 0 0 0 0 0 0 0 0 0 0 0 0 0 0 0 127 0" result="hardAlpha"/>
<feOffset dx="0.1" dy="-0.2"/>
<feGaussianBlur stdDeviation="0.125"/>
<feComposite in2="hardAlpha" operator="arithmetic" k2="-1" k3="1"/>
<feColorMatrix type="matrix" values="0 0 0 0 0.172549 0 0 0 0 0.0862745 0 0 0 0 0.156863 0 0 0 1 0"/>
<feBlend mode="normal" in2="shape" result="effect1_innerShadow_274_5959"/>
</filter>
<filter id="filter9_if_274_5959" x="4.51562" y="3.1958" width="12.3438" height="11.2391" filterUnits="userSpaceOnUse" color-interpolation-filters="sRGB">
<feFlood flood-opacity="0" result="BackgroundImageFix"/>
<feBlend mode="normal" in="SourceGraphic" in2="BackgroundImageFix" result="shape"/>
<feColorMatrix in="SourceAlpha" type="matrix" values="0 0 0 0 0 0 0 0 0 0 0 0 0 0 0 0 0 0 127 0" result="hardAlpha"/>
<feOffset dx="0.4" dy="0.2"/>
<feGaussianBlur stdDeviation="0.2"/>
<feComposite in2="hardAlpha" operator="arithmetic" k2="-1" k3="1"/>
<feColorMatrix type="matrix" values="0 0 0 0 0.286275 0 0 0 0 0.243137 0 0 0 0 0.227451 0 0 0 1 0"/>
<feBlend mode="normal" in2="shape" result="effect1_innerShadow_274_5959"/>
<feGaussianBlur stdDeviation="0.25" result="effect2_foregroundBlur_274_5959"/>
</filter>
<filter id="filter10_f_274_5959" x="15.7402" y="3.81836" width="12.0938" height="10.9646" filterUnits="userSpaceOnUse" color-interpolation-filters="sRGB">
<feFlood flood-opacity="0" result="BackgroundImageFix"/>
<feBlend mode="normal" in="SourceGraphic" in2="BackgroundImageFix" result="shape"/>
<feGaussianBlur stdDeviation="0.25" result="effect1_foregroundBlur_274_5959"/>
</filter>
<filter id="filter11_f_274_5959" x="14.232" y="17.0758" width="3.68047" height="5.23528" filterUnits="userSpaceOnUse" color-interpolation-filters="sRGB">
<feFlood flood-opacity="0" result="BackgroundImageFix"/>
<feBlend mode="normal" in="SourceGraphic" in2="BackgroundImageFix" result="shape"/>
<feGaussianBlur stdDeviation="0.05" result="effect1_foregroundBlur_274_5959"/>
</filter>
<filter id="filter12_f_274_5959" x="18.982" y="16.3594" width="1.29375" height="1.12529" filterUnits="userSpaceOnUse" color-interpolation-filters="sRGB">
<feFlood flood-opacity="0" result="BackgroundImageFix"/>
<feBlend mode="normal" in="SourceGraphic" in2="BackgroundImageFix" result="shape"/>
<feGaussianBlur stdDeviation="0.05" result="effect1_foregroundBlur_274_5959"/>
</filter>
<filter id="filter13_f_274_5959" x="20.634" y="16.5859" width="1.31602" height="1.35703" filterUnits="userSpaceOnUse" color-interpolation-filters="sRGB">
<feFlood flood-opacity="0" result="BackgroundImageFix"/>
<feBlend mode="normal" in="SourceGraphic" in2="BackgroundImageFix" result="shape"/>
<feGaussianBlur stdDeviation="0.1" result="effect1_foregroundBlur_274_5959"/>
</filter>
<filter id="filter14_f_274_5959" x="12.1594" y="16.46" width="1.51133" height="1.61399" filterUnits="userSpaceOnUse" color-interpolation-filters="sRGB">
<feFlood flood-opacity="0" result="BackgroundImageFix"/>
<feBlend mode="normal" in="SourceGraphic" in2="BackgroundImageFix" result="shape"/>
<feGaussianBlur stdDeviation="0.1" result="effect1_foregroundBlur_274_5959"/>
</filter>
<filter id="filter15_f_274_5959" x="10.6383" y="16.3324" width="1.55156" height="1.15691" filterUnits="userSpaceOnUse" color-interpolation-filters="sRGB">
<feFlood flood-opacity="0" result="BackgroundImageFix"/>
<feBlend mode="normal" in="SourceGraphic" in2="BackgroundImageFix" result="shape"/>
<feGaussianBlur stdDeviation="0.05" result="effect1_foregroundBlur_274_5959"/>
</filter>
<filter id="filter16_ii_274_5959" x="6.33008" y="13.9401" width="20.0352" height="16.686" filterUnits="userSpaceOnUse" color-interpolation-filters="sRGB">
<feFlood flood-opacity="0" result="BackgroundImageFix"/>
<feBlend mode="normal" in="SourceGraphic" in2="BackgroundImageFix" result="shape"/>
<feColorMatrix in="SourceAlpha" type="matrix" values="0 0 0 0 0 0 0 0 0 0 0 0 0 0 0 0 0 0 127 0" result="hardAlpha"/>
<feOffset dy="0.5"/>
<feGaussianBlur stdDeviation="0.5"/>
<feComposite in2="hardAlpha" operator="arithmetic" k2="-1" k3="1"/>
<feColorMatrix type="matrix" values="0 0 0 0 0.282353 0 0 0 0 0.278431 0 0 0 0 0.278431 0 0 0 1 0"/>
<feBlend mode="normal" in2="shape" result="effect1_innerShadow_274_5959"/>
<feColorMatrix in="SourceAlpha" type="matrix" values="0 0 0 0 0 0 0 0 0 0 0 0 0 0 0 0 0 0 127 0" result="hardAlpha"/>
<feOffset dx="0.25" dy="0.25"/>
<feGaussianBlur stdDeviation="0.175"/>
<feComposite in2="hardAlpha" operator="arithmetic" k2="-1" k3="1"/>
<feColorMatrix type="matrix" values="0 0 0 0 0.0392157 0 0 0 0 0.0156863 0 0 0 0 0.0196078 0 0 0 1 0"/>
<feBlend mode="normal" in2="effect1_innerShadow_274_5959" result="effect2_innerShadow_274_5959"/>
</filter>
<filter id="filter17_f_274_5959" x="9.15039" y="12.3947" width="3.90625" height="1.54333" filterUnits="userSpaceOnUse" color-interpolation-filters="sRGB">
<feFlood flood-opacity="0" result="BackgroundImageFix"/>
<feBlend mode="normal" in="SourceGraphic" in2="BackgroundImageFix" result="shape"/>
<feGaussianBlur stdDeviation="0.125" result="effect1_foregroundBlur_274_5959"/>
</filter>
<filter id="filter18_f_274_5959" x="19.041" y="12.3477" width="3.90625" height="1.54333" filterUnits="userSpaceOnUse" color-interpolation-filters="sRGB">
<feFlood flood-opacity="0" result="BackgroundImageFix"/>
<feBlend mode="normal" in="SourceGraphic" in2="BackgroundImageFix" result="shape"/>
<feGaussianBlur stdDeviation="0.125" result="effect1_foregroundBlur_274_5959"/>
</filter>
<radialGradient id="paint0_radial_274_5959" cx="0" cy="0" r="1" gradientUnits="userSpaceOnUse" gradientTransform="translate(26.3189 20.186) rotate(109.374) scale(4.41616 5.03671)">
<stop offset="0.215" stop-color="#332F31"/>
<stop offset="1" stop-color="#221925"/>
</radialGradient>
<linearGradient id="paint1_linear_274_5959" x1="29.0514" y1="8.18801" x2="7.02837" y2="8.18801" gradientUnits="userSpaceOnUse">
<stop stop-color="#443237"/>
<stop offset="1" stop-color="#362C2E"/>
</linearGradient>
<radialGradient id="paint2_radial_274_5959" cx="0" cy="0" r="1" gradientUnits="userSpaceOnUse" gradientTransform="translate(6.13837 13.34) rotate(-90) scale(6.51104 16.7931)">
<stop offset="0.536" stop-color="#3E3433"/>
<stop offset="1" stop-color="#3E3433" stop-opacity="0"/>
</radialGradient>
<radialGradient id="paint3_radial_274_5959" cx="0" cy="0" r="1" gradientUnits="userSpaceOnUse" gradientTransform="translate(25.2754 15.777) rotate(-87.3496) scale(4.6773 8.45138)">
<stop stop-color="#4F4D4D"/>
<stop offset="1" stop-color="#4F4D4D" stop-opacity="0"/>
</radialGradient>
<radialGradient id="paint4_radial_274_5959" cx="0" cy="0" r="1" gradientUnits="userSpaceOnUse" gradientTransform="translate(23.8443 4.1058) rotate(-147.183) scale(5.32326 3.87656)">
<stop stop-color="#402C32"/>
<stop offset="1" stop-color="#402C32" stop-opacity="0"/>
</radialGradient>
<radialGradient id="paint5_radial_274_5959" cx="0" cy="0" r="1" gradientUnits="userSpaceOnUse" gradientTransform="translate(14.3394 1.14401) rotate(57.9601) scale(3.23578 7.55847)">
<stop offset="0.287" stop-color="#484646"/>
<stop offset="1" stop-color="#484646" stop-opacity="0"/>
</radialGradient>
<radialGradient id="paint6_radial_274_5959" cx="0" cy="0" r="1" gradientUnits="userSpaceOnUse" gradientTransform="translate(4.29045 21.2755) rotate(13.269) scale(4.49122 10.8213)">
<stop stop-color="#3E3330"/>
<stop offset="0.746" stop-color="#201524"/>
</radialGradient>
<linearGradient id="paint7_linear_274_5959" x1="8.39955" y1="19.771" x2="4.32555" y2="16.661" gradientUnits="userSpaceOnUse">
<stop stop-color="#64374E"/>
<stop offset="1" stop-color="#5B3C3A"/>
</linearGradient>
<linearGradient id="paint8_linear_274_5959" x1="27.6816" y1="15.61" x2="28.3796" y2="20.002" gradientUnits="userSpaceOnUse">
<stop stop-color="#97776C"/>
<stop offset="1" stop-color="#805959"/>
</linearGradient>
<radialGradient id="paint9_radial_274_5959" cx="0" cy="0" r="1" gradientUnits="userSpaceOnUse" gradientTransform="translate(24.3066 17.391) rotate(95.3558) scale(5.02192 5.44334)">
<stop offset="0.69" stop-color="#6F414F" stop-opacity="0"/>
<stop offset="0.902" stop-color="#6F414F"/>
</radialGradient>
<radialGradient id="paint10_radial_274_5959" cx="0" cy="0" r="1" gradientUnits="userSpaceOnUse" gradientTransform="translate(24.5936 18.125) rotate(-49.4639) scale(2.9811 2.70163)">
<stop offset="0.564" stop-color="#724640"/>
<stop offset="1" stop-color="#724640" stop-opacity="0"/>
</radialGradient>
<radialGradient id="paint11_radial_274_5959" cx="0" cy="0" r="1" gradientUnits="userSpaceOnUse" gradientTransform="translate(24.9521 18.2261) scale(1.95788)">
<stop offset="0.337" stop-color="#7C5C56"/>
<stop offset="1" stop-color="#744740"/>
</radialGradient>
<radialGradient id="paint12_radial_274_5959" cx="0" cy="0" r="1" gradientUnits="userSpaceOnUse" gradientTransform="translate(7.16117 18.226) scale(1.95998)">
<stop stop-color="#533238"/>
<stop offset="1" stop-color="#522B30"/>
</radialGradient>
<linearGradient id="paint13_linear_274_5959" x1="20.3119" y1="19.3911" x2="9.91989" y2="19.3911" gradientUnits="userSpaceOnUse">
<stop stop-color="#986A5B"/>
<stop offset="1" stop-color="#714B48"/>
</linearGradient>
<linearGradient id="paint14_linear_274_5959" x1="15.4309" y1="29.5161" x2="15.4309" y2="23.1861" gradientUnits="userSpaceOnUse">
<stop stop-color="#59302C"/>
<stop offset="1" stop-color="#764859" stop-opacity="0"/>
</linearGradient>
<radialGradient id="paint15_radial_274_5959" cx="0" cy="0" r="1" gradientUnits="userSpaceOnUse" gradientTransform="translate(15.3659 28.0991) rotate(-88.1523) scale(1.96164 1.10724)">
<stop offset="0.247" stop-color="#582C2B"/>
<stop offset="1" stop-color="#582C2B" stop-opacity="0"/>
</radialGradient>
<radialGradient id="paint16_radial_274_5959" cx="0" cy="0" r="1" gradientUnits="userSpaceOnUse" gradientTransform="translate(19.6889 25.8341) rotate(180) scale(0.93926 2.73391)">
<stop offset="0.25" stop-color="#6B393D"/>
<stop offset="1" stop-color="#6B393D" stop-opacity="0"/>
</radialGradient>
<radialGradient id="paint17_radial_274_5959" cx="0" cy="0" r="1" gradientUnits="userSpaceOnUse" gradientTransform="translate(20.7669 15.9101) rotate(-90) scale(1.91873 2.92105)">
<stop stop-color="#865353"/>
<stop offset="1" stop-color="#865353" stop-opacity="0"/>
</radialGradient>
<radialGradient id="paint18_radial_274_5959" cx="0" cy="0" r="1" gradientUnits="userSpaceOnUse" gradientTransform="translate(11.5929 16.3131) rotate(-85.9144) scale(2.19307 2.98124)">
<stop stop-color="#70424E"/>
<stop offset="1" stop-color="#70424E" stop-opacity="0"/>
</radialGradient>
<radialGradient id="paint19_radial_274_5959" cx="0" cy="0" r="1" gradientUnits="userSpaceOnUse" gradientTransform="translate(5.15489 18.8751) rotate(60.218) scale(11.9539 3.26358)">
<stop offset="0.605" stop-color="#542E2A"/>
<stop offset="1" stop-color="#542E2A" stop-opacity="0"/>
</radialGradient>
<radialGradient id="paint20_radial_274_5959" cx="0" cy="0" r="1" gradientUnits="userSpaceOnUse" gradientTransform="translate(5.64489 13.8431) rotate(-4.00399) scale(3.13265 19.3508)">
<stop offset="0.399" stop-color="#805F57"/>
<stop offset="1" stop-color="#805F57" stop-opacity="0"/>
</radialGradient>
<radialGradient id="paint21_radial_274_5959" cx="0" cy="0" r="1" gradientUnits="userSpaceOnUse" gradientTransform="translate(4.7798 13.0941) rotate(-50.513) scale(9.27253 2.32557)">
<stop offset="0.302" stop-color="#4C2A29"/>
<stop offset="1" stop-color="#4C2A29" stop-opacity="0"/>
</radialGradient>
<radialGradient id="paint22_radial_274_5959" cx="0" cy="0" r="1" gradientUnits="userSpaceOnUse" gradientTransform="translate(20.6449 9.21912) rotate(104.681) scale(8.75457 7.43355)">
<stop stop-color="#855E5A"/>
<stop offset="1" stop-color="#855E5A" stop-opacity="0"/>
</radialGradient>
<linearGradient id="paint23_linear_274_5959" x1="14.0373" y1="25.297" x2="14.9593" y2="23.734" gradientUnits="userSpaceOnUse">
<stop stop-color="#815C5F"/>
<stop offset="1" stop-color="#815C5F" stop-opacity="0"/>
</linearGradient>
<radialGradient id="paint24_radial_274_5959" cx="0" cy="0" r="1" gradientUnits="userSpaceOnUse" gradientTransform="translate(15.9994 25.5311) rotate(-90) scale(1.26502 3.72016)">
<stop stop-color="#88004E"/>
<stop offset="1" stop-color="#86004D"/>
</radialGradient>
<radialGradient id="paint25_radial_274_5959" cx="0" cy="0" r="1" gradientUnits="userSpaceOnUse" gradientTransform="translate(16.3596 5.21893) rotate(180) scale(4.10381 1.52308)">
<stop stop-color="#423C3F"/>
<stop offset="1" stop-color="#423C3F" stop-opacity="0"/>
</radialGradient>
<radialGradient id="paint26_radial_274_5959" cx="0" cy="0" r="1" gradientUnits="userSpaceOnUse" gradientTransform="translate(5.76163 12.5699) rotate(-57.7244) scale(11.2361 12.4484)">
<stop offset="0.093" stop-color="#0B0306"/>
<stop offset="0.311" stop-color="#1C0C20"/>
<stop offset="1" stop-color="#1C0C20" stop-opacity="0"/>
</radialGradient>
<radialGradient id="paint27_radial_274_5959" cx="0" cy="0" r="1" gradientUnits="userSpaceOnUse" gradientTransform="translate(22.6016 6.70301) scale(5.70209 2.22942)">
<stop stop-color="#4E494B"/>
<stop offset="1" stop-color="#4E494B" stop-opacity="0"/>
</radialGradient>
<radialGradient id="paint28_radial_274_5959" cx="0" cy="0" r="1" gradientUnits="userSpaceOnUse" gradientTransform="translate(21.147 12.3654) rotate(-43.614) scale(6.89811 12.6287)">
<stop offset="0.857" stop-color="#545051" stop-opacity="0"/>
<stop offset="1" stop-color="#545051"/>
</radialGradient>
<radialGradient id="paint29_radial_274_5959" cx="0" cy="0" r="1" gradientUnits="userSpaceOnUse" gradientTransform="translate(19.4956 9.61301) rotate(6.66699) scale(6.09723 2.5528)">
<stop stop-color="#200E25"/>
<stop offset="1" stop-color="#200E25" stop-opacity="0"/>
</radialGradient>
<radialGradient id="paint30_radial_274_5959" cx="0" cy="0" r="1" gradientUnits="userSpaceOnUse" gradientTransform="translate(17.8122 20.913) rotate(-100.177) scale(5.02068 1.35669)">
<stop offset="0.101" stop-color="#A17C72"/>
<stop offset="1" stop-color="#A17C72" stop-opacity="0"/>
</radialGradient>
<linearGradient id="paint31_linear_274_5959" x1="16.0722" y1="22.211" x2="16.0722" y2="20.932" gradientUnits="userSpaceOnUse">
<stop stop-color="#774254"/>
<stop offset="1" stop-color="#774254" stop-opacity="0"/>
</linearGradient>
<linearGradient id="paint32_linear_274_5959" x1="14.1152" y1="20.744" x2="15.8342" y2="20.869" gradientUnits="userSpaceOnUse">
<stop stop-color="#724B48"/>
<stop offset="1" stop-color="#724B48" stop-opacity="0"/>
</linearGradient>
<linearGradient id="paint33_linear_274_5959" x1="16.2092" y1="17.009" x2="16.2092" y2="17.812" gradientUnits="userSpaceOnUse">
<stop stop-color="#885E53"/>
<stop offset="1" stop-color="#885E53" stop-opacity="0"/>
</linearGradient>
<radialGradient id="paint34_radial_274_5959" cx="0" cy="0" r="1" gradientUnits="userSpaceOnUse" gradientTransform="translate(16.8782 21.07) rotate(90) scale(0.3777 1.02893)">
<stop stop-color="#9E7A73"/>
<stop offset="1" stop-color="#9E7A73" stop-opacity="0"/>
</radialGradient>
<radialGradient id="paint35_radial_274_5959" cx="0" cy="0" r="1" gradientUnits="userSpaceOnUse" gradientTransform="translate(20.2647 17.0931) rotate(90) scale(1.51263 2.40601)">
<stop offset="0.802" stop-color="#7D574A"/>
<stop offset="1" stop-color="#664842"/>
</radialGradient>
<radialGradient id="paint36_radial_274_5959" cx="0" cy="0" r="1" gradientUnits="userSpaceOnUse" gradientTransform="translate(19.8392 17.25) rotate(-127.812) scale(0.705289 0.971007)">
<stop offset="0.766" stop-color="#FFE6E2" stop-opacity="0"/>
<stop offset="0.966" stop-color="#FFE6E2"/>
</radialGradient>
<linearGradient id="paint37_linear_274_5959" x1="21.715" y1="17.1929" x2="21.13" y2="17.5539" gradientUnits="userSpaceOnUse">
<stop stop-color="#B4948D"/>
<stop offset="1" stop-color="#B4948D" stop-opacity="0"/>
</linearGradient>
<radialGradient id="paint38_radial_274_5959" cx="0" cy="0" r="1" gradientUnits="userSpaceOnUse" gradientTransform="translate(11.9289 17.092) rotate(90) scale(1.53876 2.44757)">
<stop offset="0.802" stop-color="#7D574A"/>
<stop offset="1" stop-color="#664842"/>
</radialGradient>
<linearGradient id="paint39_linear_274_5959" x1="13.3394" y1="17.194" x2="12.7444" y2="17.561" gradientUnits="userSpaceOnUse">
<stop stop-color="#B4948D"/>
<stop offset="1" stop-color="#B4948D" stop-opacity="0"/>
</linearGradient>
<radialGradient id="paint40_radial_274_5959" cx="0" cy="0" r="1" gradientUnits="userSpaceOnUse" gradientTransform="translate(11.6679 17.4519) rotate(-118.811) scale(0.937154 1.1265)">
<stop offset="0.766" stop-color="#FFE6E2" stop-opacity="0"/>
<stop offset="0.966" stop-color="#FFE6E2"/>
</radialGradient>
<linearGradient id="paint41_linear_274_5959" x1="11.3424" y1="27.7371" x2="25.4314" y2="14.2271" gradientUnits="userSpaceOnUse">
<stop stop-color="#1A1021"/>
<stop offset="1" stop-color="#393536"/>
</linearGradient>
<radialGradient id="paint42_radial_274_5959" cx="0" cy="0" r="1" gradientUnits="userSpaceOnUse" gradientTransform="translate(23.8625 19.1573) rotate(101.053) scale(6.66913 1.63681)">
<stop stop-color="#4D494B"/>
<stop offset="1" stop-color="#4D494B" stop-opacity="0"/>
</radialGradient>
<radialGradient id="paint43_radial_274_5959" cx="0" cy="0" r="1" gradientUnits="userSpaceOnUse" gradientTransform="translate(16.2274 18.6751) rotate(90) scale(11.9534 14.6299)">
<stop offset="0.794" stop-color="#271832" stop-opacity="0"/>
<stop offset="1" stop-color="#271832"/>
</radialGradient>
<radialGradient id="paint44_radial_274_5959" cx="0" cy="0" r="1" gradientUnits="userSpaceOnUse" gradientTransform="translate(18.5613 21.0782) rotate(170.368) scale(11.4828 23.9686)">
<stop offset="0.831" stop-color="#4E4442" stop-opacity="0"/>
<stop offset="1" stop-color="#4E4442"/>
</radialGradient>
<radialGradient id="paint45_radial_274_5959" cx="0" cy="0" r="1" gradientUnits="userSpaceOnUse" gradientTransform="translate(12.4264 20.8271) rotate(7.62198) scale(13.8289 33.3292)">
<stop offset="0.901" stop-color="#585657" stop-opacity="0"/>
<stop offset="0.969" stop-color="#585657"/>
</radialGradient>
<radialGradient id="paint46_radial_274_5959" cx="0" cy="0" r="1" gradientUnits="userSpaceOnUse" gradientTransform="translate(16.0144 23.5931) rotate(90) scale(1.17005 3.77893)">
<stop offset="0.287" stop-color="#100510"/>
<stop offset="1" stop-color="#100510" stop-opacity="0"/>
</radialGradient>
</defs>
</svg>
